<?xml version="1.0" standalone="no"?>
<!DOCTYPE svg PUBLIC "-//W3C//DTD SVG 1.1//EN" "http://www.w3.org/Graphics/SVG/1.1/DTD/svg11.dtd" >
<svg xmlns="http://www.w3.org/2000/svg" xmlns:xlink="http://www.w3.org/1999/xlink" version="1.1">
<metadata>
Created by FontForge 20190801 at Sun Apr 12 23:28:30 2020
 By Unknown
Copyright (c) 2019 by www.fontiran.com All rights reserved.
</metadata>
<defs>
<font id="Anjoman-FaNum-Bold" horiz-adv-x="0" >
  <font-face 
    font-family="Anjoman Bold"
    font-weight="700"
    font-stretch="normal"
    units-per-em="1000"
    panose-1="0 0 8 0 0 0 0 0 0 0"
    ascent="800"
    descent="-200"
    x-height="544"
    cap-height="717"
    bbox="-224 -731 1638 1113"
    underline-thickness="74"
    underline-position="-449"
    unicode-range="U+0020-FEFC"
  />
<missing-glyph horiz-adv-x="785" 
d="M643 1069v-1569h-497v1569h497zM522 964h-258v-52h102v-58h-104v-52h260v52h-103v58h103v52zM419 761h-157v-163h260v54h-103v109zM366 708v-56h-52v56h52zM522 556h-260v-52h104v-58h-104v-52h157v110h103v52zM522 462h-51v-104h-209v-53h260v157zM522 270h-156v-87h53
v36h52v-74h-157v125h-52v-177h260v177zM522 -1h-260v-177h260v177zM471 -53v-74h-157v74h157zM522 -214h-260v-52h110l-110 -74v-52h260v52h-160l110 74h50v52z" />
    <glyph glyph-name="uniFDF2" unicode="&#x627;&#xfedf;&#xfee0;&#xfeea;" horiz-adv-x="1491" arabic-form="isolated" 
d="M772 717h-58l-9 176l72 14zM1422 763l2 -763l-110 -14l-24 755zM1191 175q1 -37 -14 -71t-48 -56q-34 -23 -85.5 -35.5t-104.5 -12.5q-78 0 -122 19t-57 63q-31 -47 -86 -64.5t-135 -17.5h-52q-51 0 -87 25t-49 69l-5 -11q-13 -29 -46.5 -38t-96.5 -9t-99.5 30.5
t-36.5 91.5q0 73 19.5 120.5t65 84t129.5 73.5l-10 73l120 35l28 -272q4 -38 10 -59t22.5 -33.5t48.5 -12.5h39q58 0 96.5 4t64.5 15l-9 220l120 22l1 -184q0 -34 23.5 -55.5t68.5 -21.5h35q91 0 140 25l-30 534l132 23zM596 509.5q-27 23.5 -27 62.5q0 21 2.5 47t7.5 62
l68 -13l-10 -61q-3 -16 6.5 -24t24.5 -8q20 0 42 12v66h62v-56q0 -13 9 -17.5t25 -4.5t36 11q-2 47 -10 87l72 22q10 -67 10 -112t-29 -71t-72 -26q-25 0 -40.5 7t-27.5 21q-35 -28 -79 -28q-43 0 -70 23.5zM318 206l-16 110q-119 -45 -133 -121q22 -9 51 -9q38 0 98 20z
" />
    <glyph glyph-name="uniFEF5" unicode="&#xfedf;&#xfe82;" horiz-adv-x="542" arabic-form="isolated" 
d="M223.5 159.5q93.5 19.5 136.5 43.5l-32 538l132 22l10 -559q1 -81 -62 -132t-156 -75t-191 -29l-22 167q91 5 184.5 24.5zM75 525l106 70q44 -96 56.5 -187.5t12.5 -192.5l-107 -23q0 193 -68 333zM74 677q-26 4 -33 4q-16 0 -25 -9.5t-17 -39.5l-88 22q14 61 31 94
t40.5 46.5t58.5 13.5q19 0 54 -5q72 -9 124 -9h60l-26 -128h-55q-67 0 -124 11z" />
    <glyph glyph-name="uniFEF6" unicode="&#xfee0;&#xfe82;" horiz-adv-x="613" arabic-form="final" 
d="M620 155q3 -12 3 -28v-87q0 -16 -3 -28t-7 -12h-45q-65 0 -102.5 17.5t-55.5 56.5q-57 -50 -152 -75.5t-197 -30.5l-22 167q91 5 184.5 24.5t136.5 43.5l-32 538l132 22l10 -520q1 -32 9.5 -48t30.5 -22t67 -6h36q4 0 7 -12zM143 192q0 193 -68 333l106 70
q44 -96 56.5 -187.5t12.5 -192.5zM74 677q-26 4 -33 4q-16 0 -25 -9.5t-17 -39.5l-88 22q14 61 31 94t40.5 46.5t58.5 13.5q19 0 54 -5q72 -9 124 -9h60l-26 -128h-55q-67 0 -124 11z" />
    <glyph glyph-name="uniFEF7" unicode="&#xfedf;&#xfe84;" horiz-adv-x="542" arabic-form="isolated" 
d="M223.5 159.5q93.5 19.5 136.5 43.5l-32 538l132 22l10 -559q1 -81 -62 -132t-156 -75t-191 -29l-22 167q91 5 184.5 24.5zM75 525l106 70q44 -96 56.5 -187.5t12.5 -192.5l-107 -23q0 193 -68 333zM-80 658l96 26q-16 36 -21.5 61.5t-5.5 54.5q0 44 37.5 68.5t91.5 24.5
q39 0 70 -9l-17 -89q-32 8 -48 9q-8 1 -23 1q-23 0 -35 -5q0 -19 7.5 -37.5t28.5 -56.5l145 44l18 -89l-331 -92z" />
    <glyph glyph-name="uniFEF8" unicode="&#xfee0;&#xfe84;" horiz-adv-x="613" arabic-form="final" 
d="M620 155q3 -12 3 -28v-87q0 -16 -3 -28t-7 -12h-45q-65 0 -102.5 17.5t-55.5 56.5q-57 -50 -152 -75.5t-197 -30.5l-22 167q91 5 184.5 24.5t136.5 43.5l-32 538l132 22l10 -520q1 -32 9.5 -48t30.5 -22t67 -6h36q4 0 7 -12zM143 192q0 193 -68 333l106 70
q44 -96 56.5 -187.5t12.5 -192.5zM-80 658l96 26q-16 36 -21.5 61.5t-5.5 54.5q0 44 37.5 68.5t91.5 24.5q39 0 70 -9l-17 -89q-32 8 -48 9q-8 1 -23 1q-23 0 -35 -5q0 -19 7.5 -37.5t28.5 -56.5l145 44l18 -89l-331 -92z" />
    <glyph glyph-name="uniFEF9" unicode="&#xfedf;&#xfe88;" horiz-adv-x="542" arabic-form="isolated" 
d="M223.5 159.5q93.5 19.5 136.5 43.5l-32 538l132 22l10 -559q1 -81 -62 -132t-156 -75t-191 -29l-22 167q91 5 184.5 24.5zM119 409q-24 111 -99 212l97 84q84 -120 108.5 -241t24.5 -249l-107 -23q0 106 -24 217zM-16 -318l96 26q-16 36 -21.5 61.5t-5.5 54.5
q0 44 37.5 68.5t91.5 24.5q39 0 70 -9l-17 -89q-32 8 -48 9q-8 1 -23 1q-23 0 -35 -5q0 -19 7.5 -37.5t28.5 -56.5l145 44l18 -89l-331 -92z" />
    <glyph glyph-name="uniFEFA" unicode="&#xfee0;&#xfe88;" horiz-adv-x="613" arabic-form="final" 
d="M620 155q3 -12 3 -28v-87q0 -16 -3 -28t-7 -12h-45q-65 0 -102.5 17.5t-55.5 56.5q-57 -50 -152 -75.5t-197 -30.5l-22 167q91 5 184.5 24.5t136.5 43.5l-32 538l132 22l10 -520q1 -32 9.5 -48t30.5 -22t67 -6h36q4 0 7 -12zM143 192q0 106 -24 217t-99 212l97 84
q84 -120 108.5 -241t24.5 -249zM-16 -318l96 26q-16 36 -21.5 61.5t-5.5 54.5q0 44 37.5 68.5t91.5 24.5q39 0 70 -9l-17 -89q-32 8 -48 9q-8 1 -23 1q-23 0 -35 -5q0 -19 7.5 -37.5t28.5 -56.5l145 44l18 -89l-331 -92z" />
    <glyph glyph-name="uniFEFB" unicode="&#xfedf;&#xfe8e;" horiz-adv-x="542" arabic-form="isolated" 
d="M223.5 159.5q93.5 19.5 136.5 43.5l-32 538l132 22l10 -559q1 -81 -62 -132t-156 -75t-191 -29l-22 167q91 5 184.5 24.5zM119 409q-24 111 -99 212l97 84q84 -120 108.5 -241t24.5 -249l-107 -23q0 106 -24 217z" />
    <glyph glyph-name="uniFEFC" unicode="&#xfee0;&#xfe8e;" horiz-adv-x="613" arabic-form="final" 
d="M620 155q3 -12 3 -28v-87q0 -16 -3 -28t-7 -12h-45q-65 0 -102.5 17.5t-55.5 56.5q-57 -50 -152 -75.5t-197 -30.5l-22 167q91 5 184.5 24.5t136.5 43.5l-32 538l132 22l10 -520q1 -32 9.5 -48t30.5 -22t67 -6h36q4 0 7 -12zM143 192q0 106 -24 217t-99 212l97 84
q84 -120 108.5 -241t24.5 -249z" />
    <glyph glyph-name="uniFEDFFB51" unicode="&#xfedf;&#xfb51;" horiz-adv-x="542" 
d="M223.5 159.5q93.5 19.5 136.5 43.5l-32 538l132 22l10 -559q1 -81 -62 -132t-156 -75t-191 -29l-22 167q91 5 184.5 24.5zM75 525l106 70q44 -96 56.5 -187.5t12.5 -192.5l-107 -23q0 193 -68 333zM-51 625.5q-32 14.5 -32 48.5v36q-12 -9 -29.5 -31.5t-29.5 -48.5
l-63 36q6 24 31 59t62.5 60.5t78.5 22.5v-69q0 -9 5.5 -13t11.5 -4q40 51 78.5 86t79.5 35q52 0 76 -28.5t24 -90.5q0 -39 -14 -56q-24 -26 -73.5 -41.5t-106.5 -15.5q-67 0 -99 14.5zM175 717q-1 22 -9 32t-26 10q-19 0 -43 -15.5t-51 -43.5q71 1 129 17z" />
    <glyph glyph-name="uniFEE0FB51" unicode="&#xfee0;&#xfb51;" horiz-adv-x="613" 
d="M620 155q3 -12 3 -28v-87q0 -16 -3 -28t-7 -12h-45q-65 0 -102.5 17.5t-55.5 56.5q-57 -50 -152 -75.5t-197 -30.5l-22 167q91 5 184.5 24.5t136.5 43.5l-32 538l132 22l10 -520q1 -32 9.5 -48t30.5 -22t67 -6h36q4 0 7 -12zM143 192q0 193 -68 333l106 70
q44 -96 56.5 -187.5t12.5 -192.5zM-51 625.5q-32 14.5 -32 48.5v36q-12 -9 -29.5 -31.5t-29.5 -48.5l-63 36q6 24 31 59t62.5 60.5t78.5 22.5v-69q0 -9 5.5 -13t11.5 -4q40 51 78.5 86t79.5 35q52 0 76 -28.5t24 -90.5q0 -39 -14 -56q-24 -26 -73.5 -41.5t-106.5 -15.5
q-67 0 -99 14.5zM175 717q-1 22 -9 32t-26 10q-19 0 -43 -15.5t-51 -43.5q71 1 129 17z" />
    <glyph glyph-name="uni066E.init" unicode="&#x66e;" horiz-adv-x="353" 
d="M286 175q0 -38 -15 -71.5t-47 -55.5q-71 -48 -224 -48q-4 0 -6.5 11.5t-2.5 28.5v87q0 16 2.5 28t6.5 12q60 0 101 5t71 19l-24 214l128 22q10 -154 10 -252z" />
    <glyph glyph-name="uni066E.medi" unicode="&#x66e;" horiz-adv-x="383" 
d="M389.5 155q2.5 -12 2.5 -28v-87q0 -17 -2.5 -28.5t-6.5 -11.5q-87 0 -128 17.5t-54 58.5q-20 -42 -65 -59t-136 -17q-4 0 -6.5 11.5t-2.5 28.5v87q0 16 2.5 28t6.5 12q98 0 144 24l-22 179l127 14l9 -199q44 -18 125 -18q4 0 6.5 -12z" />
    <glyph glyph-name="uni066E.fina" unicode="&#x66e;" horiz-adv-x="918" 
d="M924 154.5q3 -12.5 3 -27.5v-87q0 -16 -3 -28t-6 -12q-80 0 -129.5 18.5t-62.5 52.5q-23 -32 -74 -47q-43 -13 -104 -21t-130 -8q-112 0 -188 17t-119.5 63.5t-43.5 129.5q0 21 8 72t25 150l102 -22q-24 -136 -24 -170q0 -31 21.5 -46.5t69.5 -21t141 -5.5q175 0 280 26
l-17 159l123 14l9 -181q36 -13 113 -13q3 0 6 -12.5z" />
    <glyph glyph-name="uni066F.fina" unicode="&#x66f;" horiz-adv-x="844" 
d="M850.5 155q2.5 -12 2.5 -28v-87q0 -17 -2.5 -28.5t-6.5 -11.5h-125q-5 -66 -17 -105.5t-36 -63.5q-49 -53 -146.5 -74.5t-190.5 -21.5q-140 0 -201 53t-61 159q0 36 23 171l25 159l102 -22q-39 -234 -39 -283q0 -40 45 -55t106 -15q78 0 145 10t131 37q1 7 5 60
q-42 -9 -103 -9q-44 0 -66 3.5t-37 14t-32 33.5t-22 38.5t-5 40.5q0 74 20.5 136.5t63.5 100.5t107 38q76 0 124 -66.5t59 -171.5h125q4 0 6.5 -12zM532 137q49 0 79 6q0 62 -23 93.5t-61 31.5q-34 0 -55 -32.5t-21 -91.5q47 -7 81 -7z" />
    <glyph glyph-name="uni0695.fina" unicode="&#x695;" horiz-adv-x="412" 
d="M418.5 155q2.5 -12 2.5 -28v-87q0 -17 -2.5 -28.5t-6.5 -11.5h-33q-29 0 -55 11.5t-44 33.5q-5 -109 -76.5 -195t-234.5 -163l-88 127q135 60 197 110.5t89 106.5l-42 305l132 27l15 -133q4 -36 29 -49.5t78 -13.5h33q4 0 6.5 -12zM-17.5 -539q-26.5 55 -65.5 116l80 40
q26 -44 43 -80t29 -77q13 41 32 77t49 80l71 -53q-69 -101 -111 -219l-77 -9q-24 70 -50.5 125z" />
    <glyph glyph-name="uni06A1.init" unicode="&#x6a1;" horiz-adv-x="488" 
d="M415 180q-7 -58 -25.5 -93t-53.5 -54q-28 -16 -63 -22.5t-92.5 -8.5t-180.5 -2q-4 0 -6.5 11.5t-2.5 28.5v87q0 16 2.5 28t6.5 12q163 0 223 1.5t82 7.5l4 52q-45 -8 -103 -8q-43 0 -65 3.5t-37.5 14t-31.5 33.5q-17 23 -22.5 38.5t-5.5 41.5q0 73 20.5 135.5t63.5 100.5
t107 38q58 0 100 -39t64 -105.5t22 -146.5q1 -96 -6 -154zM231 357q49 0 79 6q0 62 -23 93.5t-61 31.5q-33 0 -54 -32t-21 -92q47 -7 80 -7z" />
    <glyph glyph-name="uni06A1.medi" unicode="&#x6a1;" horiz-adv-x="487" 
d="M494 155q3 -12 3 -28v-87q0 -16 -3 -28t-7 -12h-83q-52 0 -92 12.5t-76 49.5q-34 -35 -76 -48.5t-99 -13.5h-61q-4 0 -6.5 11.5t-2.5 28.5v87q0 16 2.5 28t6.5 12h39h25q6 0 12.5 0.5t13.5 -0.5q-14 12 -22.5 31.5t-8.5 41.5q0 35 31 92t76.5 99t88.5 42q45 0 85 -32.5
t63.5 -85.5t23.5 -112q0 -30 -7 -48t-30 -31q21 3 55 3h42q4 0 7 -12zM317 229q0 38 -20 70.5t-47 32.5q-17 0 -37 -13.5t-34 -33.5t-14 -40q0 -18 22 -37.5t59 -31.5z" />
    <glyph glyph-name="uni06A1.fina" unicode="&#x6a1;" horiz-adv-x="976" 
d="M982.5 155q2.5 -12 2.5 -28v-87q0 -17 -2.5 -28.5t-6.5 -11.5h-84q-51 0 -91 12t-75 49q-22 -23 -48 -33q-48 -16 -110 -24.5t-150 -8.5q-112 0 -188 17t-119.5 63.5t-43.5 129.5q0 21 8 72t25 150l102 -22q-24 -136 -24 -170q0 -30 20 -45.5t68.5 -21.5t143.5 -6
q114 0 171 3q-15 12 -24 31.5t-9 43.5q0 35 30.5 92t76.5 99t89 42q45 0 84.5 -32.5t63 -85.5t23.5 -112q0 -30 -7 -48t-30 -31q22 3 56 3h42q4 0 6.5 -12zM805 229q0 38 -20 70.5t-46 32.5q-17 0 -37.5 -13.5t-34.5 -33.5t-14 -40q0 -18 22.5 -37t59.5 -32z" />
    <glyph glyph-name="uni06AA.init" unicode="&#x6aa;" horiz-adv-x="883" 
d="M653.5 409q79.5 -22 121 -75t41.5 -146q0 -46 -46.5 -89t-139.5 -71t-224 -28h-406q-4 0 -6.5 11.5t-2.5 28.5v87q0 16 2.5 28t6.5 12h426q108 0 175 10t101 35q-17 33 -60 51t-121 18q-201 0 -279 4t-110 22t-32 62q0 77 52.5 147.5t136 113.5t168.5 44l18 -149
q-92 -1 -155.5 -26t-92.5 -62q23 -4 87.5 -5t136.5 -1q123 0 202.5 -22zM739 269l-2 -7q2 4 2 7z" />
    <glyph glyph-name="uni06AA.medi" unicode="&#x6aa;" horiz-adv-x="941" 
d="M947 154.5q3 -12.5 3 -27.5v-87q0 -16 -3 -28t-6 -12h-24q-73 0 -110 26t-48 64q-50 -41 -140 -65.5t-213 -24.5h-406q-4 0 -6.5 11.5t-2.5 28.5v87q0 16 2.5 28t6.5 12h426q108 0 175 10t101 35q-17 33 -60 51t-121 18q-201 0 -279 4t-110 22t-32 62q0 77 52.5 147.5
t136 113.5t168.5 44l18 -149q-92 -1 -155.5 -26t-92.5 -62q23 -4 87.5 -5t136.5 -1q119 0 197.5 -20.5t121.5 -70.5t46 -136q10 -18 29.5 -27.5t54.5 -9.5h41q3 0 6 -12.5zM739 269l-2 -7q2 4 2 7z" />
    <glyph glyph-name="uni06AA.fina" unicode="&#x6aa;" horiz-adv-x="1084" 
d="M1090.5 155q2.5 -12 2.5 -28v-87q0 -17 -2.5 -28.5t-6.5 -11.5h-24q-130 0 -157 90q-51 -43 -140.5 -69t-213.5 -26q-164 0 -386 14l-96 167q156 -10 248 -12t254 -2q107 0 174.5 11.5t101.5 37.5q-33 70 -181 70q-201 0 -279 4t-110 22t-32 62q0 77 52.5 147.5
t136 113.5t168.5 44l18 -149q-92 -1 -155.5 -26t-92.5 -62q23 -4 87.5 -5t136.5 -1q119 0 197 -20.5t121 -70.5t47 -136q20 -37 85 -37h40q4 0 6.5 -12zM882 269l-2 -7q2 4 2 7z" />
    <glyph glyph-name="uni06B5.init" unicode="&#x6b5;" horiz-adv-x="357" 
d="M272 104q-15 -34 -48 -56q-71 -48 -224 -48q-4 0 -6.5 11.5t-2.5 28.5v87q0 16 2.5 28t6.5 12q61 0 102.5 5t71.5 20l-30 549l132 22l10 -588q1 -37 -14 -71zM116.5 957q-26.5 55 -65.5 116l80 40q26 -44 43 -80t29 -77q13 41 32 77t49 80l71 -53q-69 -101 -111 -219
l-77 -9q-24 70 -50.5 125z" />
    <glyph glyph-name="uni06B5.medi" unicode="&#x6b5;" horiz-adv-x="460" 
d="M467 155q3 -12 3 -28v-87q0 -16 -3 -28t-7 -12q-94 0 -143.5 18.5t-63.5 62.5q-33 -47 -93 -64t-160 -17q-4 0 -6.5 11.5t-2.5 28.5v87q0 16 2.5 28t6.5 12q138 0 193 20l-23 554l132 22l3 -519q0 -34 22.5 -55.5t63.5 -21.5h69q4 0 7 -12zM141.5 957q-26.5 55 -65.5 116
l80 40q26 -44 43 -80t29 -77q13 41 32 77t49 80l71 -53q-69 -101 -111 -219l-77 -9q-24 70 -50.5 125z" />
    <glyph glyph-name="uni06B5.fina" unicode="&#x6b5;" horiz-adv-x="792" 
d="M798 154.5q3 -12.5 3 -27.5v-87q0 -16 -3 -28t-6 -12h-26q-74 0 -117 53l2 -119q1 -59 -52.5 -97t-129.5 -55t-140 -17q-140 0 -201 53t-61 158q0 37 23 170l25 161l102 -22q-39 -234 -39 -284q0 -39 45 -54t106 -15q68 0 119 8t89 27l-33 774l132 22l10 -535
q6 -29 19.5 -42t30 -16t42.5 -3h54q3 0 6 -12.5zM134.5 525q-26.5 55 -65.5 116l80 40q26 -44 43 -80t29 -77q13 41 32 77t49 80l71 -53q-69 -101 -111 -219l-77 -9q-24 70 -50.5 125z" />
    <glyph glyph-name="uni06C2.fina" unicode="&#x6c2;" horiz-adv-x="550" 
d="M556 154.5q3 -12.5 3 -27.5v-87q0 -16 -3 -28t-6 -12h-61q-83 0 -125.5 46.5t-43.5 128.5l-3 42q-50 -22 -86.5 -74t-40.5 -130l-123 44q1 141 88 228.5t256 110.5l14 -149q3 -36 7.5 -51.5t17 -22t39.5 -6.5h61q3 0 6 -12.5zM78 533l96 26q-16 36 -21.5 61.5t-5.5 54.5
q0 44 37.5 68.5t91.5 24.5q39 0 70 -9l-17 -89q-32 8 -48 9q-8 1 -23 1q-23 0 -35 -5q0 -19 7.5 -37.5t28.5 -56.5l145 44l18 -89l-331 -92z" />
    <glyph glyph-name="uni06C3.fina" unicode="&#x6c3;" horiz-adv-x="550" 
d="M556 154.5q3 -12.5 3 -27.5v-87q0 -16 -3 -28t-6 -12h-61q-83 0 -125.5 46.5t-43.5 128.5l-3 42q-50 -22 -86.5 -74t-40.5 -130l-123 44q1 141 88 228.5t256 110.5l14 -149q3 -36 7.5 -51.5t17 -22t39.5 -6.5h61q3 0 6 -12.5zM157 628l100 -81l-81 -100l-100 81zM324 628
l100 -81l-81 -100l-100 81z" />
    <glyph glyph-name="uni06CE.init" unicode="&#x6ce;" horiz-adv-x="353" 
d="M286 175q0 -38 -15 -71.5t-47 -55.5q-71 -48 -224 -48q-4 0 -6.5 11.5t-2.5 28.5v87q0 16 2.5 28t6.5 12q60 0 101 5t71 19l-24 214l128 22q10 -154 10 -252zM7 -94l100 -81l-81 -100l-100 81zM174 -94l100 -81l-81 -100l-100 81zM108.5 647q-26.5 55 -65.5 116l80 40
q26 -44 43 -80t29 -77q13 41 32 77t49 80l71 -53q-69 -101 -111 -219l-77 -9q-24 70 -50.5 125z" />
    <glyph glyph-name="uni06CE.medi" unicode="&#x6ce;" horiz-adv-x="383" 
d="M389.5 155q2.5 -12 2.5 -28v-87q0 -17 -2.5 -28.5t-6.5 -11.5q-87 0 -128 17.5t-54 58.5q-20 -42 -65 -59t-136 -17q-4 0 -6.5 11.5t-2.5 28.5v87q0 16 2.5 28t6.5 12q98 0 144 24l-22 179l127 14l9 -199q44 -18 125 -18q4 0 6.5 -12zM76 -94l100 -81l-81 -100l-100 81z
M243 -94l100 -81l-81 -100l-100 81zM91.5 603q-26.5 55 -65.5 116l80 40q26 -44 43 -80t29 -77q13 41 32 77t49 80l71 -53q-69 -101 -111 -219l-77 -9q-24 70 -50.5 125z" />
    <glyph glyph-name="uni06CE.fina" unicode="&#x6ce;" horiz-adv-x="732" 
d="M739 155q3 -12 3 -28v-87q0 -16 -3 -28t-7 -12h-40q1 -5 1 -17q0 -82 -49.5 -137.5t-132 -82.5t-182.5 -27q-140 0 -201 53t-61 159q0 36 23 171l25 159l102 -22q-39 -234 -39 -283q0 -39 45.5 -54.5t105.5 -15.5q94 0 156 12.5t100 41.5q2 27 -23 35t-86 8h-51l28 167
h279q4 0 7 -12zM134.5 497q-26.5 55 -65.5 116l80 40q26 -44 43 -80t29 -77q13 41 32 77t49 80l71 -53q-69 -101 -111 -219l-77 -9q-24 70 -50.5 125z" />
    <glyph glyph-name="uni06D5.fina" unicode="&#x6d5;" horiz-adv-x="539" 
d="M545.5 155q2.5 -12 2.5 -28v-87q0 -17 -2.5 -28.5t-6.5 -11.5h-52q-50 0 -86 24.5t-50 64.5l-5 -12q-12 -28 -45.5 -37t-97.5 -9t-100 30.5t-36 90.5q0 73 19.5 120.5t65 84t129.5 73.5l-10 73l120 35l28 -272q4 -37 10 -57t22 -31t49 -11h39q4 0 6.5 -12zM318 200
l-16 111q-119 -45 -133 -122q23 -8 51 -8q41 0 98 19z" />
    <glyph glyph-name="uniFB51" unicode="&#x671;" horiz-adv-x="320" arabic-form="final" 
d="M326.5 155q2.5 -12 2.5 -28v-87q0 -17 -2.5 -28.5t-6.5 -11.5h-31q-73 0 -117.5 22t-67.5 75.5t-28 150.5l-19 353l132 22l2 -373q0 -38 20.5 -60.5t60.5 -22.5h48q4 0 6.5 -12zM56 665.5q-32 14.5 -32 48.5v36q-12 -9 -29.5 -31.5t-29.5 -48.5l-63 36q6 24 31 59
t62.5 60.5t78.5 22.5v-69q0 -9 5.5 -13t11.5 -4q40 51 78.5 86t79.5 35q52 0 76 -28.5t24 -90.5q0 -39 -14 -56q-24 -26 -73.5 -41.5t-106.5 -15.5q-67 0 -99 14.5zM282 757q-1 22 -9 32t-26 10q-19 0 -43 -15.5t-51 -43.5q71 1 129 17z" />
    <glyph glyph-name="uniFB57" unicode="&#x67e;" horiz-adv-x="918" arabic-form="final" 
d="M924 154.5q3 -12.5 3 -27.5v-87q0 -16 -3 -28t-6 -12q-80 0 -129.5 18.5t-62.5 52.5q-23 -32 -74 -47q-43 -13 -104 -21t-130 -8q-112 0 -188 17t-119.5 63.5t-43.5 129.5q0 21 8 72t25 150l102 -22q-24 -136 -24 -170q0 -31 21.5 -46.5t69.5 -21t141 -5.5q175 0 280 26
l-17 159l123 14l9 -181q36 -13 113 -13q3 0 6 -12.5zM330 -98l96 -77l-77 -96l-96 77zM489 -98l96 -77l-77 -96l-96 77zM414 -267l96 -77l-78 -96l-95 77z" />
    <glyph glyph-name="uniFB58" unicode="&#x67e;" horiz-adv-x="353" arabic-form="initial" 
d="M286 175q0 -38 -15 -71.5t-47 -55.5q-71 -48 -224 -48q-4 0 -6.5 11.5t-2.5 28.5v87q0 16 2.5 28t6.5 12q60 0 101 5t71 19l-24 214l128 22q10 -154 10 -252zM11 -94l96 -77l-77 -96l-96 77zM170 -94l96 -77l-77 -96l-96 77zM95 -263l96 -77l-78 -96l-95 77z" />
    <glyph glyph-name="uniFB59" unicode="&#x67e;" horiz-adv-x="383" arabic-form="medial" 
d="M389.5 155q2.5 -12 2.5 -28v-87q0 -17 -2.5 -28.5t-6.5 -11.5q-87 0 -128 17.5t-54 58.5q-20 -42 -65 -59t-136 -17q-4 0 -6.5 11.5t-2.5 28.5v87q0 16 2.5 28t6.5 12q98 0 144 24l-22 179l127 14l9 -199q44 -18 125 -18q4 0 6.5 -12zM79 -94l96 -77l-77 -96l-96 77z
M238 -94l96 -77l-77 -96l-96 77zM163 -263l96 -77l-78 -96l-95 77z" />
    <glyph glyph-name="uniFB67" unicode="&#x679;" horiz-adv-x="918" arabic-form="final" 
d="M924 154.5q3 -12.5 3 -27.5v-87q0 -16 -3 -28t-6 -12q-80 0 -129.5 18.5t-62.5 52.5q-23 -32 -74 -47q-43 -13 -104 -21t-130 -8q-112 0 -188 17t-119.5 63.5t-43.5 129.5q0 21 8 72t25 150l102 -22q-24 -136 -24 -170q0 -31 21.5 -46.5t69.5 -21t141 -5.5q175 0 280 26
l-17 159l123 14l9 -181q36 -13 113 -13q3 0 6 -12.5zM592 614.5q29 -33.5 29 -96.5q0 -52 -49.5 -80.5t-137.5 -28.5h-139l-18 89l53 1l7 10q5 6 6.5 19.5t1.5 45.5q0 68 -5 175l80 17v-162q46 44 88 44q55 0 84 -33.5zM550 517q-3 42 -47 42q-36 0 -83 -57h40q53 0 90 15z
" />
    <glyph glyph-name="uniFB68" unicode="&#x679;" horiz-adv-x="353" arabic-form="initial" 
d="M286 175q0 -38 -15 -71.5t-47 -55.5q-71 -48 -224 -48q-4 0 -6.5 11.5t-2.5 28.5v87q0 16 2.5 28t6.5 12q60 0 101 5t71 19l-24 214l128 22q10 -154 10 -252zM339 725.5q29 -33.5 29 -96.5q0 -52 -49.5 -80.5t-137.5 -28.5h-139l-18 89l53 1l7 10q5 6 6.5 19.5t1.5 45.5
q0 68 -5 175l80 17v-162q46 44 88 44q55 0 84 -33.5zM297 628q-3 42 -47 42q-36 0 -83 -57h40q53 0 90 15z" />
    <glyph glyph-name="uniFB69" unicode="&#x679;" horiz-adv-x="383" arabic-form="medial" 
d="M389.5 155q2.5 -12 2.5 -28v-87q0 -17 -2.5 -28.5t-6.5 -11.5q-87 0 -128 17.5t-54 58.5q-20 -42 -65 -59t-136 -17q-4 0 -6.5 11.5t-2.5 28.5v87q0 16 2.5 28t6.5 12q98 0 144 24l-22 179l127 14l9 -199q44 -18 125 -18q4 0 6.5 -12zM321 682.5q29 -33.5 29 -96.5
q0 -52 -49.5 -80.5t-137.5 -28.5h-139l-18 89l53 1l7 10q5 6 6.5 19.5t1.5 45.5q0 68 -5 175l80 17v-162q46 44 88 44q55 0 84 -33.5zM279 585q-3 42 -47 42q-36 0 -83 -57h40q53 0 90 15z" />
    <glyph glyph-name="uniFB6B" unicode="&#x6a4;" horiz-adv-x="976" arabic-form="final" 
d="M982.5 155q2.5 -12 2.5 -28v-87q0 -17 -2.5 -28.5t-6.5 -11.5h-84q-51 0 -91 12t-75 49q-22 -23 -48 -33q-48 -16 -110 -24.5t-150 -8.5q-112 0 -188 17t-119.5 63.5t-43.5 129.5q0 21 8 72t25 150l102 -22q-24 -136 -24 -170q0 -30 20 -45.5t68.5 -21.5t143.5 -6
q114 0 171 3q-15 12 -24 31.5t-9 43.5q0 35 30.5 92t76.5 99t89 42q45 0 84.5 -32.5t63 -85.5t23.5 -112q0 -30 -7 -48t-30 -31q22 3 56 3h42q4 0 6.5 -12zM805 229q0 38 -20 70.5t-46 32.5q-17 0 -37.5 -13.5t-34.5 -33.5t-14 -40q0 -18 22.5 -37t59.5 -32zM722 909l95 -77
l-77 -96l-96 77zM646 740l96 -77l-77 -96l-96 77zM805 740l96 -77l-77 -96l-96 77z" />
    <glyph glyph-name="uniFB6C" unicode="&#x6a4;" horiz-adv-x="488" arabic-form="initial" 
d="M415 180q-7 -58 -25.5 -93t-53.5 -54q-28 -16 -63 -22.5t-92.5 -8.5t-180.5 -2q-4 0 -6.5 11.5t-2.5 28.5v87q0 16 2.5 28t6.5 12q163 0 223 1.5t82 7.5l4 52q-45 -8 -103 -8q-43 0 -65 3.5t-37.5 14t-31.5 33.5q-17 23 -22.5 38.5t-5.5 41.5q0 73 20.5 135.5t63.5 100.5
t107 38q58 0 100 -39t64 -105.5t22 -146.5q1 -96 -6 -154zM231 357q49 0 79 6q0 62 -23 93.5t-61 31.5q-33 0 -54 -32t-21 -92q47 -7 80 -7zM205 1062l95 -77l-77 -96l-96 77zM129 893l96 -77l-77 -96l-96 77zM288 893l96 -77l-77 -96l-96 77z" />
    <glyph glyph-name="uniFB6D" unicode="&#x6a4;" horiz-adv-x="487" arabic-form="medial" 
d="M494 155q3 -12 3 -28v-87q0 -16 -3 -28t-7 -12h-83q-52 0 -92 12.5t-76 49.5q-34 -35 -76 -48.5t-99 -13.5h-61q-4 0 -6.5 11.5t-2.5 28.5v87q0 16 2.5 28t6.5 12h39h25q6 0 12.5 0.5t13.5 -0.5q-14 12 -22.5 31.5t-8.5 41.5q0 35 31 92t76.5 99t88.5 42q45 0 85 -32.5
t63.5 -85.5t23.5 -112q0 -30 -7 -48t-30 -31q21 3 55 3h42q4 0 7 -12zM317 229q0 38 -20 70.5t-47 32.5q-17 0 -37 -13.5t-34 -33.5t-14 -40q0 -18 22 -37.5t59 -31.5zM234 909l95 -77l-77 -96l-96 77zM158 740l96 -77l-77 -96l-96 77zM317 740l96 -77l-77 -96l-96 77z" />
    <glyph glyph-name="uniFB7B" unicode="&#x686;" horiz-adv-x="768" arabic-form="final" 
d="M774.5 155q2.5 -12 2.5 -28v-87q0 -17 -2.5 -28.5t-6.5 -11.5h-84q-78 0 -122 18t-68 54.5t-48 106.5q-88 -42 -157 -93.5t-96 -102.5q-11 -34 -11 -69q0 -84 54 -123.5t167 -39.5q130 0 248 39l-26 -167q-95 -39 -222 -39q-157 0 -246.5 83.5t-89.5 236.5
q0 83 44.5 162.5t130 145.5t203.5 108q-27 7 -96 31q-47 17 -75 25t-53 8q-27 0 -39 -15.5t-17 -48.5l-97 18q13 88 47 139.5t98 51.5q43 0 87.5 -14t115.5 -44q85 -35 144 -53t123 -18l-31 -157q-50 -6 -108 -26q15 -29 36.5 -39.5t65.5 -10.5h122q4 0 6.5 -12zM320 35
l68 -55l-55 -67l-67 54zM433 35l67 -55l-54 -67l-68 54zM447 -139l-55 -67l-67 54l54 67z" />
    <glyph glyph-name="uniFB7C" unicode="&#x686;" horiz-adv-x="740" arabic-form="initial" 
d="M294.5 474.5q42.5 -13.5 111.5 -41.5q86 -35 149.5 -54t132.5 -19l-30 -158q-68 -7 -126.5 -32t-131.5 -66q-36 -20 -52 -28q-143 -76 -318 -76h-30q-4 0 -6.5 11.5t-2.5 28.5v87q0 16 2.5 28t6.5 12h32q117 0 253 40q35 10 89 33q56 26 91 33q-50 9 -122 38
q-45 16 -72.5 24t-49.5 8q-28 0 -39.5 -15.5t-16.5 -47.5l-98 17q29 191 146 191q39 0 81.5 -13.5zM253 -94l96 -77l-77 -96l-96 77zM412 -94l96 -77l-77 -96l-96 77zM337 -263l96 -77l-78 -96l-95 77z" />
    <glyph glyph-name="uniFB7D" unicode="&#x686;" horiz-adv-x="758" arabic-form="medial" 
d="M764.5 155q2.5 -12 2.5 -28v-87q0 -17 -2.5 -28.5t-6.5 -11.5h-168q-68 0 -131 19t-82 73l-29 -16q-143 -76 -318 -76h-30q-4 0 -6.5 11.5t-2.5 28.5v87q0 16 2.5 28t6.5 12h32q146 0 253 40q29 10 74 33q32 16 53.5 25.5t44.5 14.5q-48 8 -123 35q-40 14 -66 21t-47 7
q-28 0 -39.5 -15.5t-16.5 -47.5l-98 17q29 191 146 191q38 0 78 -12t115 -39q86 -33 149.5 -51t132.5 -18l-30 -140q-81 -15 -177 -72l38 3q12 1 67 4.5t110 3.5h62q4 0 6.5 -12zM253 -94l96 -77l-77 -96l-96 77zM412 -94l96 -77l-77 -96l-96 77zM337 -263l96 -77l-78 -96
l-95 77z" />
    <glyph glyph-name="uniFB89" unicode="&#x688;" horiz-adv-x="607" arabic-form="final" 
d="M613.5 155q2.5 -12 2.5 -28v-87q0 -17 -2.5 -28.5t-6.5 -11.5h-25q-108 0 -132 83q-9 -27 -18.5 -39.5t-25.5 -19.5q-31 -15 -81.5 -27t-96.5 -12q-89 0 -130 35t-41 123q0 19 4 87l102 -8v-26q0 -21 6.5 -30t23.5 -11.5t56 -2.5q82 0 144 24l-81 301l124 67l59 -298
q8 -40 17.5 -55.5t28 -19.5t66.5 -4q4 0 6.5 -12zM472 840.5q29 -33.5 29 -96.5q0 -52 -49.5 -80.5t-137.5 -28.5h-139l-18 89l53 1l7 10q5 6 6.5 19.5t1.5 45.5q0 68 -5 175l80 17v-162q46 44 88 44q55 0 84 -33.5zM430 743q-3 42 -47 42q-36 0 -83 -57h40q53 0 90 15z" />
    <glyph glyph-name="uniFB8B" unicode="&#x698;" horiz-adv-x="412" arabic-form="final" 
d="M418.5 155q2.5 -12 2.5 -28v-87q0 -17 -2.5 -28.5t-6.5 -11.5h-33q-29 0 -55 11.5t-44 33.5q-5 -109 -76.5 -195t-234.5 -163l-88 127q135 60 197 110.5t89 106.5l-42 305l132 27l15 -133q4 -36 29 -49.5t78 -13.5h33q4 0 6.5 -12zM163 807l95 -77l-77 -96l-96 77z
M87 638l96 -77l-77 -96l-96 77zM246 638l96 -77l-77 -96l-96 77z" />
    <glyph glyph-name="uniFB8D" unicode="&#x691;" horiz-adv-x="412" arabic-form="final" 
d="M418.5 155q2.5 -12 2.5 -28v-87q0 -17 -2.5 -28.5t-6.5 -11.5h-33q-29 0 -55 11.5t-44 33.5q-5 -109 -76.5 -195t-234.5 -163l-88 127q135 60 197 110.5t89 106.5l-42 305l132 27l15 -133q4 -36 29 -49.5t78 -13.5h33q4 0 6.5 -12zM319 670.5q29 -33.5 29 -96.5
q0 -52 -49.5 -80.5t-137.5 -28.5h-139l-18 89l53 1l7 10q5 6 6.5 19.5t1.5 45.5q0 68 -5 175l80 17v-162q46 44 88 44q55 0 84 -33.5zM277 573q-3 42 -47 42q-36 0 -83 -57h40q53 0 90 15z" />
    <glyph glyph-name="uniFB8F" unicode="&#x6a9;" horiz-adv-x="940" arabic-form="final" 
d="M946 154.5q3 -12.5 3 -27.5v-87q0 -16 -3 -28t-6 -12h-27q-106 0 -141 63q-43 -36 -130 -52t-224 -16q-112 0 -188 17t-119.5 63.5t-43.5 129.5q0 21 8 72t25 150l102 -22q-24 -136 -24 -170q0 -30 20 -45.5t68.5 -21.5t143.5 -6q185 0 290 23q-9 77 -75 160t-174 149
l5 134q88 41 176.5 73t192.5 62l18 -137q-123 -31 -236 -76q8 -5 25 -20q81 -72 126 -153.5t55 -164.5q8 -22 27.5 -33.5t56.5 -11.5h43q3 0 6 -12.5z" />
    <glyph glyph-name="uniFB90" unicode="&#x6a9;" horiz-adv-x="448" arabic-form="initial" 
d="M334.5 352q44.5 -95 44.5 -190q0 -61 -40.5 -96.5t-122.5 -50.5t-216 -15q-4 0 -6.5 11.5t-2.5 28.5v87q0 16 2.5 28t6.5 12q175 0 264 18q-10 77 -75.5 160t-173.5 149l5 134q88 41 176.5 73t192.5 62l18 -137q-123 -31 -237 -76q22 -17 26 -20q94 -83 138.5 -178z" />
    <glyph glyph-name="uniFB91" unicode="&#x6a9;" horiz-adv-x="503" arabic-form="medial" 
d="M510 155q3 -12 3 -28v-87q0 -16 -3 -28t-7 -12h-26q-57 0 -91.5 17.5t-50.5 45.5q-40 -34 -121.5 -48.5t-213.5 -14.5q-4 0 -6.5 11.5t-2.5 28.5v87q0 16 2.5 28t6.5 12q175 0 264 18q-10 77 -75.5 160t-173.5 149l5 134q88 41 176.5 73t192.5 62l18 -137
q-123 -31 -237 -76q22 -17 26 -20q81 -71 125 -152t55 -164q8 -23 27.5 -35t56.5 -12h43q4 0 7 -12z" />
    <glyph glyph-name="uniFB93" unicode="&#x6af;" horiz-adv-x="940" arabic-form="final" 
d="M667 768q-126 -46 -207 -82l5 99q73 35 193 82zM946 154.5q3 -12.5 3 -27.5v-87q0 -16 -3 -28t-6 -12h-27q-106 0 -141 63q-43 -36 -130 -52t-224 -16q-112 0 -188 17t-119.5 63.5t-43.5 129.5q0 21 8 72t25 150l102 -22q-24 -136 -24 -170q0 -30 20 -45.5t68.5 -21.5
t143.5 -6q185 0 290 23q-9 77 -75 160t-174 149l5 134q88 41 176.5 73t192.5 62l18 -137q-123 -31 -236 -76q8 -5 25 -20q81 -72 126 -153.5t55 -164.5q8 -22 27.5 -33.5t56.5 -11.5h43q3 0 6 -12.5z" />
    <glyph glyph-name="uniFB94" unicode="&#x6af;" horiz-adv-x="448" arabic-form="initial" 
d="M227 768q-127 -46 -207 -82l5 99q73 35 193 82zM334.5 352q44.5 -95 44.5 -190q0 -61 -40.5 -96.5t-122.5 -50.5t-216 -15q-4 0 -6.5 11.5t-2.5 28.5v87q0 16 2.5 28t6.5 12q175 0 264 18q-10 77 -75.5 160t-173.5 149l5 134q88 41 176.5 73t192.5 62l18 -137
q-123 -31 -237 -76q22 -17 26 -20q94 -83 138.5 -178z" />
    <glyph glyph-name="uniFB95" unicode="&#x6af;" horiz-adv-x="504" arabic-form="medial" 
d="M227 768q-127 -46 -207 -82l5 99q73 35 193 82zM510 155q3 -12 3 -28v-87q0 -16 -3 -28t-7 -12h-26q-57 0 -91.5 17.5t-50.5 45.5q-40 -34 -121.5 -48.5t-213.5 -14.5q-4 0 -6.5 11.5t-2.5 28.5v87q0 16 2.5 28t6.5 12q175 0 264 18q-10 77 -75.5 160t-173.5 149l5 134
q88 41 176.5 73t192.5 62l18 -137q-123 -31 -237 -76q22 -17 26 -20q81 -71 125 -152t55 -164q8 -23 27.5 -35t56.5 -12h43q4 0 7 -12z" />
    <glyph glyph-name="uniFB9F" unicode="&#x6ba;" horiz-adv-x="794" arabic-form="final" 
d="M801 155q3 -12 3 -28v-87q0 -16 -3 -28t-7 -12h-13q-42 0 -76.5 17.5t-56.5 57.5q5 -90 5 -141q0 -59 -54 -97t-129.5 -55t-140.5 -17q-140 0 -201 53t-61 158q0 37 23 170l25 161l102 -22q-39 -234 -39 -284q0 -39 45 -54t106 -15q68 0 120 8t90 27l-43 373l128 26
l15 -123q4 -37 18 -53t39.5 -19.5t84.5 -3.5h13q4 0 7 -12z" />
    <glyph glyph-name="uniFBA5" unicode="&#x6c0;" horiz-adv-x="539" arabic-form="final" 
d="M545.5 155q2.5 -12 2.5 -28v-87q0 -17 -2.5 -28.5t-6.5 -11.5h-52q-50 0 -86 24.5t-50 64.5l-5 -12q-12 -28 -45.5 -37t-97.5 -9t-100 30.5t-36 90.5q0 73 19.5 120.5t65 84t129.5 73.5l-10 73l120 35l28 -272q4 -37 10 -57t22 -31t49 -11h39q4 0 6.5 -12zM318 200
l-16 111q-119 -45 -133 -122q23 -8 51 -8q41 0 98 19zM359 764q0 7 -10.5 10.5t-31.5 6.5q-38 5 -60 16t-22 39q0 35 16.5 79t44 74.5t58.5 30.5q25 0 44.5 -14.5t42.5 -51.5l-41 -40q-25 25 -46 25q-20 0 -34 -21t-22 -51q46 -5 70.5 -12t39 -25.5t14.5 -56.5
q0 -62 -56 -99t-156 -37l9 94q101 0 140 33z" />
    <glyph glyph-name="uniFBA7" unicode="&#x6c1;" horiz-adv-x="550" arabic-form="final" 
d="M556 154.5q3 -12.5 3 -27.5v-87q0 -16 -3 -28t-6 -12h-61q-83 0 -125.5 46.5t-43.5 128.5l-3 42q-50 -22 -86.5 -74t-40.5 -130l-123 44q1 141 88 228.5t256 110.5l14 -149q3 -36 7.5 -51.5t17 -22t39.5 -6.5h61q3 0 6 -12.5z" />
    <glyph glyph-name="uniFBA8" unicode="&#x6c1;" horiz-adv-x="353" arabic-form="initial" 
d="M286 175q0 -38 -15 -71.5t-47 -55.5q-71 -48 -224 -48q-4 0 -6.5 11.5t-2.5 28.5v87q0 16 2.5 28t6.5 12q60 0 101 5t71 19l-24 214l128 22q10 -154 10 -252zM188.5 -205q25.5 -25 25.5 -61q0 -35 -25.5 -60t-60.5 -25q-44 0 -67.5 28t-23.5 75q0 51 24.5 110t63.5 107
l58 -60q-44 -51 -58 -89h3q35 0 60.5 -25z" />
    <glyph glyph-name="uniFBA9" unicode="&#x6c1;" horiz-adv-x="521" arabic-form="medial" 
d="M528 155q3 -12 3 -28v-87q0 -16 -3 -28t-7 -12q-60 0 -90 -3t-42 -11.5t-12 -25.5t10 -23t34 -6v-161q-143 0 -214.5 66t-73.5 194q-25 -16 -61.5 -23t-71.5 -7q-4 0 -6.5 11.5t-2.5 28.5v87q0 16 2.5 28t6.5 12q59 1 84.5 12.5t34.5 40.5t14 98l120 14
q-19 -140 -19 -233q0 -83 38 -121q1 85 54 137t140 52h55q4 0 7 -12z" />
    <glyph glyph-name="uniFBAB" unicode="&#x6be;" horiz-adv-x="630" arabic-form="final" 
d="M636.5 155q2.5 -12 2.5 -28v-87q0 -17 -2.5 -28.5t-6.5 -11.5q-86 0 -116 5q10 -10 15.5 -28.5t5.5 -37.5v-65q0 -37 -36 -68q-23 -20 -40 -28t-37 -8q-112 0 -169.5 58.5t-86.5 171.5h-99l46 167h79q16 71 48.5 132.5t76 98.5t90.5 37h81l6 -268h136q4 0 6.5 -12z
M323.5 249.5q-27.5 -52.5 -37.5 -107.5h49q40 0 57 -6l-6 183q-35 -17 -62.5 -69.5zM429 -61q0 43 -21.5 62.5t-73.5 19.5h-57q10 -64 47.5 -92.5t104.5 -26.5v37z" />
    <glyph glyph-name="uniFBAC" unicode="&#x6be;" horiz-adv-x="655" arabic-form="initial" 
d="M559 322q34 -51 34 -120q0 -80 -29 -138q-7 -13 -18.5 -25t-31.5 -26q-18 -11 -29 -16t-21 -5q-7 0 -15 3l-142 55q-22 -26 -97 -38t-210 -12q-4 0 -6.5 11.5t-2.5 28.5v87q0 16 2.5 28t6.5 12h52l85 1q-24 13 -39.5 36t-15.5 49q0 63 64 140l-43 21l57 123l298 -133
q67 -31 101 -82zM324 312l-85 37q-51 -51 -51 -86q0 -22 27.5 -37t67.5 -17zM485.5 158q4.5 15 4.5 26q0 28 -19.5 52.5t-61.5 39.5l-45 -102l109 -43q8 12 12.5 27z" />
    <glyph glyph-name="uniFBAD" unicode="&#x6be;" horiz-adv-x="694" arabic-form="medial" 
d="M700 154.5q3 -12.5 3 -27.5v-87q0 -16 -3 -28t-6 -12q-54 0 -88.5 9.5t-57.5 32.5q-10 -12 -34 -29q-18 -11 -29 -16t-21 -5q-7 0 -15 3l-142 55q-22 -26 -97 -38t-210 -12q-4 0 -6.5 11.5t-2.5 28.5v87q0 16 2.5 28t6.5 12h52l85 1q-24 13 -39.5 36t-15.5 49
q0 63 64 140l-43 21l57 123l298 -133q67 -31 101 -82t34 -120v-12q10 -12 32 -17.5t69 -5.5q3 0 6 -12.5zM324 312l-85 37q-51 -51 -51 -86q0 -22 27.5 -37t67.5 -17zM485.5 158q4.5 15 4.5 26q0 28 -19.5 52.5t-61.5 39.5l-45 -102l109 -43q8 12 12.5 27z" />
    <glyph glyph-name="uniFBAF" unicode="&#x6d2;" horiz-adv-x="600" arabic-form="final" 
d="M581 -138l110 6l-62 -167q-163 -14 -262 -14q-148 0 -224 42.5t-76 126.5q0 80 49 151.5t147.5 115.5t237.5 44h99q4 0 7 -12t3 -28v-87q0 -16 -3 -28t-7 -12h-99q-118 0 -183.5 -9t-96.5 -30t-40 -59q35 -32 80.5 -40t130.5 -8q53 0 189 8z" />
    <glyph glyph-name="uniFBB1" unicode="&#x6d3;" horiz-adv-x="600" arabic-form="final" 
d="M581 -138l110 6l-62 -167q-163 -14 -262 -14q-148 0 -224 42.5t-76 126.5q0 80 49 151.5t147.5 115.5t237.5 44h99q4 0 7 -12t3 -28v-87q0 -16 -3 -28t-7 -12h-99q-118 0 -183.5 -9t-96.5 -30t-40 -59q35 -32 80.5 -40t130.5 -8q53 0 189 8zM228 326l96 26
q-16 36 -21.5 61.5t-5.5 54.5q0 44 37.5 68.5t91.5 24.5q39 0 70 -9l-17 -89q-32 8 -48 9q-8 1 -23 1q-23 0 -35 -5q0 -19 7.5 -37.5t28.5 -56.5l145 44l18 -89l-331 -92z" />
    <glyph glyph-name="uniFBD8" unicode="&#x6c7;" horiz-adv-x="502" arabic-form="final" 
d="M508 154.5q3 -12.5 3 -27.5v-87q0 -16 -3 -28t-6 -12h-83q-25 -99 -98.5 -179.5t-204.5 -133.5l-87 127q91 32 162.5 84.5t107.5 106.5q-40 -5 -80 -5q-44 0 -66 3.5t-37 14t-32 33.5q-17 24 -22.5 39t-5.5 41q0 73 21 135.5t64 100.5t107 38q76 0 124 -66.5t58 -171.5
h72q3 0 6 -12.5zM244 137q49 0 79 6q0 62 -23 93.5t-61 31.5q-34 0 -55 -32.5t-21 -91.5q47 -7 81 -7zM76 585l129 35q-9 -1 -13 8.5t-4 21.5q0 21 11.5 56t38 63.5t68.5 28.5q50 0 82 -42t32 -103q0 -30 -10 -47t-27 -25t-49 -17l-245 -68zM345 651q0 30 -12 48t-31 18
q-12 0 -24 -18t-15 -48q15 -6 38 -6q26 0 44 6z" />
    <glyph glyph-name="uniFBDA" unicode="&#x6c6;" horiz-adv-x="502" arabic-form="final" 
d="M508 154.5q3 -12.5 3 -27.5v-87q0 -16 -3 -28t-6 -12h-83q-25 -99 -98.5 -179.5t-204.5 -133.5l-87 127q91 32 162.5 84.5t107.5 106.5q-40 -5 -80 -5q-44 0 -66 3.5t-37 14t-32 33.5q-17 24 -22.5 39t-5.5 41q0 73 21 135.5t64 100.5t107 38q76 0 124 -66.5t58 -171.5
h72q3 0 6 -12.5zM244 137q49 0 79 6q0 62 -23 93.5t-61 31.5q-34 0 -55 -32.5t-21 -91.5q47 -7 81 -7zM161.5 625q-26.5 55 -65.5 116l80 40q26 -44 43 -80t29 -77q13 41 32 77t49 80l71 -53q-69 -101 -111 -219l-77 -9q-24 70 -50.5 125z" />
    <glyph glyph-name="uniFBFD" unicode="&#x6cc;" horiz-adv-x="732" arabic-form="final" 
d="M739 155q3 -12 3 -28v-87q0 -16 -3 -28t-7 -12h-40q1 -5 1 -17q0 -82 -49.5 -137.5t-132 -82.5t-182.5 -27q-140 0 -201 53t-61 159q0 36 23 171l25 159l102 -22q-39 -234 -39 -283q0 -39 45.5 -54.5t105.5 -15.5q94 0 156 12.5t100 41.5q2 27 -23 35t-86 8h-51l28 167
h279q4 0 7 -12z" />
    <glyph glyph-name="uniFBFE" unicode="&#x6cc;" horiz-adv-x="353" arabic-form="initial" 
d="M286 175q0 -38 -15 -71.5t-47 -55.5q-71 -48 -224 -48q-4 0 -6.5 11.5t-2.5 28.5v87q0 16 2.5 28t6.5 12q60 0 101 5t71 19l-24 214l128 22q10 -154 10 -252zM7 -94l100 -81l-81 -100l-100 81zM174 -94l100 -81l-81 -100l-100 81z" />
    <glyph glyph-name="uniFBFF" unicode="&#x6cc;" horiz-adv-x="383" arabic-form="medial" 
d="M389.5 155q2.5 -12 2.5 -28v-87q0 -17 -2.5 -28.5t-6.5 -11.5q-87 0 -128 17.5t-54 58.5q-20 -42 -65 -59t-136 -17q-4 0 -6.5 11.5t-2.5 28.5v87q0 16 2.5 28t6.5 12q98 0 144 24l-22 179l127 14l9 -199q44 -18 125 -18q4 0 6.5 -12zM76 -94l100 -81l-81 -100l-100 81z
M243 -94l100 -81l-81 -100l-100 81z" />
    <glyph glyph-name="uniFC64" unicode="&#xfc64;" horiz-adv-x="784" arabic-form="final" 
d="M790 154.5q3 -12.5 3 -27.5v-87q0 -16 -3 -28t-6 -12q-103 0 -156.5 29.5t-73.5 106.5q-59 -48 -149 -48q-84 0 -126 42q2 -46 2 -64q0 -117 -71 -208t-241 -171l-88 127q135 60 197 110.5t89 106.5l-42 305l132 27l5 -45q3 -26 15.5 -39t42 -18.5t85.5 -5.5q88 0 133 19
l-3 96l119 13l1 -134q0 -35 12.5 -52.5t39 -23.5t77.5 -6q3 0 6 -12.5zM420 563l96 26q-16 36 -21.5 61.5t-5.5 54.5q0 44 37.5 68.5t91.5 24.5q39 0 70 -9l-17 -89q-32 8 -48 9q-8 1 -23 1q-23 0 -35 -5q0 -19 7.5 -37.5t28.5 -56.5l145 44l18 -89l-331 -92z" />
    <glyph glyph-name="uniFC65" unicode="&#xfc65;" horiz-adv-x="784" arabic-form="final" 
d="M275 569l-86 -104l-112 90l86 104zM790 154.5q3 -12.5 3 -27.5v-87q0 -16 -3 -28t-6 -12q-103 0 -156.5 29.5t-73.5 106.5q-59 -48 -149 -48q-84 0 -126 42q2 -46 2 -64q0 -117 -71 -208t-241 -171l-88 127q135 60 197 110.5t89 106.5l-42 305l132 27l5 -45
q3 -26 15.5 -39t42 -18.5t85.5 -5.5q88 0 133 19l-3 96l119 13l1 -134q0 -35 12.5 -52.5t39 -23.5t77.5 -6q3 0 6 -12.5zM420 563l96 26q-16 36 -21.5 61.5t-5.5 54.5q0 44 37.5 68.5t91.5 24.5q39 0 70 -9l-17 -89q-32 8 -48 9q-8 1 -23 1q-23 0 -35 -5q0 -19 7.5 -37.5
t28.5 -56.5l145 44l18 -89l-331 -92z" />
    <glyph glyph-name="uniFC67" unicode="&#xfc67;" horiz-adv-x="1151" arabic-form="final" 
d="M443 496l-86 -104l-112 90l85 104zM1157 154.5q3 -12.5 3 -27.5v-87q0 -16 -3 -28t-6 -12q-103 0 -156.5 29.5t-73.5 106.5q-59 -48 -149 -48q-87 0 -128 43q9 -114 9 -197q0 -59 -54 -97t-129.5 -55t-140.5 -17q-140 0 -201 53t-61 158q0 37 23 170l25 161l102 -22
q-39 -234 -39 -284q0 -39 45 -54t106 -15q68 0 120 8t90 27l-43 373l128 26l5 -48q3 -26 15.5 -39t42 -18.5t85.5 -5.5q88 0 133 19l-3 96l119 13l1 -134q0 -35 12.5 -52.5t39 -23.5t77.5 -6q3 0 6 -12.5zM778 588l96 26q-16 36 -21.5 61.5t-5.5 54.5q0 44 37.5 68.5
t91.5 24.5q39 0 70 -9l-17 -89q-32 8 -48 9q-8 1 -23 1q-23 0 -35 -5q0 -19 7.5 -37.5t28.5 -56.5l145 44l18 -89l-331 -92z" />
    <glyph glyph-name="uniFC68" unicode="&#xfc68;" horiz-adv-x="983" arabic-form="final" 
d="M989.5 155q2.5 -12 2.5 -28v-87q0 -17 -2.5 -28.5t-6.5 -11.5q-79 0 -128 25.5t-73.5 60.5t-49.5 89q-17 36 -29.5 56t-31.5 33.5t-47 13.5q-43 0 -85.5 -29t-60.5 -70q80 -9 121.5 -22.5t67.5 -52.5t26 -118q0 -83 -49.5 -139t-132 -83.5t-182.5 -27.5q-140 0 -201 53
t-61 159q0 36 23 171l25 159l102 -22q-39 -234 -39 -283q0 -39 45 -54t106 -15q93 0 155.5 12.5t99.5 40.5q3 12 3 19q0 14 -7.5 23.5t-20.5 10.5q-74 6 -113.5 15t-61 29.5t-21.5 60.5q0 75 40.5 148t101.5 118.5t118 45.5q55 0 90.5 -18t54.5 -44.5t40 -69.5t39 -68.5
t51 -42.5t85 -17q4 0 6.5 -12zM451 631l96 26q-16 36 -21.5 61.5t-5.5 54.5q0 44 37.5 68.5t91.5 24.5q39 0 70 -9l-17 -89q-32 8 -48 9q-8 1 -23 1q-23 0 -35 -5q0 -19 7.5 -37.5t28.5 -56.5l145 44l18 -89l-331 -92z" />
    <glyph glyph-name="uniFC6A" unicode="&#xfc6a;" horiz-adv-x="784" arabic-form="final" 
d="M790 154.5q3 -12.5 3 -27.5v-87q0 -16 -3 -28t-6 -12q-103 0 -156.5 29.5t-73.5 106.5q-59 -48 -149 -48q-84 0 -126 42q2 -46 2 -64q0 -117 -71 -208t-241 -171l-88 127q135 60 197 110.5t89 106.5l-42 305l132 27l5 -45q3 -26 15.5 -39t42 -18.5t85.5 -5.5q88 0 133 19
l-3 96l119 13l1 -134q0 -35 12.5 -52.5t39 -23.5t77.5 -6q3 0 6 -12.5zM442 -96l112 -90l-86 -104l-112 90z" />
    <glyph glyph-name="uniFC6B" unicode="&#xfc6b;" horiz-adv-x="784" arabic-form="final" 
d="M275 569l-86 -104l-112 90l86 104zM790 154.5q3 -12.5 3 -27.5v-87q0 -16 -3 -28t-6 -12q-103 0 -156.5 29.5t-73.5 106.5q-59 -48 -149 -48q-84 0 -126 42q2 -46 2 -64q0 -117 -71 -208t-241 -171l-88 127q135 60 197 110.5t89 106.5l-42 305l132 27l5 -45
q3 -26 15.5 -39t42 -18.5t85.5 -5.5q88 0 133 19l-3 96l119 13l1 -134q0 -35 12.5 -52.5t39 -23.5t77.5 -6q3 0 6 -12.5zM442 -96l112 -90l-86 -104l-112 90z" />
    <glyph glyph-name="uniFC6D" unicode="&#xfc6d;" horiz-adv-x="1151" arabic-form="final" 
d="M443 496l-86 -104l-112 90l85 104zM1157 154.5q3 -12.5 3 -27.5v-87q0 -16 -3 -28t-6 -12q-103 0 -156.5 29.5t-73.5 106.5q-59 -48 -149 -48q-87 0 -128 43q9 -114 9 -197q0 -59 -54 -97t-129.5 -55t-140.5 -17q-140 0 -201 53t-61 158q0 37 23 170l25 161l102 -22
q-39 -234 -39 -284q0 -39 45 -54t106 -15q68 0 120 8t90 27l-43 373l128 26l5 -48q3 -26 15.5 -39t42 -18.5t85.5 -5.5q88 0 133 19l-3 96l119 13l1 -134q0 -35 12.5 -52.5t39 -23.5t77.5 -6q3 0 6 -12.5zM813 -96l112 -90l-86 -104l-112 90z" />
    <glyph glyph-name="uniFC6E" unicode="&#xfc6e;" horiz-adv-x="983" arabic-form="final" 
d="M989.5 155q2.5 -12 2.5 -28v-87q0 -17 -2.5 -28.5t-6.5 -11.5q-79 0 -128 25.5t-73.5 60.5t-49.5 89q-17 36 -29.5 56t-31.5 33.5t-47 13.5q-43 0 -85.5 -29t-60.5 -70q80 -9 121.5 -22.5t67.5 -52.5t26 -118q0 -83 -49.5 -139t-132 -83.5t-182.5 -27.5q-140 0 -201 53
t-61 159q0 36 23 171l25 159l102 -22q-39 -234 -39 -283q0 -39 45 -54t106 -15q93 0 155.5 12.5t99.5 40.5q3 12 3 19q0 14 -7.5 23.5t-20.5 10.5q-74 6 -113.5 15t-61 29.5t-21.5 60.5q0 75 40.5 148t101.5 118.5t118 45.5q55 0 90.5 -18t54.5 -44.5t40 -69.5t39 -68.5
t51 -42.5t85 -17q4 0 6.5 -12zM873 -120l112 -90l-86 -104l-112 90z" />
    <glyph glyph-name="uniFC70" unicode="&#xfc70;" horiz-adv-x="784" arabic-form="final" 
d="M790 154.5q3 -12.5 3 -27.5v-87q0 -16 -3 -28t-6 -12q-103 0 -156.5 29.5t-73.5 106.5q-59 -48 -149 -48q-84 0 -126 42q2 -46 2 -64q0 -117 -71 -208t-241 -171l-88 127q135 60 197 110.5t89 106.5l-42 305l132 27l5 -45q3 -26 15.5 -39t42 -18.5t85.5 -5.5q88 0 133 19
l-3 96l119 13l1 -134q0 -35 12.5 -52.5t39 -23.5t77.5 -6q3 0 6 -12.5zM499 658l100 -81l-81 -100l-100 81zM666 658l100 -81l-81 -100l-100 81z" />
    <glyph glyph-name="uniFC71" unicode="&#xfc71;" horiz-adv-x="784" arabic-form="final" 
d="M275 569l-86 -104l-112 90l86 104zM790 154.5q3 -12.5 3 -27.5v-87q0 -16 -3 -28t-6 -12q-103 0 -156.5 29.5t-73.5 106.5q-59 -48 -149 -48q-84 0 -126 42q2 -46 2 -64q0 -117 -71 -208t-241 -171l-88 127q135 60 197 110.5t89 106.5l-42 305l132 27l5 -45
q3 -26 15.5 -39t42 -18.5t85.5 -5.5q88 0 133 19l-3 96l119 13l1 -134q0 -35 12.5 -52.5t39 -23.5t77.5 -6q3 0 6 -12.5zM499 658l100 -81l-81 -100l-100 81zM666 658l100 -81l-81 -100l-100 81z" />
    <glyph glyph-name="uniFC73" unicode="&#xfc73;" horiz-adv-x="1151" arabic-form="final" 
d="M443 496l-86 -104l-112 90l85 104zM1157 154.5q3 -12.5 3 -27.5v-87q0 -16 -3 -28t-6 -12q-103 0 -156.5 29.5t-73.5 106.5q-59 -48 -149 -48q-87 0 -128 43q9 -114 9 -197q0 -59 -54 -97t-129.5 -55t-140.5 -17q-140 0 -201 53t-61 158q0 37 23 170l25 161l102 -22
q-39 -234 -39 -284q0 -39 45 -54t106 -15q68 0 120 8t90 27l-43 373l128 26l5 -48q3 -26 15.5 -39t42 -18.5t85.5 -5.5q88 0 133 19l-3 96l119 13l1 -134q0 -35 12.5 -52.5t39 -23.5t77.5 -6q3 0 6 -12.5zM857 684l100 -81l-81 -100l-100 81zM1024 684l100 -81l-81 -100
l-100 81z" />
    <glyph glyph-name="uniFC74" unicode="&#xfc74;" horiz-adv-x="983" arabic-form="final" 
d="M989.5 155q2.5 -12 2.5 -28v-87q0 -17 -2.5 -28.5t-6.5 -11.5q-79 0 -128 25.5t-73.5 60.5t-49.5 89q-17 36 -29.5 56t-31.5 33.5t-47 13.5q-43 0 -85.5 -29t-60.5 -70q80 -9 121.5 -22.5t67.5 -52.5t26 -118q0 -83 -49.5 -139t-132 -83.5t-182.5 -27.5q-140 0 -201 53
t-61 159q0 36 23 171l25 159l102 -22q-39 -234 -39 -283q0 -39 45 -54t106 -15q93 0 155.5 12.5t99.5 40.5q3 12 3 19q0 14 -7.5 23.5t-20.5 10.5q-74 6 -113.5 15t-61 29.5t-21.5 60.5q0 75 40.5 148t101.5 118.5t118 45.5q55 0 90.5 -18t54.5 -44.5t40 -69.5t39 -68.5
t51 -42.5t85 -17q4 0 6.5 -12zM530 726l100 -81l-81 -100l-100 81zM697 726l100 -81l-81 -100l-100 81z" />
    <glyph glyph-name="uniFC76" unicode="&#xfc76;" horiz-adv-x="784" arabic-form="final" 
d="M790 154.5q3 -12.5 3 -27.5v-87q0 -16 -3 -28t-6 -12q-103 0 -156.5 29.5t-73.5 106.5q-59 -48 -149 -48q-84 0 -126 42q2 -46 2 -64q0 -117 -71 -208t-241 -171l-88 127q135 60 197 110.5t89 106.5l-42 305l132 27l5 -45q3 -26 15.5 -39t42 -18.5t85.5 -5.5q88 0 133 19
l-3 96l119 13l1 -134q0 -35 12.5 -52.5t39 -23.5t77.5 -6q3 0 6 -12.5zM579 819l95 -77l-77 -96l-96 77zM503 650l96 -77l-77 -96l-96 77zM662 650l96 -77l-77 -96l-96 77z" />
    <glyph glyph-name="uniFC77" unicode="&#xfc77;" horiz-adv-x="784" arabic-form="final" 
d="M275 569l-86 -104l-112 90l86 104zM790 154.5q3 -12.5 3 -27.5v-87q0 -16 -3 -28t-6 -12q-103 0 -156.5 29.5t-73.5 106.5q-59 -48 -149 -48q-84 0 -126 42q2 -46 2 -64q0 -117 -71 -208t-241 -171l-88 127q135 60 197 110.5t89 106.5l-42 305l132 27l5 -45
q3 -26 15.5 -39t42 -18.5t85.5 -5.5q88 0 133 19l-3 96l119 13l1 -134q0 -35 12.5 -52.5t39 -23.5t77.5 -6q3 0 6 -12.5zM579 819l95 -77l-77 -96l-96 77zM503 650l96 -77l-77 -96l-96 77zM662 650l96 -77l-77 -96l-96 77z" />
    <glyph glyph-name="uniFC79" unicode="&#xfc79;" horiz-adv-x="1151" arabic-form="final" 
d="M443 496l-86 -104l-112 90l85 104zM1157 154.5q3 -12.5 3 -27.5v-87q0 -16 -3 -28t-6 -12q-103 0 -156.5 29.5t-73.5 106.5q-59 -48 -149 -48q-87 0 -128 43q9 -114 9 -197q0 -59 -54 -97t-129.5 -55t-140.5 -17q-140 0 -201 53t-61 158q0 37 23 170l25 161l102 -22
q-39 -234 -39 -284q0 -39 45 -54t106 -15q68 0 120 8t90 27l-43 373l128 26l5 -48q3 -26 15.5 -39t42 -18.5t85.5 -5.5q88 0 133 19l-3 96l119 13l1 -134q0 -35 12.5 -52.5t39 -23.5t77.5 -6q3 0 6 -12.5zM937 845l95 -77l-77 -96l-96 77zM861 676l96 -77l-77 -96l-96 77z
M1020 676l96 -77l-77 -96l-96 77z" />
    <glyph glyph-name="uniFC7A" unicode="&#xfc7a;" horiz-adv-x="983" arabic-form="final" 
d="M989.5 155q2.5 -12 2.5 -28v-87q0 -17 -2.5 -28.5t-6.5 -11.5q-79 0 -128 25.5t-73.5 60.5t-49.5 89q-17 36 -29.5 56t-31.5 33.5t-47 13.5q-43 0 -85.5 -29t-60.5 -70q80 -9 121.5 -22.5t67.5 -52.5t26 -118q0 -83 -49.5 -139t-132 -83.5t-182.5 -27.5q-140 0 -201 53
t-61 159q0 36 23 171l25 159l102 -22q-39 -234 -39 -283q0 -39 45 -54t106 -15q93 0 155.5 12.5t99.5 40.5q3 12 3 19q0 14 -7.5 23.5t-20.5 10.5q-74 6 -113.5 15t-61 29.5t-21.5 60.5q0 75 40.5 148t101.5 118.5t118 45.5q55 0 90.5 -18t54.5 -44.5t40 -69.5t39 -68.5
t51 -42.5t85 -17q4 0 6.5 -12zM610 887l95 -77l-77 -96l-96 77zM534 718l96 -77l-77 -96l-96 77zM693 718l96 -77l-77 -96l-96 77z" />
    <glyph glyph-name="uniFC8A" unicode="&#xfc8a;" horiz-adv-x="784" arabic-form="final" 
d="M790 154.5q3 -12.5 3 -27.5v-87q0 -16 -3 -28t-6 -12q-103 0 -156.5 29.5t-73.5 106.5q-59 -48 -149 -48q-84 0 -126 42q2 -46 2 -64q0 -117 -71 -208t-241 -171l-88 127q135 60 197 110.5t89 106.5l-42 305l132 27l5 -45q3 -26 15.5 -39t42 -18.5t85.5 -5.5q88 0 133 19
l-3 96l119 13l1 -134q0 -35 12.5 -52.5t39 -23.5t77.5 -6q3 0 6 -12.5zM579 671l112 -90l-86 -104l-112 90z" />
    <glyph glyph-name="uniFC8B" unicode="&#xfc8b;" horiz-adv-x="784" arabic-form="final" 
d="M275 569l-86 -104l-112 90l86 104zM790 154.5q3 -12.5 3 -27.5v-87q0 -16 -3 -28t-6 -12q-103 0 -156.5 29.5t-73.5 106.5q-59 -48 -149 -48q-84 0 -126 42q2 -46 2 -64q0 -117 -71 -208t-241 -171l-88 127q135 60 197 110.5t89 106.5l-42 305l132 27l5 -45
q3 -26 15.5 -39t42 -18.5t85.5 -5.5q88 0 133 19l-3 96l119 13l1 -134q0 -35 12.5 -52.5t39 -23.5t77.5 -6q3 0 6 -12.5zM579 671l112 -90l-86 -104l-112 90z" />
    <glyph glyph-name="uniFC8D" unicode="&#xfc8d;" horiz-adv-x="1151" arabic-form="final" 
d="M443 496l-86 -104l-112 90l85 104zM1157 154.5q3 -12.5 3 -27.5v-87q0 -16 -3 -28t-6 -12q-103 0 -156.5 29.5t-73.5 106.5q-59 -48 -149 -48q-87 0 -128 43q9 -114 9 -197q0 -59 -54 -97t-129.5 -55t-140.5 -17q-140 0 -201 53t-61 158q0 37 23 170l25 161l102 -22
q-39 -234 -39 -284q0 -39 45 -54t106 -15q68 0 120 8t90 27l-43 373l128 26l5 -48q3 -26 15.5 -39t42 -18.5t85.5 -5.5q88 0 133 19l-3 96l119 13l1 -134q0 -35 12.5 -52.5t39 -23.5t77.5 -6q3 0 6 -12.5zM937 697l112 -90l-86 -104l-112 90z" />
    <glyph glyph-name="uniFC8E" unicode="&#xfc8e;" horiz-adv-x="983" arabic-form="final" 
d="M989.5 155q2.5 -12 2.5 -28v-87q0 -17 -2.5 -28.5t-6.5 -11.5q-79 0 -128 25.5t-73.5 60.5t-49.5 89q-17 36 -29.5 56t-31.5 33.5t-47 13.5q-43 0 -85.5 -29t-60.5 -70q80 -9 121.5 -22.5t67.5 -52.5t26 -118q0 -83 -49.5 -139t-132 -83.5t-182.5 -27.5q-140 0 -201 53
t-61 159q0 36 23 171l25 159l102 -22q-39 -234 -39 -283q0 -39 45 -54t106 -15q93 0 155.5 12.5t99.5 40.5q3 12 3 19q0 14 -7.5 23.5t-20.5 10.5q-74 6 -113.5 15t-61 29.5t-21.5 60.5q0 75 40.5 148t101.5 118.5t118 45.5q55 0 90.5 -18t54.5 -44.5t40 -69.5t39 -68.5
t51 -42.5t85 -17q4 0 6.5 -12zM610 739l112 -90l-86 -104l-112 90z" />
    <glyph glyph-name="uniFC91" unicode="&#xfc91;" horiz-adv-x="784" arabic-form="final" 
d="M790 154.5q3 -12.5 3 -27.5v-87q0 -16 -3 -28t-6 -12q-103 0 -156.5 29.5t-73.5 106.5q-59 -48 -149 -48q-84 0 -126 42q2 -46 2 -64q0 -117 -71 -208t-241 -171l-88 127q135 60 197 110.5t89 106.5l-42 305l132 27l5 -45q3 -26 15.5 -39t42 -18.5t85.5 -5.5q88 0 133 19
l-3 96l119 13l1 -134q0 -35 12.5 -52.5t39 -23.5t77.5 -6q3 0 6 -12.5zM362 -96l100 -81l-81 -100l-100 81zM529 -96l100 -81l-81 -100l-100 81z" />
    <glyph glyph-name="uniFC92" unicode="&#xfc92;" horiz-adv-x="784" arabic-form="final" 
d="M275 569l-86 -104l-112 90l86 104zM790 154.5q3 -12.5 3 -27.5v-87q0 -16 -3 -28t-6 -12q-103 0 -156.5 29.5t-73.5 106.5q-59 -48 -149 -48q-84 0 -126 42q2 -46 2 -64q0 -117 -71 -208t-241 -171l-88 127q135 60 197 110.5t89 106.5l-42 305l132 27l5 -45
q3 -26 15.5 -39t42 -18.5t85.5 -5.5q88 0 133 19l-3 96l119 13l1 -134q0 -35 12.5 -52.5t39 -23.5t77.5 -6q3 0 6 -12.5zM362 -96l100 -81l-81 -100l-100 81zM529 -96l100 -81l-81 -100l-100 81z" />
    <glyph glyph-name="uniFC94" unicode="&#xfc94;" horiz-adv-x="1151" arabic-form="final" 
d="M443 496l-86 -104l-112 90l85 104zM1157 154.5q3 -12.5 3 -27.5v-87q0 -16 -3 -28t-6 -12q-103 0 -156.5 29.5t-73.5 106.5q-59 -48 -149 -48q-87 0 -128 43q9 -114 9 -197q0 -59 -54 -97t-129.5 -55t-140.5 -17q-140 0 -201 53t-61 158q0 37 23 170l25 161l102 -22
q-39 -234 -39 -284q0 -39 45 -54t106 -15q68 0 120 8t90 27l-43 373l128 26l5 -48q3 -26 15.5 -39t42 -18.5t85.5 -5.5q88 0 133 19l-3 96l119 13l1 -134q0 -35 12.5 -52.5t39 -23.5t77.5 -6q3 0 6 -12.5zM733 -96l100 -81l-81 -100l-100 81zM900 -96l100 -81l-81 -100
l-100 81z" />
    <glyph glyph-name="uniFC95" unicode="&#xfc95;" horiz-adv-x="983" arabic-form="final" 
d="M989.5 155q2.5 -12 2.5 -28v-87q0 -17 -2.5 -28.5t-6.5 -11.5q-79 0 -128 25.5t-73.5 60.5t-49.5 89q-17 36 -29.5 56t-31.5 33.5t-47 13.5q-43 0 -85.5 -29t-60.5 -70q80 -9 121.5 -22.5t67.5 -52.5t26 -118q0 -83 -49.5 -139t-132 -83.5t-182.5 -27.5q-140 0 -201 53
t-61 159q0 36 23 171l25 159l102 -22q-39 -234 -39 -283q0 -39 45 -54t106 -15q93 0 155.5 12.5t99.5 40.5q3 12 3 19q0 14 -7.5 23.5t-20.5 10.5q-74 6 -113.5 15t-61 29.5t-21.5 60.5q0 75 40.5 148t101.5 118.5t118 45.5q55 0 90.5 -18t54.5 -44.5t40 -69.5t39 -68.5
t51 -42.5t85 -17q4 0 6.5 -12zM793 -120l100 -81l-81 -100l-100 81zM960 -120l100 -81l-81 -100l-100 81z" />
    <glyph glyph-name="uniFCFB" unicode="&#xfcfb;" horiz-adv-x="1451" arabic-form="isolated" 
d="M1383 173q0 -57 -23.5 -96t-62 -58t-82.5 -19q-50 0 -85 14t-52 49q-33 -63 -131 -63q-67 0 -109 24t-63 57.5t-43 86.5q-15 38 -27.5 59.5t-32 36t-48.5 14.5q-43 0 -85.5 -29t-60.5 -70q80 -9 121.5 -22.5t67.5 -52.5t26 -118q0 -83 -49.5 -139t-132 -83.5
t-182.5 -27.5q-140 0 -201 53t-61 159q0 36 23 171l25 159l102 -22q-39 -234 -39 -283q0 -39 45 -54t106 -15q93 0 155.5 12.5t99.5 40.5q3 12 3 19q0 14 -7.5 23.5t-20.5 10.5q-74 6 -113.5 15t-61 29.5t-21.5 60.5q0 75 40.5 148t101.5 118.5t118 45.5q58 0 93.5 -19.5
t53 -47.5t37.5 -74q17 -40 31.5 -63.5t40.5 -39.5t68 -16q43 0 78 12l-8 182l115 4l4 -190q18 -8 49 -8q53 0 85 13l-24 225l127 22q10 -142 10 -254z" />
    <glyph glyph-name="uniFCFD" unicode="&#xfcfd;" horiz-adv-x="1451" arabic-form="isolated" 
d="M1383 173q0 -57 -23.5 -96t-62 -58t-82.5 -19q-50 0 -85 14t-52 49q-33 -63 -131 -63q-67 0 -109 24t-63 57.5t-43 86.5q-15 38 -27.5 59.5t-32 36t-48.5 14.5q-43 0 -85.5 -29t-60.5 -70q80 -9 121.5 -22.5t67.5 -52.5t26 -118q0 -83 -49.5 -139t-132 -83.5
t-182.5 -27.5q-140 0 -201 53t-61 159q0 36 23 171l25 159l102 -22q-39 -234 -39 -283q0 -39 45 -54t106 -15q93 0 155.5 12.5t99.5 40.5q3 12 3 19q0 14 -7.5 23.5t-20.5 10.5q-74 6 -113.5 15t-61 29.5t-21.5 60.5q0 75 40.5 148t101.5 118.5t118 45.5q58 0 93.5 -19.5
t53 -47.5t37.5 -74q17 -40 31.5 -63.5t40.5 -39.5t68 -16q43 0 78 12l-8 182l115 4l4 -190q18 -8 49 -8q53 0 85 13l-24 225l127 22q10 -142 10 -254zM1039 801l95 -77l-77 -96l-96 77zM963 632l96 -77l-77 -96l-96 77zM1122 632l96 -77l-77 -96l-96 77z" />
    <glyph glyph-name="uniFD05" unicode="&#xfd05;" horiz-adv-x="1407" arabic-form="isolated" 
d="M1286.5 413.5q53.5 -66.5 53.5 -196.5q0 -75 -32 -113q-43 -50 -133.5 -77t-219.5 -27q-70 0 -113.5 24.5t-65 58t-44.5 87.5q-16 38 -28 59t-31.5 35t-48.5 14q-43 0 -85.5 -29t-60.5 -71q79 -9 121 -22t68 -52t26 -118q0 -83 -49.5 -139t-132 -83.5t-182.5 -27.5
q-140 0 -201 53t-61 159q0 36 23 171l25 159l102 -22q-39 -234 -39 -283q0 -40 45 -55t106 -15q93 0 155.5 12.5t99.5 40.5q3 13 3 20q0 14 -7.5 23.5t-20.5 10.5q-73 6 -113 14.5t-61.5 29t-21.5 60.5q0 76 40.5 149t101.5 118.5t118 45.5q58 0 93 -19.5t53 -47t38 -72.5
q10 -24 16 -36q67 92 147 160t156 68q107 0 160.5 -66.5zM1090.5 174q65.5 7 134.5 27q0 68 -25 103t-70 35q-49 0 -110.5 -43.5t-124.5 -119.5q21 -9 52 -9q78 0 143.5 7z" />
    <glyph glyph-name="uniFD07" unicode="&#xfd07;" horiz-adv-x="1407" arabic-form="isolated" 
d="M1286.5 413.5q53.5 -66.5 53.5 -196.5q0 -75 -32 -113q-43 -50 -133.5 -77t-219.5 -27q-70 0 -113.5 24.5t-65 58t-44.5 87.5q-16 38 -28 59t-31.5 35t-48.5 14q-43 0 -85.5 -29t-60.5 -71q79 -9 121 -22t68 -52t26 -118q0 -83 -49.5 -139t-132 -83.5t-182.5 -27.5
q-140 0 -201 53t-61 159q0 36 23 171l25 159l102 -22q-39 -234 -39 -283q0 -40 45 -55t106 -15q93 0 155.5 12.5t99.5 40.5q3 13 3 20q0 14 -7.5 23.5t-20.5 10.5q-73 6 -113 14.5t-61.5 29t-21.5 60.5q0 76 40.5 149t101.5 118.5t118 45.5q58 0 93 -19.5t53 -47t38 -72.5
q10 -24 16 -36q67 92 147 160t156 68q107 0 160.5 -66.5zM1090.5 174q65.5 7 134.5 27q0 68 -25 103t-70 35q-49 0 -110.5 -43.5t-124.5 -119.5q21 -9 52 -9q78 0 143.5 7zM929 726l112 -90l-86 -104l-112 90z" />
    <glyph glyph-name="uniFD17" unicode="&#xfd17;" horiz-adv-x="1505" arabic-form="final" 
d="M1512 155q3 -12 3 -28v-87q0 -16 -3 -28t-7 -12h-24q-41 0 -77 17.5t-52 48.5q-23 -33 -59.5 -49.5t-77.5 -16.5q-50 0 -85 14t-52 49q-33 -63 -131 -63q-67 0 -109 24t-63 57.5t-43 86.5q-15 38 -27.5 59.5t-32 36t-48.5 14.5q-43 0 -85.5 -29t-60.5 -70
q80 -9 121.5 -22.5t67.5 -52.5t26 -118q0 -83 -49.5 -139t-132 -83.5t-182.5 -27.5q-140 0 -201 53t-61 159q0 36 23 171l25 159l102 -22q-39 -234 -39 -283q0 -39 45 -54t106 -15q93 0 155.5 12.5t99.5 40.5q3 12 3 19q0 14 -7.5 23.5t-20.5 10.5q-74 6 -113.5 15t-61 29.5
t-21.5 60.5q0 75 40.5 148t101.5 118.5t118 45.5q58 0 93.5 -19.5t53 -47.5t37.5 -74q17 -40 31.5 -63.5t40.5 -39.5t68 -16q43 0 78 12l-8 182l115 4l4 -190q18 -8 49 -8q53 0 85 13l-24 225l127 22l15 -195q2 -24 9 -37.5t26.5 -20.5t57.5 -7h24q4 0 7 -12z" />
    <glyph glyph-name="uniFD19" unicode="&#xfd19;" horiz-adv-x="1505" arabic-form="final" 
d="M1512 155q3 -12 3 -28v-87q0 -16 -3 -28t-7 -12h-24q-41 0 -77 17.5t-52 48.5q-23 -33 -59.5 -49.5t-77.5 -16.5q-50 0 -85 14t-52 49q-33 -63 -131 -63q-67 0 -109 24t-63 57.5t-43 86.5q-15 38 -27.5 59.5t-32 36t-48.5 14.5q-43 0 -85.5 -29t-60.5 -70
q80 -9 121.5 -22.5t67.5 -52.5t26 -118q0 -83 -49.5 -139t-132 -83.5t-182.5 -27.5q-140 0 -201 53t-61 159q0 36 23 171l25 159l102 -22q-39 -234 -39 -283q0 -39 45 -54t106 -15q93 0 155.5 12.5t99.5 40.5q3 12 3 19q0 14 -7.5 23.5t-20.5 10.5q-74 6 -113.5 15t-61 29.5
t-21.5 60.5q0 75 40.5 148t101.5 118.5t118 45.5q58 0 93.5 -19.5t53 -47.5t37.5 -74q17 -40 31.5 -63.5t40.5 -39.5t68 -16q43 0 78 12l-8 182l115 4l4 -190q18 -8 49 -8q53 0 85 13l-24 225l127 22l15 -195q2 -24 9 -37.5t26.5 -20.5t57.5 -7h24q4 0 7 -12zM1038 801
l95 -77l-77 -96l-96 77zM962 632l96 -77l-77 -96l-96 77zM1121 632l96 -77l-77 -96l-96 77z" />
    <glyph glyph-name="uniFD21" unicode="&#xfd21;" horiz-adv-x="1440" arabic-form="final" 
d="M1446 154.5q3 -12.5 3 -27.5v-87q0 -16 -3 -28t-6 -12q-68 0 -106.5 16t-62.5 55q-50 -34 -130.5 -52.5t-185.5 -18.5q-70 0 -113.5 24.5t-65 58t-44.5 87.5q-16 38 -28 59t-31.5 35t-48.5 14q-43 0 -85.5 -29t-60.5 -71q79 -9 121 -22t68 -52t26 -118q0 -83 -49.5 -139
t-132 -83.5t-182.5 -27.5q-140 0 -201 53t-61 159q0 36 23 171l25 159l102 -22q-39 -234 -39 -283q0 -40 45 -55t106 -15q93 0 155.5 12.5t99.5 40.5q3 13 3 20q0 14 -7.5 23.5t-20.5 10.5q-73 6 -113 14.5t-61.5 29t-21.5 60.5q0 76 40.5 149t101.5 118.5t118 45.5
q58 0 93 -19.5t53 -47t38 -72.5q10 -24 16 -36q67 92 147 160t156 68q107 0 160.5 -66.5t53.5 -196.5q0 -18 -1 -27q10 -11 32.5 -17t68.5 -6q3 0 6 -12.5zM1090.5 174q65.5 7 134.5 27q0 68 -25 103t-70 35q-49 0 -110.5 -43.5t-124.5 -119.5q21 -9 52 -9q78 0 143.5 7z
" />
    <glyph glyph-name="uniFD23" unicode="&#xfd23;" horiz-adv-x="1440" arabic-form="final" 
d="M1446 154.5q3 -12.5 3 -27.5v-87q0 -16 -3 -28t-6 -12q-68 0 -106.5 16t-62.5 55q-50 -34 -130.5 -52.5t-185.5 -18.5q-70 0 -113.5 24.5t-65 58t-44.5 87.5q-16 38 -28 59t-31.5 35t-48.5 14q-43 0 -85.5 -29t-60.5 -71q79 -9 121 -22t68 -52t26 -118q0 -83 -49.5 -139
t-132 -83.5t-182.5 -27.5q-140 0 -201 53t-61 159q0 36 23 171l25 159l102 -22q-39 -234 -39 -283q0 -40 45 -55t106 -15q93 0 155.5 12.5t99.5 40.5q3 13 3 20q0 14 -7.5 23.5t-20.5 10.5q-73 6 -113 14.5t-61.5 29t-21.5 60.5q0 76 40.5 149t101.5 118.5t118 45.5
q58 0 93 -19.5t53 -47t38 -72.5q10 -24 16 -36q67 92 147 160t156 68q107 0 160.5 -66.5t53.5 -196.5q0 -18 -1 -27q10 -11 32.5 -17t68.5 -6q3 0 6 -12.5zM1090.5 174q65.5 7 134.5 27q0 68 -25 103t-70 35q-49 0 -110.5 -43.5t-124.5 -119.5q21 -9 52 -9q78 0 143.5 7z
M930 726l112 -90l-86 -104l-112 90z" />
    <glyph glyph-name="uniFDFC" unicode="&#xfdfc;" horiz-adv-x="1705" arabic-form="isolated" 
d="M651 -66q1 -59 -52.5 -97t-129.5 -55t-140 -17q-140 0 -201 53t-61 158q0 37 23 170l25 161l102 -22q-39 -234 -39 -284q0 -39 45 -54t106 -15q68 0 119 8t89 27l-33 774l132 22zM853.5 22q-44.5 22 -68 75.5t-27.5 150.5l-18 493l132 22l1 -513q0 -38 21 -60.5t60 -22.5
h48q124 0 183.5 4.5t93.5 19.5l-24 214l128 22q10 -154 10 -252q0 -38 -15 -71.5t-47 -55.5q-37 -25 -108.5 -36.5t-219.5 -11.5h-31q-74 0 -118.5 22zM1632.5 183q5.5 -67 5.5 -117q0 -117 -70.5 -208t-241.5 -171l-87 127q134 60 196 110.5t89 106.5l-42 305l132 27
q13 -113 18.5 -180zM888 -131l100 -81l-81 -100l-100 81zM974 -231l82 100l99 -81l-81 -100z" />
    <glyph glyph-name="uniFE82" unicode="&#x622;" horiz-adv-x="320" arabic-form="final" 
d="M326.5 155q2.5 -12 2.5 -28v-87q0 -17 -2.5 -28.5t-6.5 -11.5h-31q-73 0 -117.5 22t-67.5 75.5t-28 150.5l-19 353l132 22l2 -373q0 -38 20.5 -60.5t60.5 -22.5h48q4 0 6.5 -12zM105 696q-26 4 -33 4q-16 0 -25 -9.5t-17 -39.5l-88 22q14 61 31 94t40.5 46.5t58.5 13.5
q19 0 54 -5q72 -9 124 -9h60l-26 -128h-55q-67 0 -124 11z" />
    <glyph glyph-name="uniFE84" unicode="&#x623;" horiz-adv-x="320" arabic-form="final" 
d="M326.5 155q2.5 -12 2.5 -28v-87q0 -17 -2.5 -28.5t-6.5 -11.5h-31q-73 0 -117.5 22t-67.5 75.5t-28 150.5l-19 353l132 22l2 -373q0 -38 20.5 -60.5t60.5 -22.5h48q4 0 6.5 -12zM-46 737l96 26q-16 36 -21.5 61.5t-5.5 54.5q0 44 37.5 68.5t91.5 24.5q39 0 70 -9l-17 -89
q-32 8 -48 9q-8 1 -23 1q-23 0 -35 -5q0 -19 7.5 -37.5t28.5 -56.5l145 44l18 -89l-331 -92z" />
    <glyph glyph-name="uniFE86" unicode="&#x624;" horiz-adv-x="502" arabic-form="final" 
d="M508 154.5q3 -12.5 3 -27.5v-87q0 -16 -3 -28t-6 -12h-83q-25 -99 -98.5 -179.5t-204.5 -133.5l-87 127q91 32 162.5 84.5t107.5 106.5q-40 -5 -80 -5q-44 0 -66 3.5t-37 14t-32 33.5q-17 24 -22.5 39t-5.5 41q0 73 21 135.5t64 100.5t107 38q76 0 124 -66.5t58 -171.5
h72q3 0 6 -12.5zM244 137q49 0 79 6q0 62 -23 93.5t-61 31.5q-34 0 -55 -32.5t-21 -91.5q47 -7 81 -7zM76 585l96 26q-16 36 -21.5 61.5t-5.5 54.5q0 44 37.5 68.5t91.5 24.5q39 0 70 -9l-17 -89q-32 8 -48 9q-8 1 -23 1q-23 0 -35 -5q0 -19 7.5 -37.5t28.5 -56.5l145 44
l18 -89l-331 -92z" />
    <glyph glyph-name="uniFE88" unicode="&#x625;" horiz-adv-x="320" arabic-form="final" 
d="M326.5 155q2.5 -12 2.5 -28v-87q0 -17 -2.5 -28.5t-6.5 -11.5h-31q-73 0 -118 22t-68 75.5t-27 150.5l-19 493l132 22l1 -513q1 -38 21.5 -60.5t60.5 -22.5h48q4 0 6.5 -12zM-34 -310l96 26q-16 36 -21.5 61.5t-5.5 54.5q0 44 37.5 68.5t91.5 24.5q39 0 70 -9l-17 -89
q-32 8 -48 9q-8 1 -23 1q-23 0 -35 -5q0 -19 7.5 -37.5t28.5 -56.5l145 44l18 -89l-331 -92z" />
    <glyph glyph-name="uniFE8A" unicode="&#x626;" horiz-adv-x="732" arabic-form="final" 
d="M739 155q3 -12 3 -28v-87q0 -16 -3 -28t-7 -12h-40q1 -5 1 -17q0 -82 -49.5 -137.5t-132 -82.5t-182.5 -27q-140 0 -201 53t-61 159q0 36 23 171l25 159l102 -22q-39 -234 -39 -283q0 -39 45.5 -54.5t105.5 -15.5q94 0 156 12.5t100 41.5q2 27 -23 35t-86 8h-51l28 167
h279q4 0 7 -12zM49 457l96 26q-16 36 -21.5 61.5t-5.5 54.5q0 44 37.5 68.5t91.5 24.5q39 0 70 -9l-17 -89q-32 8 -48 9q-8 1 -23 1q-23 0 -35 -5q0 -19 7.5 -37.5t28.5 -56.5l145 44l18 -89l-331 -92z" />
    <glyph glyph-name="uniFE8B" unicode="&#x626;" horiz-adv-x="353" arabic-form="initial" 
d="M286 175q0 -38 -15 -71.5t-47 -55.5q-71 -48 -224 -48q-4 0 -6.5 11.5t-2.5 28.5v87q0 16 2.5 28t6.5 12q60 0 101 5t71 19l-24 214l128 22q10 -154 10 -252zM24 605l96 26q-16 36 -21.5 61.5t-5.5 54.5q0 44 37.5 68.5t91.5 24.5q39 0 70 -9l-17 -89q-32 8 -48 9
q-8 1 -23 1q-23 0 -35 -5q0 -19 7.5 -37.5t28.5 -56.5l145 44l18 -89l-331 -92z" />
    <glyph glyph-name="uniFE8C" unicode="&#x626;" horiz-adv-x="383" arabic-form="medial" 
d="M389.5 155q2.5 -12 2.5 -28v-87q0 -17 -2.5 -28.5t-6.5 -11.5q-87 0 -128 17.5t-54 58.5q-20 -42 -65 -59t-136 -17q-4 0 -6.5 11.5t-2.5 28.5v87q0 16 2.5 28t6.5 12q98 0 144 24l-22 179l127 14l9 -199q44 -18 125 -18q4 0 6.5 -12zM6 563l96 26q-16 36 -21.5 61.5
t-5.5 54.5q0 44 37.5 68.5t91.5 24.5q39 0 70 -9l-17 -89q-32 8 -48 9q-8 1 -23 1q-23 0 -35 -5q0 -19 7.5 -37.5t28.5 -56.5l145 44l18 -89l-331 -92z" />
    <glyph glyph-name="uniFE8E" unicode="&#x627;" horiz-adv-x="320" arabic-form="final" 
d="M326.5 155q2.5 -12 2.5 -28v-87q0 -17 -2.5 -28.5t-6.5 -11.5h-31q-73 0 -118 22t-68 75.5t-27 150.5l-19 493l132 22l1 -513q1 -38 21.5 -60.5t60.5 -22.5h48q4 0 6.5 -12z" />
    <glyph glyph-name="uniFE90" unicode="&#x628;" horiz-adv-x="918" arabic-form="final" 
d="M924 154.5q3 -12.5 3 -27.5v-87q0 -16 -3 -28t-6 -12q-80 0 -129.5 18.5t-62.5 52.5q-23 -32 -74 -47q-43 -13 -104 -21t-130 -8q-112 0 -188 17t-119.5 63.5t-43.5 129.5q0 21 8 72t25 150l102 -22q-24 -136 -24 -170q0 -31 21.5 -46.5t69.5 -21t141 -5.5q175 0 280 26
l-17 159l123 14l9 -181q36 -13 113 -13q3 0 6 -12.5zM406 -98l112 -90l-86 -104l-112 90z" />
    <glyph glyph-name="uniFE91" unicode="&#x628;" horiz-adv-x="353" arabic-form="initial" 
d="M286 175q0 -38 -15 -71.5t-47 -55.5q-71 -48 -224 -48q-4 0 -6.5 11.5t-2.5 28.5v87q0 16 2.5 28t6.5 12q60 0 101 5t71 19l-24 214l128 22q10 -154 10 -252zM87 -94l112 -90l-86 -104l-112 90z" />
    <glyph glyph-name="uniFE92" unicode="&#x628;" horiz-adv-x="383" arabic-form="medial" 
d="M389.5 155q2.5 -12 2.5 -28v-87q0 -17 -2.5 -28.5t-6.5 -11.5q-87 0 -128 17.5t-54 58.5q-20 -42 -65 -59t-136 -17q-4 0 -6.5 11.5t-2.5 28.5v87q0 16 2.5 28t6.5 12q98 0 144 24l-22 179l127 14l9 -199q44 -18 125 -18q4 0 6.5 -12zM155 -94l112 -90l-86 -104l-112 90z
" />
    <glyph glyph-name="uniFE94" unicode="&#x629;" horiz-adv-x="539" arabic-form="final" 
d="M545.5 155q2.5 -12 2.5 -28v-87q0 -17 -2.5 -28.5t-6.5 -11.5h-52q-50 0 -86 24.5t-50 64.5l-5 -12q-12 -28 -45.5 -37t-97.5 -9t-100 30.5t-36 90.5q0 73 19.5 120.5t65 84t129.5 73.5l-10 73l120 35l28 -272q4 -37 10 -57t22 -31t49 -11h39q4 0 6.5 -12zM318 200
l-16 111q-119 -45 -133 -122q23 -8 51 -8q41 0 98 19zM235 819l100 -81l-81 -100l-100 81zM402 819l100 -81l-81 -100l-100 81z" />
    <glyph glyph-name="uniFE96" unicode="&#x62a;" horiz-adv-x="918" arabic-form="final" 
d="M924 154.5q3 -12.5 3 -27.5v-87q0 -16 -3 -28t-6 -12q-80 0 -129.5 18.5t-62.5 52.5q-23 -32 -74 -47q-43 -13 -104 -21t-130 -8q-112 0 -188 17t-119.5 63.5t-43.5 129.5q0 21 8 72t25 150l102 -22q-24 -136 -24 -170q0 -31 21.5 -46.5t69.5 -21t141 -5.5q175 0 280 26
l-17 159l123 14l9 -181q36 -13 113 -13q3 0 6 -12.5zM356 590l100 -81l-81 -100l-100 81zM523 590l100 -81l-81 -100l-100 81z" />
    <glyph glyph-name="uniFE97" unicode="&#x62a;" horiz-adv-x="353" arabic-form="initial" 
d="M286 175q0 -38 -15 -71.5t-47 -55.5q-71 -48 -224 -48q-4 0 -6.5 11.5t-2.5 28.5v87q0 16 2.5 28t6.5 12q60 0 101 5t71 19l-24 214l128 22q10 -154 10 -252zM103 701l100 -81l-81 -100l-100 81zM270 701l100 -81l-81 -100l-100 81z" />
    <glyph glyph-name="uniFE98" unicode="&#x62a;" horiz-adv-x="383" arabic-form="medial" 
d="M389.5 155q2.5 -12 2.5 -28v-87q0 -17 -2.5 -28.5t-6.5 -11.5q-87 0 -128 17.5t-54 58.5q-20 -42 -65 -59t-136 -17q-4 0 -6.5 11.5t-2.5 28.5v87q0 16 2.5 28t6.5 12q98 0 144 24l-22 179l127 14l9 -199q44 -18 125 -18q4 0 6.5 -12zM85 658l100 -81l-81 -100l-100 81z
M252 658l100 -81l-81 -100l-100 81z" />
    <glyph glyph-name="uniFE9A" unicode="&#x62b;" horiz-adv-x="918" arabic-form="final" 
d="M924 154.5q3 -12.5 3 -27.5v-87q0 -16 -3 -28t-6 -12q-80 0 -129.5 18.5t-62.5 52.5q-23 -32 -74 -47q-43 -13 -104 -21t-130 -8q-112 0 -188 17t-119.5 63.5t-43.5 129.5q0 21 8 72t25 150l102 -22q-24 -136 -24 -170q0 -31 21.5 -46.5t69.5 -21t141 -5.5q175 0 280 26
l-17 159l123 14l9 -181q36 -13 113 -13q3 0 6 -12.5zM436 751l95 -77l-77 -96l-96 77zM360 582l96 -77l-77 -96l-96 77zM519 582l96 -77l-77 -96l-96 77z" />
    <glyph glyph-name="uniFE9B" unicode="&#x62b;" horiz-adv-x="353" arabic-form="initial" 
d="M286 175q0 -38 -15 -71.5t-47 -55.5q-71 -48 -224 -48q-4 0 -6.5 11.5t-2.5 28.5v87q0 16 2.5 28t6.5 12q60 0 101 5t71 19l-24 214l128 22q10 -154 10 -252zM183 862l95 -77l-77 -96l-96 77zM107 693l96 -77l-77 -96l-96 77zM266 693l96 -77l-77 -96l-96 77z" />
    <glyph glyph-name="uniFE9C" unicode="&#x62b;" horiz-adv-x="383" arabic-form="medial" 
d="M389.5 155q2.5 -12 2.5 -28v-87q0 -17 -2.5 -28.5t-6.5 -11.5q-87 0 -128 17.5t-54 58.5q-20 -42 -65 -59t-136 -17q-4 0 -6.5 11.5t-2.5 28.5v87q0 16 2.5 28t6.5 12q98 0 144 24l-22 179l127 14l9 -199q44 -18 125 -18q4 0 6.5 -12zM165 819l95 -77l-77 -96l-96 77z
M89 650l96 -77l-77 -96l-96 77zM248 650l96 -77l-77 -96l-96 77z" />
    <glyph glyph-name="uniFE9E" unicode="&#x62c;" horiz-adv-x="768" arabic-form="final" 
d="M774.5 155q2.5 -12 2.5 -28v-87q0 -17 -2.5 -28.5t-6.5 -11.5h-84q-78 0 -122 18t-68 54.5t-48 106.5q-88 -42 -157 -93.5t-96 -102.5q-11 -34 -11 -69q0 -84 54 -123.5t167 -39.5q130 0 248 39l-26 -167q-95 -39 -222 -39q-157 0 -246.5 83.5t-89.5 236.5
q0 83 44.5 162.5t130 145.5t203.5 108q-27 7 -96 31q-47 17 -75 25t-53 8q-27 0 -39 -15.5t-17 -48.5l-97 18q13 88 47 139.5t98 51.5q43 0 87.5 -14t115.5 -44q85 -35 144 -53t123 -18l-31 -157q-50 -6 -108 -26q15 -29 36.5 -39.5t65.5 -10.5h122q4 0 6.5 -12zM413 -154
l-103 82l78 95l103 -82z" />
    <glyph glyph-name="uniFE9F" unicode="&#x62c;" horiz-adv-x="740" arabic-form="initial" 
d="M294.5 474.5q42.5 -13.5 111.5 -41.5q86 -35 149.5 -54t132.5 -19l-30 -158q-68 -7 -126.5 -32t-131.5 -66q-36 -20 -52 -28q-143 -76 -318 -76h-30q-4 0 -6.5 11.5t-2.5 28.5v87q0 16 2.5 28t6.5 12h32q117 0 253 40q35 10 89 33q56 26 91 33q-50 9 -122 38
q-45 16 -72.5 24t-49.5 8q-28 0 -39.5 -15.5t-16.5 -47.5l-98 17q29 191 146 191q39 0 81.5 -13.5zM329 -94l112 -90l-86 -104l-112 90z" />
    <glyph glyph-name="uniFEA0" unicode="&#x62c;" horiz-adv-x="758" arabic-form="medial" 
d="M764.5 155q2.5 -12 2.5 -28v-87q0 -17 -2.5 -28.5t-6.5 -11.5h-168q-68 0 -131 19t-82 73l-29 -16q-143 -76 -318 -76h-30q-4 0 -6.5 11.5t-2.5 28.5v87q0 16 2.5 28t6.5 12h32q146 0 253 40q29 10 74 33q32 16 53.5 25.5t44.5 14.5q-48 8 -123 35q-40 14 -66 21t-47 7
q-28 0 -39.5 -15.5t-16.5 -47.5l-98 17q29 191 146 191q38 0 78 -12t115 -39q86 -33 149.5 -51t132.5 -18l-30 -140q-81 -15 -177 -72l38 3q12 1 67 4.5t110 3.5h62q4 0 6.5 -12zM329 -94l112 -90l-86 -104l-112 90z" />
    <glyph glyph-name="uniFEA2" unicode="&#x62d;" horiz-adv-x="768" arabic-form="final" 
d="M774.5 155q2.5 -12 2.5 -28v-87q0 -17 -2.5 -28.5t-6.5 -11.5h-84q-78 0 -122 18t-68 54.5t-48 106.5q-88 -42 -157 -93.5t-96 -102.5q-11 -34 -11 -69q0 -84 54 -123.5t167 -39.5q130 0 248 39l-26 -167q-95 -39 -222 -39q-157 0 -246.5 83.5t-89.5 236.5
q0 83 44.5 162.5t130 145.5t203.5 108q-27 7 -96 31q-47 17 -75 25t-53 8q-27 0 -39 -15.5t-17 -48.5l-97 18q13 88 47 139.5t98 51.5q43 0 87.5 -14t115.5 -44q85 -35 144 -53t123 -18l-31 -157q-50 -6 -108 -26q15 -29 36.5 -39.5t65.5 -10.5h122q4 0 6.5 -12z" />
    <glyph glyph-name="uniFEA3" unicode="&#x62d;" horiz-adv-x="740" arabic-form="initial" 
d="M294.5 474.5q42.5 -13.5 111.5 -41.5q86 -35 149.5 -54t132.5 -19l-30 -158q-68 -7 -126.5 -32t-131.5 -66q-36 -20 -52 -28q-143 -76 -318 -76h-30q-4 0 -6.5 11.5t-2.5 28.5v87q0 16 2.5 28t6.5 12h32q117 0 253 40q35 10 89 33q56 26 91 33q-50 9 -122 38
q-45 16 -72.5 24t-49.5 8q-28 0 -39.5 -15.5t-16.5 -47.5l-98 17q29 191 146 191q39 0 81.5 -13.5z" />
    <glyph glyph-name="uniFEA4" unicode="&#x62d;" horiz-adv-x="758" arabic-form="medial" 
d="M764.5 155q2.5 -12 2.5 -28v-87q0 -17 -2.5 -28.5t-6.5 -11.5h-168q-68 0 -131 19t-82 73l-29 -16q-143 -76 -318 -76h-30q-4 0 -6.5 11.5t-2.5 28.5v87q0 16 2.5 28t6.5 12h32q146 0 253 40q29 10 74 33q32 16 53.5 25.5t44.5 14.5q-48 8 -123 35q-40 14 -66 21t-47 7
q-28 0 -39.5 -15.5t-16.5 -47.5l-98 17q29 191 146 191q38 0 78 -12t115 -39q86 -33 149.5 -51t132.5 -18l-30 -140q-81 -15 -177 -72l38 3q12 1 67 4.5t110 3.5h62q4 0 6.5 -12z" />
    <glyph glyph-name="uniFEA6" unicode="&#x62e;" horiz-adv-x="768" arabic-form="final" 
d="M774.5 155q2.5 -12 2.5 -28v-87q0 -17 -2.5 -28.5t-6.5 -11.5h-84q-78 0 -122 18t-68 54.5t-48 106.5q-88 -42 -157 -93.5t-96 -102.5q-11 -34 -11 -69q0 -84 54 -123.5t167 -39.5q130 0 248 39l-26 -167q-95 -39 -222 -39q-157 0 -246.5 83.5t-89.5 236.5
q0 83 44.5 162.5t130 145.5t203.5 108q-27 7 -96 31q-47 17 -75 25t-53 8q-27 0 -39 -15.5t-17 -48.5l-97 18q13 88 47 139.5t98 51.5q43 0 87.5 -14t115.5 -44q85 -35 144 -53t123 -18l-31 -157q-50 -6 -108 -26q15 -29 36.5 -39.5t65.5 -10.5h122q4 0 6.5 -12zM383 795
l112 -90l-86 -104l-112 90z" />
    <glyph glyph-name="uniFEA7" unicode="&#x62e;" horiz-adv-x="740" arabic-form="initial" 
d="M294.5 474.5q42.5 -13.5 111.5 -41.5q86 -35 149.5 -54t132.5 -19l-30 -158q-68 -7 -126.5 -32t-131.5 -66q-36 -20 -52 -28q-143 -76 -318 -76h-30q-4 0 -6.5 11.5t-2.5 28.5v87q0 16 2.5 28t6.5 12h32q117 0 253 40q35 10 89 33q56 26 91 33q-50 9 -122 38
q-45 16 -72.5 24t-49.5 8q-28 0 -39.5 -15.5t-16.5 -47.5l-98 17q29 191 146 191q39 0 81.5 -13.5zM295 796l112 -90l-86 -104l-112 90z" />
    <glyph glyph-name="uniFEA8" unicode="&#x62e;" horiz-adv-x="758" arabic-form="medial" 
d="M764.5 155q2.5 -12 2.5 -28v-87q0 -17 -2.5 -28.5t-6.5 -11.5h-168q-68 0 -131 19t-82 73l-29 -16q-143 -76 -318 -76h-30q-4 0 -6.5 11.5t-2.5 28.5v87q0 16 2.5 28t6.5 12h32q146 0 253 40q29 10 74 33q32 16 53.5 25.5t44.5 14.5q-48 8 -123 35q-40 14 -66 21t-47 7
q-28 0 -39.5 -15.5t-16.5 -47.5l-98 17q29 191 146 191q38 0 78 -12t115 -39q86 -33 149.5 -51t132.5 -18l-30 -140q-81 -15 -177 -72l38 3q12 1 67 4.5t110 3.5h62q4 0 6.5 -12zM295 796l112 -90l-86 -104l-112 90z" />
    <glyph glyph-name="uniFEAA" unicode="&#x62f;" horiz-adv-x="607" arabic-form="final" 
d="M613.5 155q2.5 -12 2.5 -28v-87q0 -17 -2.5 -28.5t-6.5 -11.5h-25q-108 0 -132 83q-9 -27 -18.5 -39.5t-25.5 -19.5q-31 -15 -81.5 -27t-96.5 -12q-89 0 -130 35t-41 123q0 19 4 87l102 -8v-26q0 -21 6.5 -30t23.5 -11.5t56 -2.5q82 0 144 24l-81 301l124 67l59 -298
q8 -40 17.5 -55.5t28 -19.5t66.5 -4q4 0 6.5 -12z" />
    <glyph glyph-name="uniFEAC" unicode="&#x630;" horiz-adv-x="607" arabic-form="final" 
d="M613.5 155q2.5 -12 2.5 -28v-87q0 -17 -2.5 -28.5t-6.5 -11.5h-25q-108 0 -132 83q-9 -27 -18.5 -39.5t-25.5 -19.5q-31 -15 -81.5 -27t-96.5 -12q-89 0 -130 35t-41 123q0 19 4 87l102 -8v-26q0 -21 6.5 -30t23.5 -11.5t56 -2.5q82 0 144 24l-81 301l124 67l59 -298
q8 -40 17.5 -55.5t28 -19.5t66.5 -4q4 0 6.5 -12zM316 829l112 -90l-86 -104l-112 90z" />
    <glyph glyph-name="uniFEAE" unicode="&#x631;" horiz-adv-x="412" arabic-form="final" 
d="M418.5 155q2.5 -12 2.5 -28v-87q0 -17 -2.5 -28.5t-6.5 -11.5h-33q-29 0 -55 11.5t-44 33.5q-5 -109 -76.5 -195t-234.5 -163l-88 127q135 60 197 110.5t89 106.5l-42 305l132 27l15 -133q4 -36 29 -49.5t78 -13.5h33q4 0 6.5 -12z" />
    <glyph glyph-name="uniFEB0" unicode="&#x632;" horiz-adv-x="412" arabic-form="final" 
d="M418.5 155q2.5 -12 2.5 -28v-87q0 -17 -2.5 -28.5t-6.5 -11.5h-33q-29 0 -55 11.5t-44 33.5q-5 -109 -76.5 -195t-234.5 -163l-88 127q135 60 197 110.5t89 106.5l-42 305l132 27l15 -133q4 -36 29 -49.5t78 -13.5h33q4 0 6.5 -12zM163 659l112 -90l-86 -104l-112 90z
" />
    <glyph glyph-name="uniFEB2" unicode="&#x633;" horiz-adv-x="1274" arabic-form="final" 
d="M1280 154.5q3 -12.5 3 -27.5v-87q0 -16 -3 -28t-6 -12h-24q-42 0 -78 17t-51 49q-23 -33 -60 -49.5t-78 -16.5q-90 0 -119 63q-19 -36 -51.5 -49.5t-64.5 -13.5q-36 0 -59.5 9t-38.5 30q3 -60 3 -105q0 -59 -54 -97t-129.5 -55t-140.5 -17q-140 0 -201 53t-61 158
q0 37 23 170l25 161l102 -22q-39 -234 -39 -284q0 -39 45 -54t106 -15q68 0 120 8t90 27l-43 373l128 26l5 -52l9 -92q4 -32 20.5 -43.5t55.5 -11.5q44 0 80 12l-9 182l115 4l4 -190q22 -8 50 -8q52 0 85 13l-25 225l128 22l14 -195q2 -24 9.5 -37.5t27 -20.5t57.5 -7h24
q3 0 6 -12.5z" />
    <glyph glyph-name="uniFEB3" unicode="&#x633;" horiz-adv-x="787" arabic-form="initial" 
d="M720 173q0 -57 -23.5 -96t-62 -58t-82.5 -19q-50 0 -85 14t-52 49q-18 -36 -50.5 -49.5t-61.5 -13.5q-87 0 -122 64q-25 -37 -72 -50.5t-109 -13.5q-4 0 -6.5 11.5t-2.5 28.5v87q0 16 2.5 28t6.5 12q72 0 122 18v140h115l-1 -106q-1 -28 11.5 -40t38.5 -12q42 0 76 12
l-8 182l115 4l4 -190q18 -8 49 -8q53 0 85 13l-24 225l127 22q10 -143 10 -254z" />
    <glyph glyph-name="uniFEB4" unicode="&#x633;" horiz-adv-x="842" arabic-form="medial" 
d="M848.5 155q2.5 -12 2.5 -28v-87q0 -17 -2.5 -28.5t-6.5 -11.5h-24q-42 0 -77.5 17t-51.5 49q-23 -33 -59.5 -49.5t-77.5 -16.5q-50 0 -85 14t-52 49q-18 -36 -50.5 -49.5t-61.5 -13.5q-87 0 -122 64q-25 -37 -72 -50.5t-109 -13.5q-4 0 -6.5 11.5t-2.5 28.5v87
q0 16 2.5 28t6.5 12q72 0 122 18v140h115l-1 -106q-1 -28 11.5 -40t38.5 -12q42 0 76 12l-8 182l115 4l4 -190q18 -8 49 -8q53 0 85 13l-24 225l127 22l14 -195q2 -24 9.5 -37.5t27 -20.5t57.5 -7h24q4 0 6.5 -12z" />
    <glyph glyph-name="uniFEB6" unicode="&#x634;" horiz-adv-x="1274" arabic-form="final" 
d="M1280 154.5q3 -12.5 3 -27.5v-87q0 -16 -3 -28t-6 -12h-24q-42 0 -78 17t-51 49q-23 -33 -60 -49.5t-78 -16.5q-90 0 -119 63q-19 -36 -51.5 -49.5t-64.5 -13.5q-36 0 -59.5 9t-38.5 30q3 -60 3 -105q0 -59 -54 -97t-129.5 -55t-140.5 -17q-140 0 -201 53t-61 158
q0 37 23 170l25 161l102 -22q-39 -234 -39 -284q0 -39 45 -54t106 -15q68 0 120 8t90 27l-43 373l128 26l5 -52l9 -92q4 -32 20.5 -43.5t55.5 -11.5q44 0 80 12l-9 182l115 4l4 -190q22 -8 50 -8q52 0 85 13l-25 225l128 22l14 -195q2 -24 9.5 -37.5t27 -20.5t57.5 -7h24
q3 0 6 -12.5zM807 801l95 -77l-77 -96l-96 77zM731 632l96 -77l-77 -96l-96 77zM890 632l96 -77l-77 -96l-96 77z" />
    <glyph glyph-name="uniFEB7" unicode="&#x634;" horiz-adv-x="787" arabic-form="initial" 
d="M720 173q0 -57 -23.5 -96t-62 -58t-82.5 -19q-50 0 -85 14t-52 49q-18 -36 -50.5 -49.5t-61.5 -13.5q-87 0 -122 64q-25 -37 -72 -50.5t-109 -13.5q-4 0 -6.5 11.5t-2.5 28.5v87q0 16 2.5 28t6.5 12q72 0 122 18v140h115l-1 -106q-1 -28 11.5 -40t38.5 -12q42 0 76 12
l-8 182l115 4l4 -190q18 -8 49 -8q53 0 85 13l-24 225l127 22q10 -143 10 -254zM375 793l95 -77l-77 -96l-96 77zM299 624l96 -77l-77 -96l-96 77zM458 624l96 -77l-77 -96l-96 77z" />
    <glyph glyph-name="uniFEB8" unicode="&#x634;" horiz-adv-x="842" arabic-form="medial" 
d="M848.5 155q2.5 -12 2.5 -28v-87q0 -17 -2.5 -28.5t-6.5 -11.5h-24q-42 0 -77.5 17t-51.5 49q-23 -33 -59.5 -49.5t-77.5 -16.5q-50 0 -85 14t-52 49q-18 -36 -50.5 -49.5t-61.5 -13.5q-87 0 -122 64q-25 -37 -72 -50.5t-109 -13.5q-4 0 -6.5 11.5t-2.5 28.5v87
q0 16 2.5 28t6.5 12q72 0 122 18v140h115l-1 -106q-1 -28 11.5 -40t38.5 -12q42 0 76 12l-8 182l115 4l4 -190q18 -8 49 -8q53 0 85 13l-24 225l127 22l14 -195q2 -24 9.5 -37.5t27 -20.5t57.5 -7h24q4 0 6.5 -12zM375 793l95 -77l-77 -96l-96 77zM299 624l96 -77l-77 -96
l-96 77zM458 624l96 -77l-77 -96l-96 77z" />
    <glyph glyph-name="uniFEBA" unicode="&#x635;" horiz-adv-x="1340" arabic-form="final" 
d="M1347 155q3 -12 3 -28v-87q0 -16 -3 -28t-7 -12q-67 0 -106 16t-63 55q-49 -34 -128 -52.5t-180 -18.5q-135 0 -213 34q3 -56 3 -100q0 -59 -54 -97t-129.5 -55t-140.5 -17q-140 0 -201 53t-61 158q0 37 23 170l25 161l102 -22q-39 -234 -39 -284q0 -39 45 -54t106 -15
q68 0 120 8t90 27l-43 373l128 26q10 -98 14 -153l2 -24q14 -5 34 -7q33 56 90 125t127.5 121t135.5 52q107 0 160.5 -66.5t53.5 -196.5q0 -19 -1 -28q10 -11 32.5 -16.5t67.5 -5.5q4 0 7 -12zM992.5 174q65.5 7 133.5 27q0 68 -25 103t-70 35q-49 0 -112.5 -45.5
t-128.5 -124.5q30 -2 61 -2q76 0 141.5 7z" />
    <glyph glyph-name="uniFEBB" unicode="&#x635;" horiz-adv-x="911" arabic-form="initial" 
d="M790.5 413.5q53.5 -66.5 53.5 -196.5q0 -76 -33 -113q-42 -50 -131.5 -77t-213.5 -27q-192 0 -270 70q-29 -38 -82.5 -54t-113.5 -16q-4 0 -6.5 11.5t-2.5 28.5v87q0 16 2.5 28t6.5 12q48 0 76.5 3t52.5 14l-4 172h115l-5 -162q6 -4 18 -7.5t24 -4.5q33 56 90 125
t127.5 121t135.5 52q107 0 160.5 -66.5zM595 174q65 7 134 27q0 68 -25 103t-70 35q-49 0 -112.5 -45.5t-129.5 -124.5q32 -2 62 -2q76 0 141 7z" />
    <glyph glyph-name="uniFEBC" unicode="&#x635;" horiz-adv-x="943" arabic-form="medial" 
d="M949.5 155q2.5 -12 2.5 -28v-87q0 -17 -2.5 -28.5t-6.5 -11.5q-68 0 -106.5 16t-62.5 55q-49 -35 -127.5 -53t-180.5 -18q-192 0 -270 70q-29 -38 -82.5 -54t-113.5 -16q-4 0 -6.5 11.5t-2.5 28.5v87q0 16 2.5 28t6.5 12q48 0 76.5 3t52.5 14l-4 172h115l-5 -162
q6 -4 18 -7.5t24 -4.5q33 56 90 125t127.5 121t135.5 52q107 0 160.5 -66.5t53.5 -196.5q0 -19 -1 -28q10 -11 32.5 -16.5t67.5 -5.5q4 0 6.5 -12zM595 174q65 7 134 27q0 68 -25 103t-70 35q-49 0 -112.5 -45.5t-129.5 -124.5q32 -2 62 -2q76 0 141 7z" />
    <glyph glyph-name="uniFEBE" unicode="&#x636;" horiz-adv-x="1340" arabic-form="final" 
d="M1347 155q3 -12 3 -28v-87q0 -16 -3 -28t-7 -12q-67 0 -106 16t-63 55q-49 -34 -128 -52.5t-180 -18.5q-135 0 -213 34q3 -56 3 -100q0 -59 -54 -97t-129.5 -55t-140.5 -17q-140 0 -201 53t-61 158q0 37 23 170l25 161l102 -22q-39 -234 -39 -284q0 -39 45 -54t106 -15
q68 0 120 8t90 27l-43 373l128 26q10 -98 14 -153l2 -24q14 -5 34 -7q33 56 90 125t127.5 121t135.5 52q107 0 160.5 -66.5t53.5 -196.5q0 -19 -1 -28q10 -11 32.5 -16.5t67.5 -5.5q4 0 7 -12zM992.5 174q65.5 7 133.5 27q0 68 -25 103t-70 35q-49 0 -112.5 -45.5
t-128.5 -124.5q30 -2 61 -2q76 0 141.5 7zM830 726l112 -90l-86 -104l-112 90z" />
    <glyph glyph-name="uniFEBF" unicode="&#x636;" horiz-adv-x="911" arabic-form="initial" 
d="M790.5 413.5q53.5 -66.5 53.5 -196.5q0 -76 -33 -113q-42 -50 -131.5 -77t-213.5 -27q-192 0 -270 70q-29 -38 -82.5 -54t-113.5 -16q-4 0 -6.5 11.5t-2.5 28.5v87q0 16 2.5 28t6.5 12q48 0 76.5 3t52.5 14l-4 172h115l-5 -162q6 -4 18 -7.5t24 -4.5q33 56 90 125
t127.5 121t135.5 52q107 0 160.5 -66.5zM595 174q65 7 134 27q0 68 -25 103t-70 35q-49 0 -112.5 -45.5t-129.5 -124.5q32 -2 62 -2q76 0 141 7zM433 726l112 -90l-86 -104l-112 90z" />
    <glyph glyph-name="uniFEC0" unicode="&#x636;" horiz-adv-x="943" arabic-form="medial" 
d="M949.5 155q2.5 -12 2.5 -28v-87q0 -17 -2.5 -28.5t-6.5 -11.5q-68 0 -106.5 16t-62.5 55q-49 -35 -127.5 -53t-180.5 -18q-192 0 -270 70q-29 -38 -82.5 -54t-113.5 -16q-4 0 -6.5 11.5t-2.5 28.5v87q0 16 2.5 28t6.5 12q48 0 76.5 3t52.5 14l-4 172h115l-5 -162
q6 -4 18 -7.5t24 -4.5q33 56 90 125t127.5 121t135.5 52q107 0 160.5 -66.5t53.5 -196.5q0 -19 -1 -28q10 -11 32.5 -16.5t67.5 -5.5q4 0 6.5 -12zM595 174q65 7 134 27q0 68 -25 103t-70 35q-49 0 -112.5 -45.5t-129.5 -124.5q32 -2 62 -2q76 0 141 7zM433 726l112 -90
l-86 -104l-112 90z" />
    <glyph glyph-name="uniFEC2" unicode="&#x637;" horiz-adv-x="820" arabic-form="final" 
d="M826.5 155q2.5 -12 2.5 -28v-87q0 -17 -2.5 -28.5t-6.5 -11.5q-67 0 -106 16t-63 55q-50 -34 -129 -52.5t-180 -18.5h-256l-32 167h92q20 27 35 51q7 11 9.5 28.5t2.5 61.5q0 41 -5 253q1 -21 -5 180l123 22l2 -319q0 -23 -1 -43t-5 -35q114 114 204 114
q107 0 160.5 -66.5t53.5 -196.5q0 -18 -1 -27q10 -11 32.5 -17t68.5 -6q4 0 6.5 -12zM471.5 174q64.5 7 133.5 27q0 68 -25 103t-69 35q-50 0 -113.5 -46t-129.5 -126h63q76 0 140.5 7z" />
    <glyph glyph-name="uniFEC3" unicode="&#x637;" horiz-adv-x="733" arabic-form="initial" 
d="M612.5 413.5q53.5 -66.5 53.5 -196.5q0 -76 -33 -113q-42 -50 -131.5 -77t-213.5 -27h-288q-4 0 -6.5 11.5t-2.5 28.5v87q0 16 2.5 28t6.5 12h92q5 7 16 22.5t18 28.5q7 10 9.5 28t2.5 66q0 75 -9 429l123 22l2 -319q0 -52 -6 -78q114 114 204 114q107 0 160.5 -66.5z
M417.5 174q65.5 7 133.5 27q0 68 -25 103t-70 35q-49 0 -113 -46t-129 -126h62q76 0 141.5 7z" />
    <glyph glyph-name="uniFEC4" unicode="&#x637;" horiz-adv-x="766" arabic-form="medial" 
d="M772 154.5q3 -12.5 3 -27.5v-87q0 -16 -3 -28t-6 -12q-67 0 -106 16t-63 55q-49 -34 -128.5 -52.5t-180.5 -18.5h-288q-4 0 -6.5 11.5t-2.5 28.5v87q0 16 2.5 28t6.5 12h92q5 7 16 22.5t18 28.5q7 10 9.5 28t2.5 66q0 75 -9 429l123 22l2 -319q0 -52 -6 -78
q114 114 204 114q107 0 160.5 -66.5t53.5 -196.5q0 -18 -1 -27q10 -11 32.5 -17t68.5 -6q3 0 6 -12.5zM417.5 174q65.5 7 133.5 27q0 68 -25 103t-70 35q-49 0 -113 -46t-129 -126h62q76 0 141.5 7z" />
    <glyph glyph-name="uniFEC6" unicode="&#x638;" horiz-adv-x="820" arabic-form="final" 
d="M826.5 155q2.5 -12 2.5 -28v-87q0 -17 -2.5 -28.5t-6.5 -11.5q-67 0 -106 16t-63 55q-50 -34 -129 -52.5t-180 -18.5h-256l-32 167h92q20 27 35 51q7 11 9.5 28.5t2.5 61.5q0 41 -5 253q1 -21 -5 180l123 22l2 -319q0 -23 -1 -43t-5 -35q114 114 204 114
q107 0 160.5 -66.5t53.5 -196.5q0 -18 -1 -27q10 -11 32.5 -17t68.5 -6q4 0 6.5 -12zM471.5 174q64.5 7 133.5 27q0 68 -25 103t-69 35q-50 0 -113.5 -46t-129.5 -126h63q76 0 140.5 7zM511 777l112 -90l-86 -104l-112 90z" />
    <glyph glyph-name="uniFEC7" unicode="&#x638;" horiz-adv-x="733" arabic-form="initial" 
d="M612.5 413.5q53.5 -66.5 53.5 -196.5q0 -76 -33 -113q-42 -50 -131.5 -77t-213.5 -27h-288q-4 0 -6.5 11.5t-2.5 28.5v87q0 16 2.5 28t6.5 12h92q5 7 16 22.5t18 28.5q7 10 9.5 28t2.5 66q0 75 -9 429l123 22l2 -319q0 -52 -6 -78q114 114 204 114q107 0 160.5 -66.5z
M417.5 174q65.5 7 133.5 27q0 68 -25 103t-70 35q-49 0 -113 -46t-129 -126h62q76 0 141.5 7zM456 768l112 -90l-86 -104l-112 90z" />
    <glyph glyph-name="uniFEC8" unicode="&#x638;" horiz-adv-x="766" arabic-form="medial" 
d="M772 154.5q3 -12.5 3 -27.5v-87q0 -16 -3 -28t-6 -12q-67 0 -106 16t-63 55q-49 -34 -128.5 -52.5t-180.5 -18.5h-288q-4 0 -6.5 11.5t-2.5 28.5v87q0 16 2.5 28t6.5 12h92q5 7 16 22.5t18 28.5q7 10 9.5 28t2.5 66q0 75 -9 429l123 22l2 -319q0 -52 -6 -78
q114 114 204 114q107 0 160.5 -66.5t53.5 -196.5q0 -18 -1 -27q10 -11 32.5 -17t68.5 -6q3 0 6 -12.5zM417.5 174q65.5 7 133.5 27q0 68 -25 103t-70 35q-49 0 -113 -46t-129 -126h62q76 0 141.5 7zM457 768l112 -90l-86 -104l-112 90z" />
    <glyph glyph-name="uniFECA" unicode="&#x639;" horiz-adv-x="664" arabic-form="final" 
d="M671 155q3 -12 3 -28v-87q0 -16 -3 -28t-7 -12h-154q-63 0 -102 20t-65 56q-100 -43 -150 -96q-11 -32 -11 -66q0 -85 47.5 -124t149.5 -39q123 0 241 39l-26 -167q-52 -21 -103.5 -30t-111.5 -9q-95 0 -165.5 36t-108.5 102t-38 154q0 86 40.5 163t114.5 128
q-32 56 -53 90.5t-29 43.5t-14 8l-26 -4l5 133q145 24 274 24q101 0 144 -24.5t43 -84.5v-36q0 -22 -25.5 -69t-52.5 -78q42 -3 53 -3h123q4 0 7 -12zM407 236.5q36 39.5 45 72.5q-10 5 -34 8.5t-56 3.5q-74 0 -114 -8q8 -4 18 -16.5t37 -51.5l38 -56q30 8 66 47.5z" />
    <glyph glyph-name="uniFECB" unicode="&#x639;" horiz-adv-x="547" arabic-form="initial" 
d="M480 59q-109 -28 -160.5 -39t-106.5 -15.5t-149 -4.5h-64q-4 0 -6.5 11.5t-2.5 28.5v87q0 16 2.5 28t6.5 12h125q-13 25 -18.5 51t-5.5 60q0 79 55 124t144 45q40 0 114 -19l-31 -132q-50 10 -96 10q-41 0 -71 -11q0 -62 28 -123q57 7 119.5 19t76.5 15l35 7z" />
    <glyph glyph-name="uniFECC" unicode="&#x639;" horiz-adv-x="575" arabic-form="medial" 
d="M581.5 155q2.5 -12 2.5 -28v-87q0 -17 -2.5 -28.5t-6.5 -11.5h-117q-62 0 -101 18.5t-64 53.5q-58 -72 -176 -72h-117q-4 0 -6.5 11.5t-2.5 28.5v87q0 16 2.5 28t6.5 12h128q25 0 45 -3q-31 54 -52 87t-29 41.5t-14 7.5l-25 -3l5 133q145 24 274 24q100 0 143.5 -24.5
t43.5 -84.5v-36q0 -21 -24 -67t-51 -77q24 2 45 2h86q4 0 6.5 -12zM360 228.5q36 39.5 45 72.5q-10 5 -34 8.5t-56 3.5q-74 0 -114 -8q8 -4 18 -16.5t37 -51.5l38 -56q30 8 66 47.5z" />
    <glyph glyph-name="uniFECE" unicode="&#x63a;" horiz-adv-x="664" arabic-form="final" 
d="M671 155q3 -12 3 -28v-87q0 -16 -3 -28t-7 -12h-154q-63 0 -102 20t-65 56q-100 -43 -150 -96q-11 -32 -11 -66q0 -85 47.5 -124t149.5 -39q123 0 241 39l-26 -167q-52 -21 -103.5 -30t-111.5 -9q-95 0 -165.5 36t-108.5 102t-38 154q0 86 40.5 163t114.5 128
q-32 56 -53 90.5t-29 43.5t-14 8l-26 -4l5 133q145 24 274 24q101 0 144 -24.5t43 -84.5v-36q0 -22 -25.5 -69t-52.5 -78q42 -3 53 -3h123q4 0 7 -12zM407 236.5q36 39.5 45 72.5q-10 5 -34 8.5t-56 3.5q-74 0 -114 -8q8 -4 18 -16.5t37 -51.5l38 -56q30 8 66 47.5zM316 750
l112 -90l-86 -104l-112 90z" />
    <glyph glyph-name="uniFECF" unicode="&#x63a;" horiz-adv-x="547" arabic-form="initial" 
d="M480 59q-109 -28 -160.5 -39t-106.5 -15.5t-149 -4.5h-64q-4 0 -6.5 11.5t-2.5 28.5v87q0 16 2.5 28t6.5 12h125q-13 25 -18.5 51t-5.5 60q0 79 55 124t144 45q40 0 114 -19l-31 -132q-50 10 -96 10q-41 0 -71 -11q0 -62 28 -123q57 7 119.5 19t76.5 15l35 7zM231 736
l112 -90l-86 -104l-112 90z" />
    <glyph glyph-name="uniFED0" unicode="&#x63a;" horiz-adv-x="575" arabic-form="medial" 
d="M581.5 155q2.5 -12 2.5 -28v-87q0 -17 -2.5 -28.5t-6.5 -11.5h-117q-62 0 -101 18.5t-64 53.5q-58 -72 -176 -72h-117q-4 0 -6.5 11.5t-2.5 28.5v87q0 16 2.5 28t6.5 12h128q25 0 45 -3q-31 54 -52 87t-29 41.5t-14 7.5l-25 -3l5 133q145 24 274 24q100 0 143.5 -24.5
t43.5 -84.5v-36q0 -21 -24 -67t-51 -77q24 2 45 2h86q4 0 6.5 -12zM360 228.5q36 39.5 45 72.5q-10 5 -34 8.5t-56 3.5q-74 0 -114 -8q8 -4 18 -16.5t37 -51.5l38 -56q30 8 66 47.5zM269 742l112 -90l-86 -104l-112 90z" />
    <glyph glyph-name="uniFED2" unicode="&#x641;" horiz-adv-x="976" arabic-form="final" 
d="M982.5 155q2.5 -12 2.5 -28v-87q0 -17 -2.5 -28.5t-6.5 -11.5h-84q-51 0 -91 12t-75 49q-22 -23 -48 -33q-48 -16 -110 -24.5t-150 -8.5q-112 0 -188 17t-119.5 63.5t-43.5 129.5q0 21 8 72t25 150l102 -22q-24 -136 -24 -170q0 -30 20 -45.5t68.5 -21.5t143.5 -6
q114 0 171 3q-15 12 -24 31.5t-9 43.5q0 35 30.5 92t76.5 99t89 42q45 0 84.5 -32.5t63 -85.5t23.5 -112q0 -30 -7 -48t-30 -31q22 3 56 3h42q4 0 6.5 -12zM805 229q0 38 -20 70.5t-46 32.5q-17 0 -37.5 -13.5t-34.5 -33.5t-14 -40q0 -18 22.5 -37t59.5 -32zM722 761
l112 -90l-86 -104l-112 90z" />
    <glyph glyph-name="uniFED3" unicode="&#x641;" horiz-adv-x="488" arabic-form="initial" 
d="M415 180q-7 -58 -25.5 -93t-53.5 -54q-28 -16 -63 -22.5t-92.5 -8.5t-180.5 -2q-4 0 -6.5 11.5t-2.5 28.5v87q0 16 2.5 28t6.5 12q163 0 223 1.5t82 7.5l4 52q-45 -8 -103 -8q-43 0 -65 3.5t-37.5 14t-31.5 33.5q-17 23 -22.5 38.5t-5.5 41.5q0 73 20.5 135.5t63.5 100.5
t107 38q58 0 100 -39t64 -105.5t22 -146.5q1 -96 -6 -154zM231 357q49 0 79 6q0 62 -23 93.5t-61 31.5q-33 0 -54 -32t-21 -92q47 -7 80 -7zM205 914l112 -90l-86 -104l-112 90z" />
    <glyph glyph-name="uniFED4" unicode="&#x641;" horiz-adv-x="487" arabic-form="medial" 
d="M494 155q3 -12 3 -28v-87q0 -16 -3 -28t-7 -12h-83q-52 0 -92 12.5t-76 49.5q-34 -35 -76 -48.5t-99 -13.5h-61q-4 0 -6.5 11.5t-2.5 28.5v87q0 16 2.5 28t6.5 12h39h25q6 0 12.5 0.5t13.5 -0.5q-14 12 -22.5 31.5t-8.5 41.5q0 35 31 92t76.5 99t88.5 42q45 0 85 -32.5
t63.5 -85.5t23.5 -112q0 -30 -7 -48t-30 -31q21 3 55 3h42q4 0 7 -12zM317 229q0 38 -20 70.5t-47 32.5q-17 0 -37 -13.5t-34 -33.5t-14 -40q0 -18 22 -37.5t59 -31.5zM234 761l112 -90l-86 -104l-112 90z" />
    <glyph glyph-name="uniFED6" unicode="&#x642;" horiz-adv-x="844" arabic-form="final" 
d="M850.5 155q2.5 -12 2.5 -28v-87q0 -17 -2.5 -28.5t-6.5 -11.5h-125q-5 -66 -17 -105.5t-36 -63.5q-49 -53 -146.5 -74.5t-190.5 -21.5q-140 0 -201 53t-61 159q0 36 23 171l25 159l102 -22q-39 -234 -39 -283q0 -40 45 -55t106 -15q78 0 145 10t131 37q1 7 5 60
q-42 -9 -103 -9q-44 0 -66 3.5t-37 14t-32 33.5t-22 38.5t-5 40.5q0 74 20.5 136.5t63.5 100.5t107 38q76 0 124 -66.5t59 -171.5h125q4 0 6.5 -12zM532 137q49 0 79 6q0 62 -23 93.5t-61 31.5q-34 0 -55 -32.5t-21 -91.5q47 -7 81 -7zM426 681l100 -81l-81 -100l-100 81z
M593 681l100 -81l-81 -100l-100 81z" />
    <glyph glyph-name="uniFED7" unicode="&#x642;" horiz-adv-x="488" arabic-form="initial" 
d="M415 180q-7 -58 -25.5 -93t-53.5 -54q-28 -16 -63 -22.5t-92.5 -8.5t-180.5 -2q-4 0 -6.5 11.5t-2.5 28.5v87q0 16 2.5 28t6.5 12q163 0 223 1.5t82 7.5l4 52q-45 -8 -103 -8q-43 0 -65 3.5t-37.5 14t-31.5 33.5q-17 23 -22.5 38.5t-5.5 41.5q0 73 20.5 135.5t63.5 100.5
t107 38q58 0 100 -39t64 -105.5t22 -146.5q1 -96 -6 -154zM231 357q49 0 79 6q0 62 -23 93.5t-61 31.5q-33 0 -54 -32t-21 -92q47 -7 80 -7zM125 901l100 -81l-81 -100l-100 81zM292 901l100 -81l-81 -100l-100 81z" />
    <glyph glyph-name="uniFED8" unicode="&#x642;" horiz-adv-x="487" arabic-form="medial" 
d="M494 155q3 -12 3 -28v-87q0 -16 -3 -28t-7 -12h-83q-52 0 -92 12.5t-76 49.5q-34 -35 -76 -48.5t-99 -13.5h-61q-4 0 -6.5 11.5t-2.5 28.5v87q0 16 2.5 28t6.5 12h39h25q6 0 12.5 0.5t13.5 -0.5q-14 12 -22.5 31.5t-8.5 41.5q0 35 31 92t76.5 99t88.5 42q45 0 85 -32.5
t63.5 -85.5t23.5 -112q0 -30 -7 -48t-30 -31q21 3 55 3h42q4 0 7 -12zM317 229q0 38 -20 70.5t-47 32.5q-17 0 -37 -13.5t-34 -33.5t-14 -40q0 -18 22 -37.5t59 -31.5zM154 748l100 -81l-81 -100l-100 81zM321 748l100 -81l-81 -100l-100 81z" />
    <glyph glyph-name="uniFEDA" unicode="&#x643;" horiz-adv-x="904" arabic-form="final" 
d="M910.5 155q2.5 -12 2.5 -28v-87q0 -17 -2.5 -28.5t-6.5 -11.5h-30q-60 0 -99 19t-61 68q-14 -49 -102 -70.5t-194 -21.5q-112 0 -188 17t-119.5 63.5t-43.5 129.5q0 21 8 72t25 150l102 -22q-24 -136 -24 -170q0 -30 20 -45.5t68.5 -21.5t143.5 -6q143 0 249 28l-21 551
l132 22l4 -513q0 -38 20.5 -60.5t62.5 -22.5h47q4 0 6.5 -12zM467.5 353q-56.5 -37 -156.5 -37l9 94q100 0 141 32q0 8 -10.5 11.5t-32.5 6.5q-37 5 -59 16t-22 39q0 35 16.5 79t43.5 74.5t58 30.5q25 0 44.5 -14.5t42.5 -51.5l-41 -40q-24 25 -46 25q-20 0 -33.5 -20.5
t-21.5 -51.5q47 -6 70.5 -12.5t38 -25t14.5 -56.5q1 -62 -55.5 -99z" />
    <glyph glyph-name="uniFEDB" unicode="&#x643;" horiz-adv-x="448" arabic-form="initial" 
d="M334.5 352q44.5 -95 44.5 -190q0 -61 -40.5 -96.5t-122.5 -50.5t-216 -15q-4 0 -6.5 11.5t-2.5 28.5v87q0 16 2.5 28t6.5 12q175 0 264 18q-10 77 -75.5 160t-173.5 149l5 134q88 41 176.5 73t192.5 62l18 -137q-123 -31 -237 -76q22 -17 26 -20q94 -83 138.5 -178z" />
    <glyph glyph-name="uniFEDC" unicode="&#x643;" horiz-adv-x="503" arabic-form="medial" 
d="M510 155q3 -12 3 -28v-87q0 -16 -3 -28t-7 -12h-26q-57 0 -91.5 17.5t-50.5 45.5q-40 -34 -121.5 -48.5t-213.5 -14.5q-4 0 -6.5 11.5t-2.5 28.5v87q0 16 2.5 28t6.5 12q175 0 264 18q-10 77 -75.5 160t-173.5 149l5 134q88 41 176.5 73t192.5 62l18 -137
q-123 -31 -237 -76q22 -17 26 -20q81 -71 125 -152t55 -164q8 -23 27.5 -35t56.5 -12h43q4 0 7 -12z" />
    <glyph glyph-name="uniFEDE" unicode="&#x644;" horiz-adv-x="792" arabic-form="final" 
d="M798 154.5q3 -12.5 3 -27.5v-87q0 -16 -3 -28t-6 -12h-26q-74 0 -117 53l2 -119q1 -59 -52.5 -97t-129.5 -55t-140 -17q-140 0 -201 53t-61 158q0 37 23 170l25 161l102 -22q-39 -234 -39 -284q0 -39 45 -54t106 -15q68 0 119 8t89 27l-33 774l132 22l10 -535
q6 -29 19.5 -42t30 -16t42.5 -3h54q3 0 6 -12.5z" />
    <glyph glyph-name="uniFEDF" unicode="&#x644;" horiz-adv-x="357" arabic-form="initial" 
d="M272 104q-15 -34 -48 -56q-71 -48 -224 -48q-4 0 -6.5 11.5t-2.5 28.5v87q0 16 2.5 28t6.5 12q61 0 102.5 5t71.5 20l-30 549l132 22l10 -588q1 -37 -14 -71z" />
    <glyph glyph-name="uniFEE0" unicode="&#x644;" horiz-adv-x="460" arabic-form="medial" 
d="M467 155q3 -12 3 -28v-87q0 -16 -3 -28t-7 -12q-94 0 -143.5 18.5t-63.5 62.5q-33 -47 -93 -64t-160 -17q-4 0 -6.5 11.5t-2.5 28.5v87q0 16 2.5 28t6.5 12q138 0 193 20l-23 554l132 22l3 -519q0 -34 22.5 -55.5t63.5 -21.5h69q4 0 7 -12z" />
    <glyph glyph-name="uniFEE2" unicode="&#x645;" horiz-adv-x="640" arabic-form="final" 
d="M646.5 155q2.5 -12 2.5 -28v-87q0 -17 -2.5 -28.5t-6.5 -11.5q-47 0 -89 17.5t-64 54.5l-5 -31q-3 -18 -12 -30.5t-35 -33.5q-34 -26 -54 -26q-13 0 -23 5l-174 83q3 -50 14 -108.5t34 -160.5q6 -22 16 -68l-149 -53q-32 189 -32 325q0 118 25 176q56 130 115 188t131 58
q99 0 144 -130q12 -37 26 -57t44.5 -31t87.5 -11q4 0 6.5 -12zM385 162q0 43 -16 70t-48 27q-26 0 -44.5 -18t-47.5 -65l148 -68q8 20 8 54z" />
    <glyph glyph-name="uniFEE3" unicode="&#x645;" horiz-adv-x="542" arabic-form="initial" 
d="M409.5 363.5q36.5 -32.5 56 -88.5t19.5 -125q0 -57 -15 -113q-3 -14 -13.5 -27.5t-36.5 -32.5q-17 -14 -30 -20t-25 -6q-9 0 -22 5l-187 83q-21 -20 -53.5 -29.5t-81.5 -9.5h-21q-4 0 -6.5 11.5t-2.5 28.5v87q0 16 2.5 28t6.5 12h35q33 0 48.5 4t23.5 15t20 37
q40 93 84 133t112 40q50 0 86.5 -32.5zM370 157q0 43 -16 70t-48 27q-27 0 -44.5 -17.5t-47.5 -65.5l149 -68q7 21 7 54z" />
    <glyph glyph-name="uniFEE4" unicode="&#x645;" horiz-adv-x="625" arabic-form="medial" 
d="M632 155q3 -12 3 -28v-87q0 -16 -3 -28t-7 -12q-47 0 -89 17.5t-64 54.5l-5 -31q-3 -18 -12 -31t-35 -33q-17 -14 -30 -20t-25 -6t-22 5l-187 83q-21 -20 -53.5 -29.5t-81.5 -9.5h-21q-4 0 -6.5 11.5t-2.5 28.5v87q0 16 2.5 28t6.5 12h35q33 0 48.5 4t23.5 15t20 37
q40 93 84 133t112 40q98 0 144 -130q12 -37 26 -57t44.5 -31t87.5 -11q4 0 7 -12zM370 157q0 43 -16 70t-48 27q-27 0 -44.5 -17.5t-47.5 -65.5l149 -68q7 21 7 54z" />
    <glyph glyph-name="uniFEE6" unicode="&#x646;" horiz-adv-x="794" arabic-form="final" 
d="M801 155q3 -12 3 -28v-87q0 -16 -3 -28t-7 -12h-13q-42 0 -76.5 17.5t-56.5 57.5q5 -90 5 -141q0 -59 -54 -97t-129.5 -55t-140.5 -17q-140 0 -201 53t-61 158q0 37 23 170l25 161l102 -22q-39 -234 -39 -284q0 -39 45 -54t106 -15q68 0 120 8t90 27l-43 373l128 26
l15 -123q4 -37 18 -53t39.5 -19.5t84.5 -3.5h13q4 0 7 -12zM331 586l112 -90l-86 -104l-112 90z" />
    <glyph glyph-name="uniFEE7" unicode="&#x646;" horiz-adv-x="353" arabic-form="initial" 
d="M286 175q0 -38 -15 -71.5t-47 -55.5q-71 -48 -224 -48q-4 0 -6.5 11.5t-2.5 28.5v87q0 16 2.5 28t6.5 12q60 0 101 5t71 19l-24 214l128 22q10 -154 10 -252zM183 714l112 -90l-86 -104l-112 90z" />
    <glyph glyph-name="uniFEE8" unicode="&#x646;" horiz-adv-x="383" arabic-form="medial" 
d="M389.5 155q2.5 -12 2.5 -28v-87q0 -17 -2.5 -28.5t-6.5 -11.5q-87 0 -128 17.5t-54 58.5q-20 -42 -65 -59t-136 -17q-4 0 -6.5 11.5t-2.5 28.5v87q0 16 2.5 28t6.5 12q98 0 144 24l-22 179l127 14l9 -199q44 -18 125 -18q4 0 6.5 -12zM165 671l112 -90l-86 -104l-112 90z
" />
    <glyph glyph-name="uniFEEA" unicode="&#x647;" horiz-adv-x="539" arabic-form="final" 
d="M545.5 155q2.5 -12 2.5 -28v-87q0 -17 -2.5 -28.5t-6.5 -11.5h-52q-50 0 -86 24.5t-50 64.5l-5 -12q-12 -28 -45.5 -37t-97.5 -9t-100 30.5t-36 90.5q0 73 19.5 120.5t65 84t129.5 73.5l-10 73l120 35l28 -272q4 -37 10 -57t22 -31t49 -11h39q4 0 6.5 -12zM318 200
l-16 111q-119 -45 -133 -122q23 -8 51 -8q41 0 98 19z" />
    <glyph glyph-name="uniFEEB" unicode="&#x647;" horiz-adv-x="655" arabic-form="initial" 
d="M559 322q34 -51 34 -120q0 -80 -29 -138q-7 -13 -18.5 -25t-31.5 -26q-18 -11 -29 -16t-21 -5q-7 0 -15 3l-142 55q-22 -26 -97 -38t-210 -12q-4 0 -6.5 11.5t-2.5 28.5v87q0 16 2.5 28t6.5 12h52l85 1q-24 13 -39.5 36t-15.5 49q0 63 64 140l-43 21l57 123l298 -133
q67 -31 101 -82zM324 312l-85 37q-51 -51 -51 -86q0 -22 27.5 -37t67.5 -17zM485.5 158q4.5 15 4.5 26q0 28 -19.5 52.5t-61.5 39.5l-45 -102l109 -43q8 12 12.5 27z" />
    <glyph glyph-name="uniFEEC" unicode="&#x647;" horiz-adv-x="529" arabic-form="medial" 
d="M536 155q3 -12 3 -28v-87q0 -16 -3 -28t-7 -12q-86 0 -116 5q11 -10 16 -28t5 -38v-65q0 -37 -36 -68q-23 -20 -40 -28t-37 -8q-113 0 -170 58.5t-85 171.5h-66q-4 0 -6.5 11.5t-2.5 28.5v87q0 16 2.5 28t6.5 12h91q16 71 48.5 132.5t76 98.5t90.5 37h81l6 -268h136
q4 0 7 -12zM223.5 249.5q-27.5 -52.5 -38.5 -108.5h49q43 0 57 -5l-6 183q-34 -17 -61.5 -69.5zM328 -61q0 43 -21.5 62.5t-73.5 19.5h-57q10 -64 47.5 -92.5t104.5 -26.5v37z" />
    <glyph glyph-name="uniFEEE" unicode="&#x648;" horiz-adv-x="502" arabic-form="final" 
d="M508 154.5q3 -12.5 3 -27.5v-87q0 -16 -3 -28t-6 -12h-83q-25 -99 -98.5 -179.5t-204.5 -133.5l-87 127q91 32 162.5 84.5t107.5 106.5q-40 -5 -80 -5q-44 0 -66 3.5t-37 14t-32 33.5q-17 24 -22.5 39t-5.5 41q0 73 21 135.5t64 100.5t107 38q76 0 124 -66.5t58 -171.5
h72q3 0 6 -12.5zM244 137q49 0 79 6q0 62 -23 93.5t-61 31.5q-34 0 -55 -32.5t-21 -91.5q47 -7 81 -7z" />
    <glyph glyph-name="uniFEF0" unicode="&#x649;" horiz-adv-x="732" arabic-form="final" 
d="M739 155q3 -12 3 -28v-87q0 -16 -3 -28t-7 -12h-40q1 -5 1 -17q0 -82 -49.5 -137.5t-132 -82.5t-182.5 -27q-140 0 -201 53t-61 159q0 36 23 171l25 159l102 -22q-39 -234 -39 -283q0 -39 45.5 -54.5t105.5 -15.5q94 0 156 12.5t100 41.5q2 27 -23 35t-86 8h-51l28 167
h279q4 0 7 -12z" />
    <glyph glyph-name="uniFEF2" unicode="&#x64a;" horiz-adv-x="732" arabic-form="final" 
d="M739 155q3 -12 3 -28v-87q0 -16 -3 -28t-7 -12h-40q1 -5 1 -17q0 -82 -49.5 -137.5t-132 -82.5t-182.5 -27q-140 0 -201 53t-61 159q0 36 23 171l25 159l102 -22q-39 -234 -39 -283q0 -39 45.5 -54.5t105.5 -15.5q94 0 156 12.5t100 41.5q2 27 -23 35t-86 8h-51l28 167
h279q4 0 7 -12zM236 -358l100 -81l-81 -100l-100 81zM403 -358l100 -81l-81 -100l-100 81z" />
    <glyph glyph-name="uniFEF3" unicode="&#x64a;" horiz-adv-x="353" arabic-form="initial" 
d="M286 175q0 -38 -15 -71.5t-47 -55.5q-71 -48 -224 -48q-4 0 -6.5 11.5t-2.5 28.5v87q0 16 2.5 28t6.5 12q60 0 101 5t71 19l-24 214l128 22q10 -154 10 -252zM7 -94l100 -81l-81 -100l-100 81zM174 -94l100 -81l-81 -100l-100 81z" />
    <glyph glyph-name="uniFEF4" unicode="&#x64a;" horiz-adv-x="383" arabic-form="medial" 
d="M389.5 155q2.5 -12 2.5 -28v-87q0 -17 -2.5 -28.5t-6.5 -11.5q-87 0 -128 17.5t-54 58.5q-20 -42 -65 -59t-136 -17q-4 0 -6.5 11.5t-2.5 28.5v87q0 16 2.5 28t6.5 12q98 0 144 24l-22 179l127 14l9 -199q44 -18 125 -18q4 0 6.5 -12zM76 -94l100 -81l-81 -100l-100 81z
M243 -94l100 -81l-81 -100l-100 81z" />
    <glyph glyph-name=".notdef" horiz-adv-x="785" 
d="M643 1069v-1569h-497v1569h497zM522 964h-258v-52h102v-58h-104v-52h260v52h-103v58h103v52zM419 761h-157v-163h260v54h-103v109zM366 708v-56h-52v56h52zM522 556h-260v-52h104v-58h-104v-52h157v110h103v52zM522 462h-51v-104h-209v-53h260v157zM522 270h-156v-87h53
v36h52v-74h-157v125h-52v-177h260v177zM522 -1h-260v-177h260v177zM471 -53v-74h-157v74h157zM522 -214h-260v-52h110l-110 -74v-52h260v52h-160l110 74h50v52z" />
    <glyph glyph-name=".null" 
 />
    <glyph glyph-name="nonmarkingreturn" horiz-adv-x="333" 
 />
    <glyph glyph-name="space" unicode=" " horiz-adv-x="155" 
 />
    <glyph glyph-name="exclam" unicode="!" horiz-adv-x="341" 
d="M226 764l1 -496l-111 -17l-21 489zM103 13.5q-28 27.5 -28 68.5t28 68.5t68 27.5q41 0 68.5 -28t27.5 -68q0 -41 -28 -68.5t-68 -27.5t-68 27.5z" />
    <glyph glyph-name="quotedbl" unicode="&#x22;" horiz-adv-x="552" 
d="M193 403h-75l-29 205l-5 133h143l-5 -133zM434 403h-76l-29 205l-4 133h142l-5 -133z" />
    <glyph glyph-name="numbersign" unicode="#" horiz-adv-x="563" 
d="M96 1l25 209h-83v95h94l16 129h-88v97h101l22 185h87l-23 -185h121l24 185h86l-22 -185h86v-97h-98l-16 -129h92v-95h-103l-26 -209h-88l26 209h-120l-25 -209h-88zM220 305h119l17 129h-121z" />
    <glyph glyph-name="dollar" unicode="$" horiz-adv-x="573" 
d="M238 -117v110q-51 6 -103 27.5t-90 55.5l66 102q42 -33 81 -49t79 -16q48 0 71 20.5t23 61.5q0 29 -19 50t-56 43q-34 19 -71 37q-87 42 -125 102q-22 36 -22 85q0 79 44 132t122 67v114h100v-111q92 -13 163 -89l-76 -86q-32 29 -59.5 42.5t-62.5 13.5q-87 0 -87 -76
q0 -26 19.5 -45.5t57.5 -38.5l83 -43q66 -33 99.5 -78.5t33.5 -107.5q0 -81 -44 -136.5t-127 -71.5v-115h-100z" />
    <glyph glyph-name="percent" unicode="%" horiz-adv-x="912" 
d="M76 369q-45 62 -45 159q0 98 45 158.5t124 60.5q81 0 126 -61.5t45 -157.5q0 -97 -45 -159t-126 -62q-79 0 -124 62zM313 -12h-94l389 744h94zM254 428q16 40 16 100q0 62 -16 100.5t-54 38.5q-36 0 -52.5 -38.5t-16.5 -100.5q0 -63 16.5 -101.5t52.5 -38.5q38 0 54 40z
M589 50q-45 62 -45 159t45 157.5t124 60.5q81 0 126 -61t45 -157q0 -97 -45 -159t-126 -62q-79 0 -124 62zM767 108.5q16 40.5 16 100.5q0 61 -16.5 100t-53.5 39q-36 0 -53 -39t-17 -100q0 -63 17 -102t53 -39q38 0 54 40.5z" />
    <glyph glyph-name="ampersand" unicode="&#x26;" horiz-adv-x="724" 
d="M143.5 13.5q-53.5 25.5 -83.5 71.5t-30 107q0 64 34 112t99 91q-46 89 -46 152q0 53 24.5 95t68.5 65.5t98 23.5q79 0 124.5 -42.5t45.5 -115.5q0 -43 -19 -77.5t-50.5 -63t-82.5 -64.5q62 -77 151 -144q59 76 86 179h137q-41 -138 -120 -244q76 -41 125 -49l-36 -122
q-85 19 -180 75q-103 -75 -224 -75q-68 0 -121.5 25.5zM267 454q48 30 72.5 56.5t24.5 61.5q0 29 -13.5 45t-39.5 16q-30 0 -50 -23t-20 -62q0 -40 26 -94zM382 136q-84 70 -154 161q-28 -24 -42.5 -46.5t-14.5 -49.5q0 -44 31.5 -71.5t82.5 -27.5q46 0 97 34z" />
    <glyph glyph-name="quotesingle" unicode="'" horiz-adv-x="311" 
d="M193 403h-75l-29 205l-5 133h143l-5 -133z" />
    <glyph glyph-name="parenleft" unicode="(" horiz-adv-x="382" 
d="M119 51q-38 122 -38 259t37.5 259t111.5 239l99 -51q-61 -103 -92 -216.5t-31 -230.5q0 -116 31 -229.5t92 -216.5l-99 -50q-73 115 -111 237z" />
    <glyph glyph-name="parenright" unicode=")" horiz-adv-x="382" 
d="M147 78.5q30 113.5 30 231.5q0 119 -30 232.5t-92 214.5l98 51q74 -117 112 -239t38 -259t-38 -259t-112 -237l-98 50q62 101 92 214.5z" />
    <glyph glyph-name="asterisk" unicode="*" horiz-adv-x="501" 
d="M264 482l-72 -87l-101 73l58 95l-97 42l36 116l104 -25l10 110h121l9 -110l106 25l39 -116l-100 -41l57 -96l-98 -73z" />
    <glyph glyph-name="plus" unicode="+" horiz-adv-x="565" 
d="M242 -2v192h-192v106h192v192h106v-192h191v-106h-191v-192h-106z" />
    <glyph glyph-name="comma" unicode="," horiz-adv-x="319" 
d="M140.5 -58.5q30.5 33.5 29.5 73.5h-9q-38 0 -64.5 23.5t-26.5 62.5t27 63.5t68 24.5q51 0 77.5 -37.5t26.5 -106.5q0 -87 -48 -149t-138 -90l-31 80q58 22 88.5 55.5z" />
    <glyph glyph-name="hyphen" unicode="-" horiz-adv-x="359" 
d="M314 217h-268v106h268v-106z" />
    <glyph glyph-name="period" unicode="." horiz-adv-x="375" 
d="M119.5 13.5q-29.5 28.5 -29.5 71.5q0 42 28.5 71t71.5 29q42 0 70.5 -29t28.5 -71t-28.5 -71t-70.5 -29q-41 0 -70.5 28.5z" />
    <glyph glyph-name="slash" unicode="/" horiz-adv-x="373" 
d="M114 -170h-99l232 957h99z" />
    <glyph glyph-name="zero" unicode="0" horiz-adv-x="528" 
d="M158.5 84q-47.5 27 -74.5 74.5t-27 105.5t27 105.5t74.5 75t105.5 27.5t105.5 -27.5t75 -75t27.5 -105.5t-27.5 -105.5t-75 -74.5t-105.5 -27t-105.5 27zM324 205q24 24 24 59q0 36 -24 59.5t-60 23.5t-60 -23.5t-24 -59.5q0 -35 24 -59t60 -24t60 24z" />
    <glyph glyph-name="one" unicode="1" horiz-adv-x="281" 
d="M211.5 380.5q12.5 -177.5 12.5 -380.5l-105 -9q0 183 -19 355t-58 361l127 26q30 -175 42.5 -352.5z" />
    <glyph glyph-name="two" unicode="2" horiz-adv-x="559" 
d="M449.5 401.5q-56.5 -45.5 -147.5 -45.5q-48 0 -90 24q12 -165 12 -380l-105 -9q0 183 -19 355t-58 361l127 26q14 -77 28 -157q5 -30 23 -41.5t65 -11.5q71 0 107 18l-23 183l123 19l10 -209q4 -87 -52.5 -132.5z" />
    <glyph glyph-name="three" unicode="3" horiz-adv-x="753" 
d="M674.5 441q-24.5 -41 -67 -63t-90.5 -22q-85 0 -117 35q-37 -35 -121 -35q-36 0 -67 21q12 -164 12 -377l-105 -9q0 183 -19 355t-58 361l127 26q12 -63 28 -157q5 -29 17 -41t40 -12q49 0 84 13l-8 170l115 9l4 -186q21 -6 56 -6q46 0 82 18l-24 183l124 19l10 -209
q2 -52 -22.5 -93z" />
    <glyph glyph-name="four" unicode="4" horiz-adv-x="688" 
d="M431.5 303.5q-55.5 -10.5 -131.5 -10.5q-45 0 -84 17q8 -132 8 -310l-105 -9q0 364 -77 677l127 27q21 -108 33 -221q18 -9 36 -12t44 -3q-13 24 -18.5 51t-5.5 65q0 79 55 123t142 44q38 0 112 -19l-31 -132q-50 10 -94 10q-40 0 -69 -9q0 -65 28 -128q101 7 217 40
l5 -153q-136 -37 -191.5 -47.5z" />
    <glyph glyph-name="five" unicode="5" horiz-adv-x="695" 
d="M547.5 456q80.5 -142 80.5 -270q0 -96 -44 -141t-107 -45q-43 0 -74 13t-51 47q-43 -60 -138 -60q-67 0 -107 56t-40 138q0 78 51.5 168.5t159.5 224.5q-23 23 -50 45l84 110q155 -144 235.5 -286zM514 188q-1 72 -39.5 160.5t-120.5 162.5q-98 -125 -135.5 -184.5
t-37.5 -100.5q0 -31 16.5 -45t41.5 -14q34 0 64 15l-1 66l98 5l1 -78q18 -8 55 -8q34 0 58 21z" />
    <glyph glyph-name="six" unicode="6" horiz-adv-x="577" 
d="M531 342q-97 -40 -164 -84t-123 -107t-114 -160l-88 80q94 168 182 257q-124 56 -124 208q0 57 25.5 101.5t71.5 70t106 25.5q50 0 124 -27l-30 -119q-36 6 -55 8t-42 2q-25 0 -52 -8t-42 -20q0 -64 34.5 -101.5t121.5 -38.5l2 1l127 57z" />
    <glyph glyph-name="seven" unicode="7" horiz-adv-x="639" 
d="M607 636q-66 -88 -121 -206t-87 -226t-32 -167v-37l-107 -9v51q0 62 -23.5 159.5t-75 214.5t-129.5 229l101 97q55 -78 109 -207t75 -248q0 -2 1 -3v3q15 120 71.5 245.5t121.5 209.5z" />
    <glyph glyph-name="eight" unicode="8" horiz-adv-x="639" 
d="M402.5 531.5q23.5 -97.5 75 -215t129.5 -229.5l-101 -96q-55 78 -109.5 207t-75.5 247q-16 -120 -72.5 -246t-120.5 -208l-96 106q66 88 121 206t87 226t32 167v37l107 9v-51q0 -62 23.5 -159.5z" />
    <glyph glyph-name="nine" unicode="9" horiz-adv-x="576" 
d="M483.5 229q10.5 -93 35.5 -198l-123 -40q-18 67 -28 138t-10 134v24q-58 -16 -106 -16q-71 0 -108 11.5t-61 44.5q-26 38 -26 81q0 83 20.5 159t66.5 125.5t118 49.5q67 0 115 -39t72 -105.5t24 -149.5q0 -126 10.5 -219zM198.5 441q27.5 -3 57.5 -3q31 0 62 3t45 8
q0 45 -14 78.5t-37 51.5t-50 18q-26 0 -49 -18.5t-37 -52.5t-14 -77q9 -5 36.5 -8z" />
    <glyph glyph-name="colon" unicode=":" horiz-adv-x="372" 
d="M115 299.5q-29 28.5 -29 70.5q0 41 28.5 69.5t70.5 28.5t69.5 -28.5t27.5 -69.5q0 -42 -28.5 -70.5t-68.5 -28.5q-41 0 -70 28.5zM115 13q-29 28 -29 70t28.5 70.5t70.5 28.5t69.5 -28.5t27.5 -70.5t-28.5 -70t-68.5 -28q-41 0 -70 28z" />
    <glyph glyph-name="semicolon" unicode=";" horiz-adv-x="342" 
d="M98.5 299.5q-29.5 28.5 -29.5 70.5q0 41 28.5 69.5t71.5 28.5q41 0 69 -28.5t28 -69.5q0 -42 -28.5 -70.5t-68.5 -28.5q-41 0 -70.5 28.5zM139.5 -59.5q30.5 33.5 29.5 73.5h-9q-38 0 -64.5 23t-26.5 62t27 63t68 24q51 0 77.5 -37.5t26.5 -105.5q0 -87 -47.5 -148.5
t-137.5 -89.5l-31 81q57 21 87.5 54.5z" />
    <glyph glyph-name="less" unicode="&#x3c;" horiz-adv-x="573" 
d="M538 240v-124l-500 194v106l500 192v-124l-199 -66l-149 -52v-6l149 -53z" />
    <glyph glyph-name="equal" unicode="=" horiz-adv-x="506" 
d="M457 278h-407v107h407v-107zM457 85h-407v106h407v-106z" />
    <glyph glyph-name="greater" unicode="&#x3e;" horiz-adv-x="573" 
d="M538 310l-500 -194v124l199 67l149 53v6l-149 52l-199 66v124l500 -192v-106z" />
    <glyph glyph-name="question" unicode="?" horiz-adv-x="501" 
d="M169 276q0 79 65 151q6 8 31 37t35.5 50t10.5 40q0 36 -21.5 56t-57.5 20q-30 0 -54.5 -13.5t-49.5 -39.5l-83 76q40 47 92 72.5t113 25.5q96 0 150.5 -48t54.5 -138q0 -43 -19.5 -77.5t-61.5 -80.5q-41 -43 -58.5 -79t-13.5 -79h-131q-2 18 -2 27zM171.5 16.5
q-25.5 27.5 -25.5 66.5q0 41 25.5 68.5t64.5 27.5q40 0 66 -27.5t26 -68.5q0 -39 -26.5 -66.5t-65.5 -27.5t-64.5 27.5z" />
    <glyph glyph-name="at" unicode="@" horiz-adv-x="982" 
d="M308.5 -153.5q-74.5 25.5 -129.5 76.5q-60 54 -92.5 131t-32.5 177q0 112 38.5 206t107.5 163q67 67 156 103t189 36q87 0 158.5 -27.5t122.5 -79.5q51 -53 77.5 -124.5t26.5 -156.5q0 -71 -21.5 -128t-59.5 -96q-35 -37 -78.5 -56.5t-86.5 -19.5q-48 0 -82 22t-42 62h-3
q-25 -33 -62 -53t-71 -20q-65 0 -103.5 44t-38.5 119q0 50 16.5 98t45.5 85q32 39 72.5 61t86.5 22q56 0 83 -55h3l15 47h93l-49 -239q-6 -24 -6 -43q0 -58 58 -58q25 0 49.5 15t43.5 41q42 56 42 148q0 63 -17.5 117.5t-53.5 94.5q-81 89 -232 89q-71 0 -139.5 -29.5
t-120.5 -83.5q-55 -55 -86 -131.5t-31 -167.5q0 -79 25.5 -140.5t71.5 -103.5q44 -40 102 -60.5t124 -20.5q43 0 88 12t81 32l33 -82q-95 -52 -213 -52q-84 0 -158.5 25.5zM493.5 167.5q18.5 12.5 40.5 40.5l28 153q-20 35 -55 35q-25 0 -46 -15t-36 -41q-14 -23 -22 -51.5
t-8 -54.5q0 -79 61 -79q19 0 37.5 12.5z" />
    <glyph glyph-name="A" unicode="A" horiz-adv-x="652" 
d="M-2 1l227 716h186l227 -716h-165l-48 178h-220l-48 -178h-159zM395 297l-19 73l-30 110l-29 111h-5l-9 -37q-16 -64 -18 -74l-14 -53q-6 -19 -16 -57l-21 -73h161z" />
    <glyph glyph-name="B" unicode="B" horiz-adv-x="667" 
d="M87 717h244q264 0 264 -176q0 -52 -27.5 -97t-69.5 -59v-4q64 -16 98.5 -60.5t34.5 -109.5q0 -103 -77.5 -156.5t-203.5 -53.5h-263v716zM441 519q0 45 -28 64.5t-90 19.5h-80v-176h77q121 0 121 92zM442.5 142.5q34.5 25.5 34.5 78.5q0 50 -34 73t-106 23h-94v-200h94
q71 0 105.5 25.5z" />
    <glyph glyph-name="C" unicode="C" horiz-adv-x="643" 
d="M209.5 35q-75.5 47 -116 130.5t-40.5 190.5q0 108 42.5 193t119.5 133.5t176 48.5q64 0 119.5 -25.5t94.5 -65.5l-80 -98q-32 30 -63 45t-67 15q-56 0 -97.5 -32t-63 -87t-21.5 -122q0 -113 48 -178.5t131 -65.5q42 0 77 18t67 54l81 -96q-91 -105 -231 -105
q-101 0 -176.5 47z" />
    <glyph glyph-name="D" unicode="D" horiz-adv-x="699" 
d="M87 1v716h202q176 0 267.5 -90.5t91.5 -264.5q0 -173 -91.5 -267t-259.5 -94h-210zM243 122h36q208 0 208 240q0 120 -51 177.5t-157 57.5h-36v-475z" />
    <glyph glyph-name="E" unicode="E" horiz-adv-x="603" 
d="M86 1v716h450v-125h-294v-158h250v-126h-250v-181h304v-126h-460z" />
    <glyph glyph-name="F" unicode="F" horiz-adv-x="575" 
d="M87 1v716h452v-125h-296v-180h253v-125h-253v-286h-156z" />
    <glyph glyph-name="G" unicode="G" horiz-adv-x="702" 
d="M96.5 550.5q43.5 85.5 123 133t182.5 47.5q132 0 225 -91l-81 -98q-34 31 -65 45.5t-74 14.5q-91 0 -142.5 -67.5t-51.5 -173.5q0 -117 52 -180.5t153 -63.5q24 0 45.5 6.5t36.5 18.5v136h-124v121h263v-324q-38 -38 -101 -62.5t-135 -24.5q-107 0 -186.5 46
t-121.5 129.5t-42 192.5t43.5 194.5z" />
    <glyph glyph-name="H" unicode="H" horiz-adv-x="740" 
d="M87 1v716h156v-280h256v280h157v-716h-157v306h-256v-306h-156z" />
    <glyph glyph-name="I" unicode="I" horiz-adv-x="327" 
d="M243 1h-156v716h156v-716z" />
    <glyph glyph-name="J" unicode="J" horiz-adv-x="558" 
d="M114 19.5q-56 31.5 -92 94.5l107 78q19 -37 46 -56t57 -19q46 0 68 30.5t22 100.5v470h157v-482q0 -107 -55 -175q-28 -35 -72 -54t-102 -19q-80 0 -136 31.5z" />
    <glyph glyph-name="K" unicode="K" horiz-adv-x="675" 
d="M422 434l257 -433h-170l-179 310l-87 -112v-198h-156v716h156l-1 -304l227 304h170z" />
    <glyph glyph-name="L" unicode="L" horiz-adv-x="568" 
d="M532 1h-445v716h156v-590h289v-126z" />
    <glyph glyph-name="M" unicode="M" horiz-adv-x="835" 
d="M751 717v-716h-144v282q0 64 20 241h-2l-162 -459h-91l-161 459h-2q7 -62 12.5 -132.5t5.5 -108.5v-282h-140v716h172l118 -328q12 -29 23 -68l10 -31l11 -33q11 30 21 65q11 42 21 67l116 328h172z" />
    <glyph glyph-name="N" unicode="N" horiz-adv-x="731" 
d="M647 717v-716h-161l-188 355l-80 165q12 -102 14.5 -143t2.5 -106v-271h-148v716h160l193 -360l75 -160q-11 97 -14 143.5t-3 107.5v269h149z" />
    <glyph glyph-name="O" unicode="O" horiz-adv-x="754" 
d="M203.5 36q-73.5 48 -112 133t-38.5 194q0 110 38.5 193t112 129t174.5 46q102 0 175.5 -46t112 -129.5t38.5 -192.5q0 -111 -39 -195.5t-112.5 -132t-174.5 -47.5t-174.5 48zM499.5 184.5q44.5 67.5 44.5 178.5q0 110 -44.5 174.5t-121.5 64.5t-121 -64.5t-44 -174.5
q0 -111 44.5 -178.5t120.5 -67.5q77 0 121.5 67.5z" />
    <glyph glyph-name="P" unicode="P" horiz-adv-x="655" 
d="M87 717h242q138 0 212 -55.5t74 -171.5q0 -114 -77.5 -176.5t-204.5 -62.5h-90v-250h-156v716zM427 399.5q34 29.5 34 90.5q0 59 -34 84t-108 25h-76v-229h81q69 0 103 29.5z" />
    <glyph glyph-name="Q" unicode="Q" horiz-adv-x="755" 
d="M91.5 563q38.5 83 112 129t174.5 46q102 0 175.5 -46.5t112 -130t38.5 -192.5q0 -142 -61.5 -237.5t-172.5 -124.5q47 -77 160 -77q46 0 81 13l27 -109q-20 -10 -53 -17t-72 -7q-105 0 -187 52t-121 141q-122 25 -187 124t-65 242q0 111 38.5 194zM278 200.5
q34 -46.5 87 -46.5q14 0 34 5q59 16 91.5 70.5t32.5 136.5q0 12 -2 40q-9 80 -43 124t-86 44q-15 0 -35 -5q-59 -16 -91 -69.5t-32 -131.5q0 -12 2 -38q8 -83 42 -129.5z" />
    <glyph glyph-name="R" unicode="R" horiz-adv-x="671" 
d="M87 717h256q133 0 204.5 -54t71.5 -165q0 -150 -135 -205l166 -292h-175l-142 266h-90v-266h-156v716zM430.5 414.5q34.5 28.5 34.5 83.5q0 54 -33 77.5t-102 23.5h-87v-213h87q66 0 100.5 28.5z" />
    <glyph glyph-name="S" unicode="S" horiz-adv-x="612" 
d="M163 15q-70 27 -122 77l88 105q41 -38 88.5 -59t92.5 -21q52 0 78.5 20t26.5 58q0 31 -17.5 47.5t-61.5 35.5q-35 14 -83 35q-4 2 -38 16q-68 27 -106.5 77t-38.5 116q0 61 34 108.5t92 74t127 26.5q65 0 125.5 -24.5t104.5 -68.5l-78 -96q-39 31 -74.5 45.5t-77.5 14.5
q-45 0 -70 -18.5t-25 -52.5q0 -28 20 -45.5t63 -35.5q11 -4 31 -13l89 -36q72 -28 108.5 -74.5t36.5 -119.5q0 -65 -36 -115t-97.5 -77t-136.5 -27q-73 0 -143 27z" />
    <glyph glyph-name="T" unicode="T" horiz-adv-x="614" 
d="M387 1h-158v591h-200v125h558v-125h-200v-591z" />
    <glyph glyph-name="U" unicode="U" horiz-adv-x="731" 
d="M154 72q-71 84 -71 256v390h157v-404q0 -102 31.5 -149.5t96.5 -47.5q67 0 99 47.5t32 149.5v404h151v-390q0 -172 -70 -256t-212 -84q-143 0 -214 84z" />
    <glyph glyph-name="V" unicode="V" horiz-adv-x="613" 
d="M619 717l-218 -716h-187l-218 716h165l88 -332q0 1 28 -107q31 -117 35 -131q34 140 61 235l87 335h159z" />
    <glyph glyph-name="W" unicode="W" horiz-adv-x="898" 
d="M881 717l-130 -716h-195l-70 320q-12 53 -36 183q-19 -114 -36 -183l-67 -320h-193l-135 716h160l53 -336q7 -45 16 -111.5t15 -118.5q6 26 29 149q6 28 9.5 48t6.5 33l79 336h135l79 -336q12 -58 21 -107q19 -98 25 -123q24 181 32 231l52 335h150z" />
    <glyph glyph-name="X" unicode="X" horiz-adv-x="622" 
d="M608 1h-173l-76 153q-9 16 -24 49t-21 46l-10 21q-10 -27 -24 -59t-26 -57l-72 -153h-166l199 369l-187 347h173l68 -141q11 -22 41 -88l11 -25q30 78 45 108l64 146h166l-187 -355z" />
    <glyph glyph-name="Y" unicode="Y" horiz-adv-x="578" 
d="M584 717l-216 -456v-260h-157v260l-216 456h167l68 -170l16 -42l45 -113q17 40 62 155l68 170h163z" />
    <glyph glyph-name="Z" unicode="Z" horiz-adv-x="600" 
d="M42 1v89l328 502h-298v125h489v-89l-329 -501h332v-126h-522z" />
    <glyph glyph-name="bracketleft" unicode="[" horiz-adv-x="368" 
d="M322 -161h-226v946h226v-80h-115v-787h115v-79z" />
    <glyph glyph-name="backslash" unicode="\" horiz-adv-x="380" 
d="M300 -172l-285 938h98l286 -938h-99z" />
    <glyph glyph-name="bracketright" unicode="]" horiz-adv-x="368" 
d="M274 -161h-226v79h115v787h-115v80h226v-946z" />
    <glyph glyph-name="asciicircum" unicode="^" horiz-adv-x="573" 
d="M181 294h-124l170 434h121l170 -434h-124l-53 149l-51 149h-5l-51 -149z" />
    <glyph glyph-name="underscore" unicode="_" horiz-adv-x="549" 
d="M538 -145h-524v85h524v-85z" />
    <glyph glyph-name="a" unicode="a" horiz-adv-x="580" 
d="M515 316v-315h-128l-11 57q-82 -70 -163 -70q-73 0 -118.5 45.5t-45.5 116.5q0 86 74 134t236 65q-2 45 -22.5 67.5t-65.5 22.5q-33 0 -68 -12.5t-80 -39.5l-54 99q115 72 232 72q214 0 214 -242zM360 258q-74 -9 -117.5 -31t-43.5 -65q0 -29 17 -43.5t48 -14.5
q26 0 48 11.5t47 36.5z" />
    <glyph glyph-name="b" unicode="b" horiz-adv-x="649" 
d="M532.5 482q56.5 -76 56.5 -199q0 -81 -29.5 -148.5t-82.5 -107t-121 -39.5q-38 0 -75.5 18.5t-70.5 51.5l-12 -57h-124v772h156v-192l-3 -83q70 60 145 60q104 0 160.5 -76zM398.5 154.5q29.5 44.5 29.5 125.5q0 76 -24.5 115.5t-73.5 39.5q-52 0 -100 -52v-235
q44 -38 91 -38q48 0 77.5 44.5z" />
    <glyph glyph-name="c" unicode="c" horiz-adv-x="517" 
d="M171 24q-61 36 -94.5 100.5t-33.5 147.5t36.5 148t101 101.5t145.5 36.5q91 0 159 -60l-72 -97q-43 36 -79 36q-61 0 -96.5 -45t-35.5 -120q0 -72 35.5 -117.5t91.5 -45.5q48 0 103 44l61 -99q-37 -33 -84 -49.5t-97 -16.5q-80 0 -141 36z" />
    <glyph glyph-name="d" unicode="d" horiz-adv-x="632" 
d="M560 773v-772h-129l-11 54q-31 -30 -70.5 -48.5t-78.5 -18.5q-71 0 -122 36t-77.5 100t-26.5 148q0 78 29.5 143.5t82.5 104t119 38.5q41 0 71 -13.5t62 -41.5l-6 88v182h157zM403 398q-41 37 -94 37q-44 0 -73.5 -42.5t-29.5 -117.5q0 -82 26.5 -123.5t77.5 -41.5
q27 0 49 12t44 40v236z" />
    <glyph glyph-name="e" unicode="e" horiz-adv-x="571" 
d="M174.5 24q-62.5 36 -97 100.5t-34.5 147.5q0 80 33.5 145t92.5 103t131 38q111 0 171.5 -71.5t60.5 -188.5q0 -38 -6 -68h-333q10 -62 48 -95t97 -33t123 39l50 -92q-41 -28 -92 -44.5t-101 -16.5q-81 0 -143.5 36zM303 444q-44 0 -73 -30.5t-38 -85.5h206q0 116 -95 116
z" />
    <glyph glyph-name="f" unicode="f" horiz-adv-x="375" 
d="M101 427h-72v111l72 5v39q0 99 51 151.5t147 52.5q55 0 108 -20l-28 -110q-30 13 -59 13q-62 0 -62 -83v-42h100v-117h-100v-426h-157v426z" />
    <glyph glyph-name="g" unicode="g" horiz-adv-x="590" 
d="M105 -191q-65 35 -65 103q0 64 79 112v5q-51 31 -51 92q0 28 17 55t45 47v5q-33 23 -54 59.5t-21 81.5q0 59 29 103.5t80.5 68.5t115.5 24q48 0 85 -13h199v-110h-93q24 -33 24 -78q0 -87 -59.5 -135t-155.5 -48q-32 0 -67 12q-11 -10 -16 -19.5t-5 -25.5q0 -26 21 -35.5
t62 -9.5h89q104 0 156.5 -33t52.5 -103q0 -61 -42.5 -105t-111.5 -66t-149 -22q-100 0 -165 35zM336.5 297.5q21.5 25.5 21.5 71.5q0 44 -22 70t-56 26q-35 0 -56.5 -25.5t-21.5 -70.5t22 -71t56 -26q35 0 56.5 25.5zM386.5 -112.5q36.5 20.5 36.5 53.5q0 28 -19.5 38
t-65.5 10h-61q-42 0 -74 7q-34 -28 -34 -60q0 -33 33 -51t92 -18q56 0 92.5 20.5z" />
    <glyph glyph-name="h" unicode="h" horiz-adv-x="628" 
d="M74 773h156v-192l-7 -97q39 34 79 53.5t90 19.5q170 0 170 -217v-339h-156v319q0 61 -16.5 85.5t-53.5 24.5q-29 0 -50.5 -12.5t-55.5 -44.5v-372h-156v772z" />
    <glyph glyph-name="i" unicode="i" horiz-adv-x="302" 
d="M86.5 652.5q-25.5 22.5 -25.5 59.5t25.5 60t65.5 23q41 0 67 -23t26 -60t-26 -59.5t-67 -22.5q-40 0 -65.5 22.5zM75 1v543h156v-543h-156z" />
    <glyph glyph-name="j" unicode="j" horiz-adv-x="308" 
d="M92 659q-26 23 -26 60t26 60t66 23t66 -23t26 -60t-26 -60t-66 -23t-66 23zM-50 -196l26 109q28 -7 47 -7q31 0 43.5 21t12.5 71v553h156v-550q0 -213 -189 -213q-53 0 -96 16z" />
    <glyph glyph-name="k" unicode="k" horiz-adv-x="599" 
d="M386 322l205 -321h-166l-128 217l-70 -81v-136h-153v772h153v-452l181 223h166z" />
    <glyph glyph-name="l" unicode="l" horiz-adv-x="315" 
d="M109 32q-35 44 -35 129v612h156v-618q0 -24 8 -35t20 -11q9 0 21 3l18 -111q-26 -13 -79 -13q-74 0 -109 44z" />
    <glyph glyph-name="m" unicode="m" horiz-adv-x="943" 
d="M830 501q43 -56 43 -161v-339h-156v319q0 61 -16.5 85.5t-53.5 24.5q-43 0 -97 -57v-372h-155v319q0 61 -16.5 85.5t-54.5 24.5q-43 0 -96 -57v-372h-156v543h128l12 -70q38 39 78 61t89 22q56 0 92.5 -22.5t57.5 -67.5q42 44 82.5 67t89.5 23q86 0 129 -56z" />
    <glyph glyph-name="n" unicode="n" horiz-adv-x="630" 
d="M73 544h129l11 -66h3q40 37 82 58t93 21q170 0 170 -217v-339h-156v319q0 61 -16.5 85.5t-53.5 24.5q-29 0 -50.5 -12.5t-54.5 -44.5v-372h-157v543z" />
    <glyph glyph-name="o" unicode="o" horiz-adv-x="614" 
d="M171.5 25q-60.5 37 -94.5 101.5t-34 145.5q0 82 34 147.5t94.5 102t136.5 36.5q77 0 137.5 -37t94.5 -102t34 -147q0 -81 -34.5 -146t-95 -101.5t-136.5 -36.5t-136.5 37zM387 152.5q28 43.5 28 119.5t-28 120.5t-79 44.5q-50 0 -78 -44t-28 -121q0 -76 28 -119.5
t78 -43.5q51 0 79 43.5z" />
    <glyph glyph-name="p" unicode="p" horiz-adv-x="632" 
d="M532.5 488q56.5 -76 56.5 -201q0 -81 -29.5 -148t-82.5 -106t-121 -39t-130 54l4 -85v-162h-156v749h129l11 -53q34 31 75.5 49t83.5 18q103 0 159.5 -76zM398.5 160q29.5 44 29.5 126q0 156 -98 156q-25 0 -49 -12.5t-51 -40.5v-235q44 -38 91 -38q48 0 77.5 44z" />
    <glyph glyph-name="q" unicode="q" horiz-adv-x="632" 
d="M560 550v-749h-157v169l6 83q-29 -27 -66 -43t-72 -16q-71 0 -122 36t-77.5 100t-26.5 148q0 78 29.5 143.5t82.5 104t119 38.5q44 0 79.5 -15.5t67.5 -49.5l13 51h124zM403 404q-42 38 -94 38q-44 0 -73.5 -43t-29.5 -118q0 -82 26.5 -123.5t77.5 -41.5q28 0 50 12
t43 40v236z" />
    <glyph glyph-name="r" unicode="r" horiz-adv-x="435" 
d="M436 545l-25 -128q-33 9 -61 9q-35 0 -67 -26t-53 -78v-321h-156v543h129l10 -92q29 51 71 78t86 27q45 0 66 -12z" />
    <glyph glyph-name="s" unicode="s" horiz-adv-x="488" 
d="M125 9q-57 21 -99 55l69 95q39 -31 73.5 -45.5t70.5 -14.5q35 0 53.5 14t18.5 39q0 19 -15 32t-45 27q-52 20 -90 39q-53 24 -80.5 59.5t-27.5 80.5q0 77 58 122.5t149 45.5q98 0 190 -68l-68 -92q-65 50 -118 50q-31 0 -47.5 -13.5t-16.5 -36.5q0 -18 13.5 -29.5
t42.5 -24.5q15 -7 38 -15q39 -15 63.5 -26.5t42.5 -26.5q58 -43 58 -115q0 -80 -62.5 -126.5t-160.5 -46.5q-53 0 -110 21z" />
    <glyph glyph-name="t" unicode="t" horiz-adv-x="421" 
d="M143.5 41q-46.5 53 -46.5 152v234h-76v111l84 6l18 146h131v-146h132v-117h-132v-231q0 -91 69 -91q23 0 56 12l23 -108q-30 -10 -57 -15.5t-63 -5.5q-92 0 -138.5 53z" />
    <glyph glyph-name="u" unicode="u" horiz-adv-x="625" 
d="M553 544v-543h-128l-11 76q-37 -44 -79 -66.5t-96 -22.5q-170 0 -170 218v338h156v-318q0 -60 17 -85.5t54 -25.5q30 0 52.5 14.5t49.5 49.5v365h155z" />
    <glyph glyph-name="v" unicode="v" horiz-adv-x="572" 
d="M559 544l-179 -543h-181l-183 543h156l75 -264l44 -162l35 132l8 30l76 264h149z" />
    <glyph glyph-name="w" unicode="w" horiz-adv-x="850" 
d="M824 544l-132 -543h-183l-54 228l-29 152q-5 -23 -12 -66l-17 -86l-53 -228h-178l-138 543h156l56 -261q2 -7 16 -96q0 3 9 -58l7 35q17 86 26 119l63 261h137l65 -261q7 -26 35 -158q4 19 9 59q13 79 18 99l54 261h145z" />
    <glyph glyph-name="x" unicode="x" horiz-adv-x="559" 
d="M544 1h-166l-56 96q-12 18 -38 66l-15 26l-44 -92l-47 -96h-160l168 283l-157 260h165l52 -93q14 -24 32 -61l15 -30q16 31 39 91l41 93h161l-158 -278z" />
    <glyph glyph-name="y" unicode="y" horiz-adv-x="571" 
d="M558 551l-191 -555q-41 -107 -93 -155.5t-142 -48.5q-46 0 -78 11l27 114q28 -8 41 -8q37 0 60 20t36 59l8 31l-210 532h156l82 -243q31 -92 45 -152q11 50 39 152l70 243h150z" />
    <glyph glyph-name="z" unicode="z" horiz-adv-x="506" 
d="M41 1v78l239 348h-213v117h405v-79l-239 -347h247v-117h-439z" />
    <glyph glyph-name="braceleft" unicode="{" horiz-adv-x="369" 
d="M151.5 -126.5q-32.5 34.5 -32.5 119.5q0 36 6 102q1 11 3 39.5t2 50.5q0 38 -24.5 59.5t-70.5 23.5v88q45 1 70 23.5t25 59.5q0 26 -2 54t-3 39q-6 60 -6 98q0 86 32.5 120.5t106.5 34.5h66v-80h-23q-35 0 -48 -16.5t-13 -64.5l2 -83q3 -58 3 -100q0 -60 -18.5 -88.5
t-61.5 -38.5v-5q43 -10 61.5 -38t18.5 -89q0 -39 -3 -95l-2 -88q0 -47 13 -64t48 -17h23v-79h-66q-74 0 -106.5 34.5z" />
    <glyph glyph-name="bar" unicode="|" horiz-adv-x="284" 
d="M193 -266h-99v1101h99v-1101z" />
    <glyph glyph-name="braceright" unicode="}" horiz-adv-x="369" 
d="M48 -82h22q35 0 48 17t13 64l-2 88l-2 95q0 60 18.5 88.5t60.5 38.5v5q-42 10 -60.5 38.5t-18.5 88.5l2 100l2 83q0 48 -13 64.5t-48 16.5h-22v80h65q74 0 106.5 -34.5t32.5 -120.5q0 -38 -6 -98q-1 -11 -3 -39t-2 -54q0 -37 25 -59.5t71 -23.5v-88q-47 -2 -71.5 -23.5
t-24.5 -59.5q0 -23 2 -51t3 -40q6 -64 6 -101q0 -84 -32.5 -119t-106.5 -35h-65v79z" />
    <glyph glyph-name="asciitilde" unicode="~" horiz-adv-x="574" 
d="M327.5 271q-24.5 11 -50.5 31l-24.5 17.5t-32 19t-28.5 6.5q-44 0 -81 -65l-77 60q71 111 160 111q30 0 54 -11t53 -31q29 -23 46 -33t37 -10q45 0 81 63l78 -59q-71 -110 -161 -110q-30 0 -54.5 11z" />
    <glyph glyph-name="uni00A0" unicode="&#xa0;" horiz-adv-x="469" 
 />
    <glyph glyph-name="exclamdown" unicode="&#xa1;" horiz-adv-x="353" 
d="M261 591.5q28 -27.5 28 -68.5q0 -40 -27.5 -68t-68.5 -28t-68.5 28t-27.5 68q0 41 28 68.5t68 27.5t68 -27.5zM138 -159l-1 496l111 17l21 -489z" />
    <glyph glyph-name="cent" unicode="&#xa2;" horiz-adv-x="573" 
d="M300 -41v106q-53 6 -96 27.5t-73 56.5q-65 75 -65 191q0 115 67 187q64 70 167 87v108h83v-104q86 -7 138 -61l-69 -93q-32 28 -69 33v-312q47 6 85 39l61 -94q-63 -54 -146 -66v-105h-83zM234 248.5q23 -37.5 66 -53.5v291q-43 -16 -66 -54.5t-23 -91.5q0 -54 23 -91.5z
" />
    <glyph glyph-name="sterling" unicode="&#xa3;" horiz-adv-x="573" 
d="M54 1v92q52 25 84.5 70t32.5 104q0 11 -4 35h-110v88l75 4h9q-10 34 -14.5 54.5t-4.5 42.5q0 50 17 91t48 71q64 59 165 59q59 0 103.5 -21.5t82.5 -65.5l-82 -82q-37 48 -90 48q-46 0 -73 -27.5t-27 -80.5q0 -40 14 -89h165v-92h-146q3 -18 3 -37q0 -41 -12 -71t-40 -61
v-6h289v-126h-485z" />
    <glyph glyph-name="currency" unicode="&#xa4;" horiz-adv-x="575" 
d="M24 169l67 69q-37 52 -37 122q0 72 36 122l-66 69l75 76l76 -77q52 29 114 29t113 -29l76 77l75 -76l-68 -69q38 -48 38 -122q0 -66 -38 -122l68 -69l-75 -76l-77 78q-49 -29 -112 -29q-64 0 -113 29l-77 -78zM361.5 278.5q28.5 32.5 28.5 81.5q0 51 -29 83t-72 32
q-44 0 -72.5 -32t-28.5 -83q0 -50 29 -82t72 -32q44 0 72.5 32.5z" />
    <glyph glyph-name="yen" unicode="&#xa5;" horiz-adv-x="576" 
d="M213 1v163h-170v73h170v63h-170v72h138l-164 327h154l60 -152q10 -24 14 -36l14 -36q18 -50 29 -73h5q14 30 29 74l28 71l60 152h151l-164 -327h137v-72h-171v-63h171v-73h-171v-163h-150z" />
    <glyph glyph-name="brokenbar" unicode="&#xa6;" horiz-adv-x="284" 
d="M193 350h-99v485h99v-485zM193 -266h-99v500h99v-500z" />
    <glyph glyph-name="section" unicode="&#xa7;" horiz-adv-x="573" 
d="M146 -62.5q-56 22.5 -91 66.5l86 77q54 -56 122 -56q35 0 53 14t18 39q0 24 -29.5 43.5t-96.5 50.5q-6 2 -32 14q-63 29 -98 74t-35 106q0 41 23 77.5t65 62.5q-31 37 -31 92q0 74 51 118.5t139 44.5q105 0 193 -69l-68 -93q-27 23 -57.5 37t-58.5 14q-65 0 -65 -47
q0 -21 33 -42t98 -53l34 -17q69 -34 101.5 -73t32.5 -102q0 -47 -22.5 -82.5t-68.5 -63.5q27 -36 27 -85q0 -80 -57 -125t-149 -45q-61 0 -117 22.5zM407 304q0 48 -65 83q-21 12 -65 30q-10 5 -30.5 13.5t-34.5 16.5q-43 -28 -43 -71q0 -25 16.5 -44.5t48.5 -36.5
q15 -8 35 -17t39 -18l57 -26q42 23 42 70z" />
    <glyph glyph-name="copyright" unicode="&#xa9;" horiz-adv-x="822" 
d="M273.5 16.5q-66.5 25.5 -114.5 73.5q-52 49 -80 117t-28 151t28.5 150.5t79.5 115.5q48 47 114 72t139 25t139 -25t114 -72q51 -48 79 -116t28 -150q0 -83 -28 -151t-79 -117q-49 -48 -114.5 -73.5t-138.5 -25.5q-72 0 -138.5 25.5zM526 74.5q53 21.5 93 62.5
q41 42 63 97.5t22 123.5q0 66 -22 122.5t-63 97.5q-40 40 -93 61t-114 21t-114 -21t-93 -61q-41 -41 -63 -97t-22 -123q0 -68 22 -124t63 -97q40 -41 93 -62.5t114 -21.5t114 21.5zM274 199q-59 61 -59 158q0 47 16.5 86.5t47.5 66.5q29 28 67 42.5t79 14.5q46 0 79.5 -17
t64.5 -47l-57 -62q-19 20 -37.5 29t-40.5 9q-52 0 -82 -34.5t-30 -87.5q0 -59 29 -94t78 -35q26 0 46.5 10t45.5 29l49 -69q-35 -28 -70 -42.5t-75 -14.5q-91 0 -151 58z" />
    <glyph glyph-name="guillemotleft" unicode="&#xab;" horiz-adv-x="594" 
d="M101.5 44.5q-14.5 76.5 -14.5 158.5q0 83 15 161.5t49 160.5l103 -50q-26 -65 -38.5 -135t-12.5 -137q0 -66 12.5 -135.5t37.5 -133.5l-104 -49q-33 83 -47.5 159.5zM335 43.5q-14 76.5 -14 159.5t14.5 161.5t48.5 160.5l103 -50q-25 -66 -38.5 -136.5t-13.5 -135.5
q0 -66 13 -135.5t38 -133.5l-104 -49q-33 82 -47 158.5z" />
    <glyph glyph-name="logicalnot" unicode="&#xac;" horiz-adv-x="573" 
d="M538 103h-110v204h-390v107h500v-311z" />
    <glyph glyph-name="registered" unicode="&#xae;" horiz-adv-x="499" 
d="M140.5 363.5q-49.5 29.5 -78 80t-28.5 111.5q0 62 29 112.5t78.5 79.5t108.5 29q61 0 110.5 -29.5t77.5 -80t28 -111.5q0 -63 -28.5 -113.5t-78 -79t-109.5 -28.5t-109.5 29.5zM366 431q45 47 45 124q0 76 -45 123t-116 47q-70 0 -114.5 -47.5t-44.5 -122.5
q0 -77 44.5 -124t114.5 -47q71 0 116 47zM164 664h95q40 0 64 -18t24 -53q0 -20 -10 -36t-29 -23l45 -85h-62l-33 67h-36v-67h-58v215zM274.5 566q9.5 9 9.5 24t-9.5 23t-27.5 8h-25v-64h25q18 0 27.5 9z" />
    <glyph glyph-name="degree" unicode="&#xb0;" horiz-adv-x="393" 
d="M89 474q-46 44 -46 111t46 113q45 43 110 43q32 0 60.5 -11.5t49.5 -31.5q45 -47 45 -113t-45 -111q-21 -21 -49.5 -32t-60.5 -11q-65 0 -110 43zM253.5 525q20.5 23 20.5 60t-20.5 60t-54.5 23t-55.5 -23t-21.5 -60t21.5 -60t55.5 -23t54.5 23z" />
    <glyph glyph-name="plusminus" unicode="&#xb1;" horiz-adv-x="574" 
d="M539 355h-191v-189h191v-106h-489v106h192v189h-192v106h192v192h106v-192h191v-106z" />
    <glyph glyph-name="paragraph" unicode="&#xb6;" horiz-adv-x="683" 
d="M215 242q-51 16 -88 47q-84 68 -84 188q0 128 82 191q70 53 195 53h48v-495h-42q-60 0 -111 16zM581 -84h-150v805h150v-805z" />
    <glyph glyph-name="periodcentered" unicode="&#xb7;" horiz-adv-x="352" 
d="M112.5 274.5q-29.5 28.5 -29.5 72.5q0 43 29.5 72t72.5 29q42 0 71 -29.5t29 -71.5q0 -43 -29 -72t-71 -29q-43 0 -72.5 28.5z" />
    <glyph glyph-name="guillemotright" unicode="&#xbb;" horiz-adv-x="594" 
d="M146 67.5q13 69.5 13 135.5t-13 136.5t-39 135.5l103 50q34 -82 48.5 -160.5t14.5 -161.5t-14 -159.5t-47 -158.5l-104 49q25 64 38 133.5zM379 68.5q13 69.5 13 134.5q0 66 -13 136.5t-39 135.5l104 50q34 -82 48.5 -160.5t14.5 -161.5q0 -82 -14.5 -158.5t-47.5 -159.5
l-104 49q25 65 38 134.5z" />
    <glyph glyph-name="questiondown" unicode="&#xbf;" horiz-adv-x="501" 
d="M329.5 512q25.5 -27 25.5 -67q0 -41 -25.5 -68.5t-64.5 -27.5q-40 0 -65.5 27.5t-25.5 68.5q0 39 26 66.5t65 27.5t64.5 -27zM333 254q0 -78 -65 -153l-15 -18q-34 -40 -48.5 -62.5t-14.5 -46.5q0 -36 21.5 -56t57.5 -20q30 0 54.5 13.5t49.5 39.5l83 -76
q-85 -98 -205 -98q-96 0 -150.5 48t-54.5 138q0 43 19.5 77.5t61.5 80.5q37 39 55 71.5t18 69.5q0 11 -1 17h132q2 -16 2 -25z" />
    <glyph glyph-name="multiply" unicode="&#xd7;" horiz-adv-x="521" 
d="M124 33l-74 74l135 136l-135 136l75 74l135 -135l136 135l75 -74l-135 -136l135 -136l-75 -74l-136 135z" />
    <glyph glyph-name="divide" unicode="&#xf7;" horiz-adv-x="589" 
d="M241.5 360.5q-23.5 22.5 -23.5 57.5q0 34 23 57t57 23t57 -23.5t23 -56.5q0 -34 -23.5 -57t-56.5 -23t-56.5 22.5zM539 190h-489v106h489v-106zM241.5 14q-23.5 23 -23.5 57t23 57t57 23t57 -23t23 -57t-23.5 -57t-56.5 -23t-56.5 23z" />
    <glyph glyph-name="uni060C" unicode="&#x60c;" horiz-adv-x="334" 
d="M233.5 145.5q27.5 -27.5 27.5 -66.5q0 -38 -27.5 -65t-65.5 -27q-49 0 -74 30.5t-25 81.5q0 55 26 120t69 117l64 -66q-48 -53 -64 -97h4q38 0 65.5 -27.5z" />
    <glyph glyph-name="uni0615" unicode="&#x615;" 
d="M143 205.5q29 -33.5 29 -96.5q0 -52 -49.5 -80.5t-137.5 -28.5h-139l-18 89l53 1l7 10q5 6 6.5 19.5t1.5 45.5q0 68 -5 175l80 17v-162q46 44 88 44q55 0 84 -33.5zM101 108q-3 42 -47 42q-36 0 -83 -57h40q53 0 90 15z" />
    <glyph glyph-name="uni061B" unicode="&#x61b;" horiz-adv-x="308" 
d="M216.5 423.5q27.5 -27.5 27.5 -66.5q0 -38 -27.5 -65t-65.5 -27q-49 0 -74 30.5t-25 81.5q0 55 26 120t69 117l64 -66q-48 -53 -64 -97h4q38 0 65.5 -27.5zM85.5 13.5q-29.5 28.5 -29.5 71.5q0 42 28.5 71t71.5 29q42 0 70.5 -29t28.5 -71t-28.5 -71t-70.5 -29
q-41 0 -70.5 28.5z" />
    <glyph glyph-name="uni061F" unicode="&#x61f;" horiz-adv-x="566" 
d="M390 582q0 43 -27.5 68t-76.5 25q-47 0 -73 -25t-26 -65q0 -26 13.5 -48.5t32.5 -41t65 -58.5q36 -32 52 -57.5t20.5 -51t4.5 -69.5l-103 -16q-1 34 -4 51.5t-14.5 34.5t-39.5 45q-7 8 -37 33q-33 29 -53.5 51.5t-34.5 58t-14 85.5q0 56 27.5 103t76 74.5t107.5 27.5
q96 0 151 -52.5t55 -142.5q0 -22 -5 -54l-100 -2q3 14 3 26zM250.5 13.5q-29.5 28.5 -29.5 71.5t29 72t72 29q42 0 70.5 -29.5t28.5 -71.5t-28.5 -71t-70.5 -29t-71.5 28.5z" />
    <glyph glyph-name="uni0621" unicode="&#x621;" horiz-adv-x="603" 
d="M66 111l124 39q-22 45 -29.5 80.5t-7.5 78.5q0 63 56 101.5t137 38.5q24 0 43 -2.5t37 -6.5l-26 -125q-6 1 -27 5.5t-39 4.5q-50 0 -79 -12q0 -34 10 -63.5t32 -62.5l222 62l18 -129l-453 -133z" />
    <glyph glyph-name="uni0622" unicode="&#x622;" horiz-adv-x="257" 
d="M57 601l132 22l2 -623l-110 -14zM106 695q-26 4 -33 4q-16 0 -25 -9.5t-17 -39.5l-88 22q14 61 31 94t40.5 46.5t58.5 13.5q19 0 54 -5q72 -9 124 -9h60l-26 -128h-55q-67 0 -124 11z" />
    <glyph glyph-name="uni0623" unicode="&#x623;" horiz-adv-x="257" 
d="M57 601l132 22l2 -623l-110 -14zM-45 736l96 26q-16 36 -21.5 61.5t-5.5 54.5q0 44 37.5 68.5t91.5 24.5q39 0 70 -9l-17 -89q-32 8 -48 9q-8 1 -23 1q-23 0 -35 -5q0 -19 7.5 -37.5t28.5 -56.5l145 44l18 -89l-331 -92z" />
    <glyph glyph-name="uni0624" unicode="&#x624;" horiz-adv-x="501" 
d="M347.5 366q41.5 -39 63.5 -105.5t22 -146.5q0 -136 -74 -247.5t-243 -179.5l-87 127q91 32 162.5 84.5t107.5 106.5q-40 -5 -80 -5q-44 0 -66 3.5t-37 14t-32 33.5q-17 24 -22.5 39t-5.5 41q0 73 21 135.5t64 100.5t107 38q58 0 99.5 -39zM244 137q49 0 79 6
q0 62 -23 93.5t-61 31.5q-34 0 -55 -32.5t-21 -91.5q47 -7 81 -7zM76 585l96 26q-16 36 -21.5 61.5t-5.5 54.5q0 44 37.5 68.5t91.5 24.5q39 0 70 -9l-17 -89q-32 8 -48 9q-8 1 -23 1q-23 0 -35 -5q0 -19 7.5 -37.5t28.5 -56.5l145 44l18 -89l-331 -92z" />
    <glyph glyph-name="uni0625" unicode="&#x625;" horiz-adv-x="248" 
d="M57 741l132 22l2 -763l-110 -14zM-34 -310l96 26q-16 36 -21.5 61.5t-5.5 54.5q0 44 37.5 68.5t91.5 24.5q39 0 70 -9l-17 -89q-32 8 -48 9q-8 1 -23 1q-23 0 -35 -5q0 -19 7.5 -37.5t28.5 -56.5l145 44l18 -89l-331 -92z" />
    <glyph glyph-name="uni0626" unicode="&#x626;" horiz-adv-x="773" 
d="M128 -182q-61 53 -61 158q0 37 23 170l25 161l102 -22q-39 -234 -39 -284q0 -39 45 -54t106 -15q93 0 155.5 12.5t99.5 40.5q3 12 3 20q0 14 -7.5 23t-20.5 10q-74 6 -113.5 15t-61 29.5t-21.5 60.5q0 81 32.5 165t84.5 139t106 55q43 0 79 -27t76 -93l-71 -75
q-45 45 -83 45q-40 0 -68 -39.5t-41 -105.5q80 -9 121.5 -22.5t67.5 -52.5t26 -118q0 -83 -49.5 -139t-132 -83t-182.5 -27q-140 0 -201 53zM49 488l96 26q-16 36 -21.5 61.5t-5.5 54.5q0 44 37.5 68.5t91.5 24.5q39 0 70 -9l-17 -89q-32 8 -48 9q-8 1 -23 1q-23 0 -35 -5
q0 -19 7.5 -37.5t28.5 -56.5l145 44l18 -89l-331 -92z" />
    <glyph glyph-name="uni0627" unicode="&#x627;" horiz-adv-x="248" 
d="M57 741l132 22l2 -763l-110 -14z" />
    <glyph glyph-name="uni0628" unicode="&#x628;" horiz-adv-x="883" 
d="M815 174q0 -48 -17 -80t-59 -51q-47 -22 -128.5 -35t-192.5 -13q-112 0 -188 17t-119.5 63.5t-43.5 129.5q0 21 8 72t25 150l102 -22q-24 -136 -24 -170q0 -30 20 -45.5t68.5 -21.5t143.5 -6q186 0 292 25l-24 218l127 22q10 -148 10 -253zM406 -98l112 -90l-86 -104
l-112 90z" />
    <glyph glyph-name="uni0629" unicode="&#x629;" horiz-adv-x="496" 
d="M114.5 36.5q-47.5 41.5 -47.5 114.5q0 52 23 99.5t77 114.5l-45 30l75 114q249 -152 249 -378q0 -38 -26 -75q-17 -24 -26.5 -33.5t-19.5 -12.5q-46 -15 -135 -15q-77 0 -124.5 41.5zM340 168q-9 39 -28.5 72.5t-61.5 62.5q-26 -25 -47.5 -58t-21.5 -51t15.5 -25t51.5 -7
q58 0 92 6zM152 756l100 -81l-81 -100l-100 81zM319 756l100 -81l-81 -100l-100 81z" />
    <glyph glyph-name="uni062A" unicode="&#x62a;" horiz-adv-x="883" 
d="M815 174q0 -48 -17 -80t-59 -51q-47 -22 -128.5 -35t-192.5 -13q-112 0 -188 17t-119.5 63.5t-43.5 129.5q0 21 8 72t25 150l102 -22q-24 -136 -24 -170q0 -30 20 -45.5t68.5 -21.5t143.5 -6q186 0 292 25l-24 218l127 22q10 -148 10 -253zM356 590l100 -81l-81 -100
l-100 81zM523 590l100 -81l-81 -100l-100 81z" />
    <glyph glyph-name="uni062B" unicode="&#x62b;" horiz-adv-x="883" 
d="M815 174q0 -48 -17 -80t-59 -51q-47 -22 -128.5 -35t-192.5 -13q-112 0 -188 17t-119.5 63.5t-43.5 129.5q0 21 8 72t25 150l102 -22q-24 -136 -24 -170q0 -30 20 -45.5t68.5 -21.5t143.5 -6q186 0 292 25l-24 218l127 22q10 -148 10 -253zM436 751l95 -77l-77 -96
l-96 77zM360 582l96 -77l-77 -96l-96 77zM519 582l96 -77l-77 -96l-96 77z" />
    <glyph glyph-name="uni062C" unicode="&#x62c;" horiz-adv-x="725" 
d="M652 243q-75 -9 -171.5 -49.5t-177 -97.5t-110.5 -113q-11 -34 -11 -69q0 -84 54 -123.5t167 -39.5q130 0 248 39l-26 -167q-95 -39 -222 -39q-157 0 -246.5 83.5t-89.5 236.5q0 83 44.5 162.5t130 145.5t203.5 108q-27 7 -96 31q-47 17 -75 25t-53 8q-27 0 -39 -15.5
t-17 -48.5l-97 18q13 88 47 139.5t98 51.5q43 0 87.5 -14t115.5 -44q85 -35 144 -53t123 -18zM450 -117l-103 82l78 95l103 -82z" />
    <glyph glyph-name="uni062D" unicode="&#x62d;" horiz-adv-x="725" 
d="M480.5 193.5q-96.5 -40.5 -177 -97.5t-110.5 -113q-11 -34 -11 -69q0 -84 54 -123.5t167 -39.5q130 0 248 39l-26 -167q-95 -39 -222 -39q-157 0 -246.5 83.5t-89.5 236.5q0 83 44.5 162.5t130 145.5t203.5 108q-27 7 -96 31q-47 17 -75 25t-53 8q-27 0 -39 -15.5
t-17 -48.5l-97 18q13 88 47 139.5t98 51.5q43 0 87.5 -14t115.5 -44q85 -35 144 -53t123 -18l-31 -157q-75 -9 -171.5 -49.5z" />
    <glyph glyph-name="uni062E" unicode="&#x62e;" horiz-adv-x="725" 
d="M480.5 193.5q-96.5 -40.5 -177 -97.5t-110.5 -113q-11 -34 -11 -69q0 -84 54 -123.5t167 -39.5q130 0 248 39l-26 -167q-95 -39 -222 -39q-157 0 -246.5 83.5t-89.5 236.5q0 83 44.5 162.5t130 145.5t203.5 108q-27 7 -96 31q-47 17 -75 25t-53 8q-27 0 -39 -15.5
t-17 -48.5l-97 18q13 88 47 139.5t98 51.5q43 0 87.5 -14t115.5 -44q85 -35 144 -53t123 -18l-31 -157q-75 -9 -171.5 -49.5zM383 795l112 -90l-86 -104l-112 90z" />
    <glyph glyph-name="uni062F" unicode="&#x62f;" horiz-adv-x="572" 
d="M472.5 352q52.5 -99 52.5 -188q0 -90 -75 -129.5t-196 -39.5q-72 0 -114.5 14.5t-62.5 49t-20 94.5q0 19 4 87l102 -8v-26q0 -21 7 -30t25.5 -11.5t62.5 -2.5q31 0 77 4.5t76 12.5q-16 106 -175 259l83 110q101 -97 153.5 -196z" />
    <glyph glyph-name="uni0630" unicode="&#x630;" horiz-adv-x="572" 
d="M472.5 352q52.5 -99 52.5 -188q0 -90 -75 -129.5t-196 -39.5q-72 0 -114.5 14.5t-62.5 49t-20 94.5q0 19 4 87l102 -8v-26q0 -21 7 -30t25.5 -11.5t62.5 -2.5q31 0 77 4.5t76 12.5q-16 106 -175 259l83 110q101 -97 153.5 -196zM261 842l112 -90l-86 -104l-112 90z" />
    <glyph glyph-name="uni0631" unicode="&#x631;" horiz-adv-x="348" 
d="M78 -75.5q62 50.5 89 106.5l-42 305l132 27q13 -113 18.5 -180t5.5 -117q0 -117 -71 -208t-241 -171l-88 127q135 60 197 110.5z" />
    <glyph glyph-name="uni0632" unicode="&#x632;" horiz-adv-x="348" 
d="M78 -75.5q62 50.5 89 106.5l-42 305l132 27q13 -113 18.5 -180t5.5 -117q0 -117 -71 -208t-241 -171l-88 127q135 60 197 110.5zM163 659l112 -90l-86 -104l-112 90z" />
    <glyph glyph-name="uni0633" unicode="&#x633;" horiz-adv-x="1219" 
d="M1152 173q0 -57 -23.5 -96t-62 -58t-83.5 -19q-90 0 -119 63q-19 -36 -51.5 -49.5t-64.5 -13.5q-36 0 -59.5 9t-38.5 30q3 -60 3 -105q0 -59 -54 -97t-129.5 -55t-140.5 -17q-140 0 -201 53t-61 158q0 37 23 170l25 161l102 -22q-39 -234 -39 -284q0 -39 45 -54t106 -15
q68 0 120 8t90 27l-43 373l128 26l5 -52l9 -92q4 -32 20.5 -43.5t55.5 -11.5q44 0 80 12l-9 182l115 4l4 -190q22 -8 50 -8q52 0 85 13l-25 225l128 22q10 -170 10 -254z" />
    <glyph glyph-name="uni0634" unicode="&#x634;" horiz-adv-x="1219" 
d="M1152 173q0 -57 -23.5 -96t-62 -58t-83.5 -19q-90 0 -119 63q-19 -36 -51.5 -49.5t-64.5 -13.5q-36 0 -59.5 9t-38.5 30q3 -60 3 -105q0 -59 -54 -97t-129.5 -55t-140.5 -17q-140 0 -201 53t-61 158q0 37 23 170l25 161l102 -22q-39 -234 -39 -284q0 -39 45 -54t106 -15
q68 0 120 8t90 27l-43 373l128 26l5 -52l9 -92q4 -32 20.5 -43.5t55.5 -11.5q44 0 80 12l-9 182l115 4l4 -190q22 -8 50 -8q52 0 85 13l-25 225l128 22q10 -170 10 -254zM807 801l95 -77l-77 -96l-96 77zM731 632l96 -77l-77 -96l-96 77zM890 632l96 -77l-77 -96l-96 77z
" />
    <glyph glyph-name="uni0635" unicode="&#x635;" horiz-adv-x="1308" 
d="M1187.5 413.5q53.5 -66.5 53.5 -196.5q0 -76 -33 -113q-43 -49 -132.5 -76.5t-212.5 -27.5q-135 0 -213 34q3 -56 3 -100q0 -59 -54 -97t-129.5 -55t-140.5 -17q-140 0 -201 53t-61 158q0 37 23 170l25 161l102 -22q-39 -234 -39 -284q0 -39 45 -54t106 -15q68 0 120 8
t90 27l-43 373l128 26q10 -98 14 -153l2 -24q14 -5 34 -7q33 56 90 125t127.5 121t135.5 52q107 0 160.5 -66.5zM992.5 174q65.5 7 133.5 27q0 68 -25 103t-70 35q-49 0 -112.5 -45.5t-128.5 -124.5q30 -2 61 -2q76 0 141.5 7z" />
    <glyph glyph-name="uni0636" unicode="&#x636;" horiz-adv-x="1308" 
d="M1187.5 413.5q53.5 -66.5 53.5 -196.5q0 -76 -33 -113q-43 -49 -132.5 -76.5t-212.5 -27.5q-135 0 -213 34q3 -56 3 -100q0 -59 -54 -97t-129.5 -55t-140.5 -17q-140 0 -201 53t-61 158q0 37 23 170l25 161l102 -22q-39 -234 -39 -284q0 -39 45 -54t106 -15q68 0 120 8
t90 27l-43 373l128 26q10 -98 14 -153l2 -24q14 -5 34 -7q33 56 90 125t127.5 121t135.5 52q107 0 160.5 -66.5zM992.5 174q65.5 7 133.5 27q0 68 -25 103t-70 35q-49 0 -112.5 -45.5t-128.5 -124.5q30 -2 61 -2q76 0 141.5 7zM830 726l112 -90l-86 -104l-112 90z" />
    <glyph glyph-name="uni0637" unicode="&#x637;" horiz-adv-x="788" 
d="M666.5 413.5q53.5 -66.5 53.5 -196.5q0 -75 -32 -113q-43 -50 -132.5 -77t-213.5 -27h-256l-32 167h92q20 27 35 51q7 11 9.5 28.5t2.5 61.5q0 41 -5 253q1 -21 -5 180l123 22l2 -319q0 -23 -1 -43t-5 -35q114 114 204 114q107 0 160.5 -66.5zM471.5 174q64.5 7 133.5 27
q0 68 -25 103t-69 35q-50 0 -113.5 -46t-129.5 -126h63q76 0 140.5 7z" />
    <glyph glyph-name="uni0638" unicode="&#x638;" horiz-adv-x="788" 
d="M666.5 413.5q53.5 -66.5 53.5 -196.5q0 -75 -32 -113q-43 -50 -132.5 -77t-213.5 -27h-256l-32 167h92q20 27 35 51q7 11 9.5 28.5t2.5 61.5q0 41 -5 253q1 -21 -5 180l123 22l2 -319q0 -23 -1 -43t-5 -35q114 114 204 114q107 0 160.5 -66.5zM471.5 174q64.5 7 133.5 27
q0 68 -25 103t-69 35q-50 0 -113.5 -46t-129.5 -126h63q76 0 140.5 7zM511 777l112 -90l-86 -104l-112 90z" />
    <glyph glyph-name="uni0639" unicode="&#x639;" horiz-adv-x="625" 
d="M620 -210l-26 -167q-52 -21 -103.5 -30t-111.5 -9q-95 0 -165.5 36t-108.5 102t-38 154q0 157 115 259q-26 53 -38 96t-12 84q0 79 55 124t144 45q40 0 114 -19l-31 -132q-50 10 -96 10q-42 0 -72 -12q0 -57 34 -133l226 54l5 -154q-101 -20 -158 -35.5t-95.5 -34.5
t-65.5 -48q-10 -34 -10 -68q0 -83 48 -122t149 -39q123 0 241 39z" />
    <glyph glyph-name="uni063A" unicode="&#x63a;" horiz-adv-x="625" 
d="M620 -210l-26 -167q-52 -21 -103.5 -30t-111.5 -9q-95 0 -165.5 36t-108.5 102t-38 154q0 157 115 259q-26 53 -38 96t-12 84q0 79 55 124t144 45q40 0 114 -19l-31 -132q-50 10 -96 10q-42 0 -72 -12q0 -57 34 -133l226 54l5 -154q-101 -20 -158 -35.5t-95.5 -34.5
t-65.5 -48q-10 -34 -10 -68q0 -83 48 -122t149 -39q123 0 241 39zM271 772l112 -90l-86 -104l-112 90z" />
    <glyph glyph-name="uni0640" unicode="&#x640;" horiz-adv-x="239" 
d="M245 154.5q3 -12.5 3 -27.5v-87q0 -16 -3 -28t-6 -12h-239q-4 0 -6.5 11.5t-2.5 28.5v87q0 16 2.5 28t6.5 12h239q3 0 6 -12.5z" />
    <glyph glyph-name="uni0641" unicode="&#x641;" horiz-adv-x="952" 
d="M879 180.5q-7 -57.5 -25.5 -93t-52.5 -54.5q-41 -23 -124 -30.5t-259 -7.5q-112 0 -188 17t-119.5 63.5t-43.5 129.5q0 21 8 72t25 150l102 -22q-24 -136 -24 -170q0 -30 20 -45.5t68.5 -21.5t143.5 -6q305 0 359 14q2 13 4 52q-43 -8 -102 -8q-44 0 -66 3.5t-37 14
t-32 33.5q-17 24 -22.5 39t-5.5 41q0 73 21 135.5t64 100.5t107 38q58 0 99.5 -39t63.5 -105.5t22 -146.5q1 -96 -6 -153.5zM696 357q49 0 79 6q0 62 -23 93.5t-61 31.5q-34 0 -55 -32.5t-21 -91.5q47 -7 81 -7zM669 914l112 -90l-86 -104l-112 90z" />
    <glyph glyph-name="uni0642" unicode="&#x642;" horiz-adv-x="789" 
d="M635.5 395.5q41.5 -39.5 63.5 -106t23 -146.5q0 -124 -11.5 -186.5t-44.5 -95.5q-49 -53 -146.5 -74.5t-190.5 -21.5q-140 0 -201 53t-61 158q0 37 23 170l25 161l102 -22q-39 -234 -39 -284q0 -39 45 -54t106 -15q78 0 145 10t131 36q1 8 5 60q-42 -9 -103 -9
q-44 0 -66 3.5t-37 14t-32 33.5q-17 24 -22 39.5t-5 40.5q0 73 20.5 135.5t63.5 101t107 38.5q58 0 99.5 -39.5zM532 167q23 0 42.5 1t36.5 5q0 62 -23 93.5t-61 31.5q-34 0 -55 -32.5t-21 -91.5q35 -7 81 -7zM426 710l100 -81l-81 -100l-100 81zM593 710l100 -81l-81 -100
l-100 81z" />
    <glyph glyph-name="uni0643" unicode="&#x643;" horiz-adv-x="846" 
d="M75 277q8 51 25 150l102 -22q-24 -136 -24 -170q0 -30 20 -45.5t68.5 -21.5t143.5 -6q148 0 254 28l-38 551l132 22q4 -53 10 -291t6 -298q0 -48 -17 -80t-59 -51q-46 -22 -118.5 -35t-161.5 -13q-112 0 -188 17t-119.5 63.5t-43.5 129.5q0 21 8 72zM461 442
q0 8 -10.5 11.5t-32.5 6.5q-37 5 -59 16t-22 39q0 35 16.5 79t43.5 74.5t58 30.5q25 0 44.5 -14.5t42.5 -51.5l-41 -40q-24 25 -46 25q-20 0 -33.5 -20.5t-21.5 -51.5q47 -6 70.5 -12.5t38 -25t14.5 -56.5q1 -62 -55.5 -99t-156.5 -37l9 94q100 0 141 32z" />
    <glyph glyph-name="uni0644" unicode="&#x644;" horiz-adv-x="723" 
d="M128 -182q-61 53 -61 158q0 37 23 170l25 161l102 -22q-39 -234 -39 -284q0 -39 45 -54t106 -15q68 0 119 8t89 27l-33 774l132 22l15 -829q1 -59 -52.5 -97t-129.5 -55t-140 -17q-140 0 -201 53z" />
    <glyph glyph-name="uni0645" unicode="&#x645;" horiz-adv-x="557" 
d="M67 4q0 118 25 176q56 130 115 188t131 58q50 0 86.5 -32.5t56 -88.5t19.5 -125q0 -57 -15 -113q-4 -15 -14.5 -28t-35.5 -32q-35 -26 -56 -26q-9 0 -21 5l-174 83q3 -50 14 -108.5t34 -160.5q6 -22 16 -68l-149 -53q-32 189 -32 325zM385 192q0 43 -16 70t-48 27
q-26 0 -44.5 -18t-47.5 -65l148 -68q8 20 8 54z" />
    <glyph glyph-name="uni0646" unicode="&#x646;" horiz-adv-x="716" 
d="M128 -182q-61 53 -61 158q0 37 23 170l25 161l102 -22q-39 -234 -39 -284q0 -39 45 -54t106 -15q68 0 120 8t90 27l-43 373l128 26q29 -290 29 -432q0 -59 -54 -97t-129.5 -55t-140.5 -17q-140 0 -201 53zM331 586l112 -90l-86 -104l-112 90z" />
    <glyph glyph-name="uni0647" unicode="&#x647;" horiz-adv-x="496" 
d="M114.5 36.5q-47.5 41.5 -47.5 114.5q0 52 23 99.5t77 114.5l-45 30l75 114q249 -152 249 -378q0 -38 -26 -75q-17 -24 -26.5 -33.5t-19.5 -12.5q-46 -15 -135 -15q-77 0 -124.5 41.5zM340 168q-9 39 -28.5 72.5t-61.5 62.5q-26 -25 -47.5 -58t-21.5 -51t15.5 -25t51.5 -7
q58 0 92 6z" />
    <glyph glyph-name="uni0648" unicode="&#x648;" horiz-adv-x="501" 
d="M347.5 366q41.5 -39 63.5 -105.5t22 -146.5q0 -136 -74 -247.5t-243 -179.5l-87 127q91 32 162.5 84.5t107.5 106.5q-40 -5 -80 -5q-44 0 -66 3.5t-37 14t-32 33.5q-17 24 -22.5 39t-5.5 41q0 73 21 135.5t64 100.5t107 38q58 0 99.5 -39zM244 137q49 0 79 6
q0 62 -23 93.5t-61 31.5q-34 0 -55 -32.5t-21 -91.5q47 -7 81 -7z" />
    <glyph glyph-name="uni0649" unicode="&#x649;" horiz-adv-x="773" 
d="M128 -182q-61 53 -61 158q0 37 23 170l25 161l102 -22q-39 -234 -39 -284q0 -39 45 -54t106 -15q93 0 155.5 12.5t99.5 40.5q3 12 3 20q0 14 -7.5 23t-20.5 10q-74 6 -113.5 15t-61 29.5t-21.5 60.5q0 81 32.5 165t84.5 139t106 55q43 0 79 -27t76 -93l-71 -75
q-45 45 -83 45q-40 0 -68 -39.5t-41 -105.5q80 -9 121.5 -22.5t67.5 -52.5t26 -118q0 -83 -49.5 -139t-132 -83t-182.5 -27q-140 0 -201 53z" />
    <glyph glyph-name="uni064A" unicode="&#x64a;" horiz-adv-x="773" 
d="M128 -182q-61 53 -61 158q0 37 23 170l25 161l102 -22q-39 -234 -39 -284q0 -39 45 -54t106 -15q93 0 155.5 12.5t99.5 40.5q3 12 3 20q0 14 -7.5 23t-20.5 10q-74 6 -113.5 15t-61 29.5t-21.5 60.5q0 81 32.5 165t84.5 139t106 55q43 0 79 -27t76 -93l-71 -75
q-45 45 -83 45q-40 0 -68 -39.5t-41 -105.5q80 -9 121.5 -22.5t67.5 -52.5t26 -118q0 -83 -49.5 -139t-132 -83t-182.5 -27q-140 0 -201 53zM236 -330l100 -81l-81 -100l-100 81zM403 -330l100 -81l-81 -100l-100 81z" />
    <glyph glyph-name="uni064B" unicode="&#x64b;" 
d="M-159 0l-13 89l331 92l13 -89zM-159 172l-13 89l331 92l13 -89z" />
    <glyph glyph-name="uni064C" unicode="&#x64c;" 
d="M140 260q32 -42 32 -103q0 -30 -10 -47t-27 -25t-49 -17l-245 -68l-10 66q-20 44 -20 85q0 19 5.5 41.5t16.5 58.5q-1 -1 11 36l79 -27q-16 -44 -22 -67.5t-6 -41.5q0 -21 10 -41l52 14q-9 -1 -13 8.5t-4 21.5q0 21 11.5 56t38 63.5t68.5 28.5q50 0 82 -42zM97 155
q0 30 -12 48t-31 18q-12 0 -24 -18t-15 -48q15 -6 38 -6q26 0 44 6z" />
    <glyph glyph-name="uni064D" unicode="&#x64d;" 
d="M-159 -130l-13 89l331 92l13 -89zM-159 -302l-13 89l331 92l13 -89z" />
    <glyph glyph-name="uni064E" unicode="&#x64e;" 
d="M-159 0l-13 89l331 92l13 -89z" />
    <glyph glyph-name="uni064F" unicode="&#x64f;" 
d="M-172 89l129 35q-9 -1 -13 8.5t-4 21.5q0 21 11.5 56t38 63.5t68.5 28.5q50 0 82 -42t32 -103q0 -30 -10 -47t-27 -25t-49 -17l-245 -68zM97 155q0 30 -12 48t-31 18q-12 0 -24 -18t-15 -48q15 -6 38 -6q26 0 44 6z" />
    <glyph glyph-name="uni0650" unicode="&#x650;" 
d="M-159 -130l-13 89l331 92l13 -89z" />
    <glyph glyph-name="uni0651" unicode="&#x651;" 
d="M-145 23q-27 23 -27 62q0 22 2.5 48t7.5 62l67 -14l-10 -60q-3 -16 6.5 -24t25.5 -8q20 0 41 12v65h63v-56q0 -12 8.5 -16.5t24.5 -4.5q17 0 37 11q-2 48 -10 87l71 22q10 -59 10 -112q0 -46 -29 -71.5t-72 -25.5q-25 0 -40 7t-28 21q-14 -13 -34.5 -20.5t-43.5 -7.5
q-43 0 -70 23z" />
    <glyph glyph-name="uni0652" unicode="&#x652;" 
d="M-112 133q0 37 21.5 66t57.5 39q15 4 32 4q37 0 66.5 -22.5t40.5 -61.5q5 -20 5 -37q0 -38 -21.5 -66.5t-59.5 -38.5l-42 -11q-16 -4 -31 -4q-25 0 -40.5 15.5t-24.5 47.5l115 32q25 8 25 27q0 16 -8.5 24.5t-20.5 8.5q-16 0 -24.5 -7.5t-8.5 -18.5q0 -2 2 -10l-79 -22
q-5 20 -5 35z" />
    <glyph glyph-name="uni0653" unicode="&#x653;" 
d="M-21 45q-26 4 -33 4q-16 0 -25 -9.5t-17 -39.5l-88 22q14 61 31 94t40.5 46.5t58.5 13.5q19 0 54 -5q72 -9 124 -9h60l-26 -128h-55q-67 0 -124 11z" />
    <glyph glyph-name="uni0654" unicode="&#x654;" 
d="M-172 89l96 26q-16 36 -21.5 61.5t-5.5 54.5q0 44 37.5 68.5t91.5 24.5q39 0 70 -9l-17 -89q-32 8 -48 9q-8 1 -23 1q-23 0 -35 -5q0 -19 7.5 -37.5t28.5 -56.5l145 44l18 -89l-331 -92z" />
    <glyph glyph-name="uni0655" unicode="&#x655;" 
d="M-172 -126l96 26q-16 36 -21.5 61.5t-5.5 54.5q0 44 37.5 68.5t91.5 24.5q39 0 70 -9l-17 -89q-32 8 -48 9q-8 1 -23 1q-23 0 -35 -5q0 -19 7.5 -37.5t28.5 -56.5l145 44l18 -89l-331 -92z" />
    <glyph glyph-name="uni0656" unicode="&#x656;" 
d="M-27 -165l-9 178l73 13l-5 -191h-59z" />
    <glyph glyph-name="uni0658" unicode="&#x658;" 
d="M-112 9.5q-37 28.5 -37 75.5q0 15 6.5 49.5t8.5 43.5l12 61h82q-8 -34 -17 -81t-9 -55q0 -15 12.5 -22t43.5 -7q49 0 72 12l-19 169l90 18l11 -187q2 -48 -41 -76.5t-117 -28.5q-61 0 -98 28.5z" />
    <glyph glyph-name="uni065A" unicode="&#x65a;" 
d="M-86.5 125q-26.5 55 -65.5 116l80 40q26 -44 43 -80t29 -77q13 41 32 77t49 80l71 -53q-69 -101 -111 -219l-77 -9q-24 70 -50.5 125z" />
    <glyph glyph-name="uni0660" unicode="&#x660;" horiz-adv-x="528" 
d="M158.5 84q-47.5 27 -74.5 74.5t-27 105.5t27 105.5t74.5 75t105.5 27.5t105.5 -27.5t75 -75t27.5 -105.5t-27.5 -105.5t-75 -74.5t-105.5 -27t-105.5 27zM324 205q24 24 24 59q0 36 -24 59.5t-60 23.5t-60 -23.5t-24 -59.5q0 -35 24 -59t60 -24t60 24z" />
    <glyph glyph-name="uni0661" unicode="&#x661;" horiz-adv-x="281" 
d="M211.5 380.5q12.5 -177.5 12.5 -380.5l-105 -9q0 183 -19 355t-58 361l127 26q30 -175 42.5 -352.5z" />
    <glyph glyph-name="uni0662" unicode="&#x662;" horiz-adv-x="559" 
d="M449.5 401.5q-56.5 -45.5 -147.5 -45.5q-48 0 -90 24q12 -165 12 -380l-105 -9q0 183 -19 355t-58 361l127 26q14 -77 28 -157q5 -30 23 -41.5t65 -11.5q71 0 107 18l-23 183l123 19l10 -209q4 -87 -52.5 -132.5z" />
    <glyph glyph-name="uni0663" unicode="&#x663;" horiz-adv-x="753" 
d="M674.5 441q-24.5 -41 -67 -63t-90.5 -22q-85 0 -117 35q-37 -35 -121 -35q-36 0 -67 21q12 -164 12 -377l-105 -9q0 183 -19 355t-58 361l127 26q12 -63 28 -157q5 -29 17 -41t40 -12q49 0 84 13l-8 170l115 9l4 -186q21 -6 56 -6q46 0 82 18l-24 183l124 19l10 -209
q2 -52 -22.5 -93z" />
    <glyph glyph-name="uni0664" unicode="&#x664;" horiz-adv-x="511" 
d="M104.5 57.5q-62.5 57.5 -62.5 152.5q0 54 27.5 104t84.5 84q-52 27 -77 72t-25 101q0 83 58.5 127t164.5 44q29 0 52.5 -3t63.5 -11l-14 -141q-70 10 -102 10q-67 0 -104 -22q5 -63 47 -92t141 -26v-125q-167 -7 -206 -103q2 -31 32 -46.5t97 -15.5q50 0 86 3t90 12
l-5 -163q-53 -10 -91.5 -14.5t-87.5 -4.5q-107 0 -169.5 57.5z" />
    <glyph glyph-name="uni0665" unicode="&#x665;" horiz-adv-x="631" 
d="M129.5 39.5q-62.5 47.5 -62.5 142.5q0 75 39 169t96.5 159.5t108.5 65.5q64 0 123 -63t95 -155t36 -170q0 -87 -64 -141.5t-192 -54.5q-117 0 -179.5 47.5zM463 186q-2 44 -29.5 101t-62.5 98t-56 41q-17 0 -49.5 -36.5t-58 -85t-25.5 -83.5q0 -36 30 -49t103 -13
q102 0 148 27z" />
    <glyph glyph-name="uni0666" unicode="&#x666;" horiz-adv-x="532" 
d="M317.5 198.5q-8.5 107.5 -8.5 231.5l1 131q-30 -5 -100 -5q-66 0 -158 15l-10 162q117 -15 210 -15q111 0 173 5q0 -197 3 -303.5t13.5 -196.5t34.5 -192l-124 -40q-26 100 -34.5 207.5z" />
    <glyph glyph-name="uni0667" unicode="&#x667;" horiz-adv-x="639" 
d="M607 636q-66 -88 -121 -206t-87 -226t-32 -167v-37l-107 -9v51q0 62 -23.5 159.5t-75 214.5t-129.5 229l101 97q55 -78 109 -207t75 -248q0 -2 1 -3v3q15 120 71.5 245.5t121.5 209.5z" />
    <glyph glyph-name="uni0668" unicode="&#x668;" horiz-adv-x="639" 
d="M402.5 531.5q23.5 -97.5 75 -215t129.5 -229.5l-101 -96q-55 78 -109.5 207t-75.5 247q-16 -120 -72.5 -246t-120.5 -208l-96 106q66 88 121 206t87 226t32 167v37l107 9v-51q0 -62 23.5 -159.5z" />
    <glyph glyph-name="uni0669" unicode="&#x669;" horiz-adv-x="576" 
d="M483.5 229q10.5 -93 35.5 -198l-123 -40q-18 67 -28 138t-10 134v24q-58 -16 -106 -16q-71 0 -108 11.5t-61 44.5q-26 38 -26 81q0 83 20.5 159t66.5 125.5t118 49.5q67 0 115 -39t72 -105.5t24 -149.5q0 -126 10.5 -219zM198.5 441q27.5 -3 57.5 -3q31 0 62 3t45 8
q0 45 -14 78.5t-37 51.5t-50 18q-26 0 -49 -18.5t-37 -52.5t-14 -77q9 -5 36.5 -8z" />
    <glyph glyph-name="uni066A" unicode="&#x66a;" horiz-adv-x="941" 
d="M319 -42l-126 55l447 782l124 -55zM338.5 754.5q38.5 -22.5 61 -61t22.5 -84.5t-22.5 -85t-61 -61.5t-84.5 -22.5t-84 22.5t-61 61.5t-23 85t22.5 84.5t61 61t84.5 22.5t84.5 -22.5zM201.5 660.5q-21.5 -21.5 -21.5 -51.5q0 -31 21.5 -52.5t52.5 -21.5q32 0 53 21.5
t21 52.5q0 30 -21.5 51.5t-52.5 21.5t-52.5 -21.5zM611.5 -22.5q-38.5 22.5 -61 61t-22.5 84.5t22.5 85t61 61.5t84.5 22.5t84 -23t61 -61.5t23 -84.5t-22.5 -84.5t-61 -61t-84.5 -22.5t-84.5 22.5zM748.5 71q21.5 21 21.5 52q0 32 -21 53t-53 21q-31 0 -52.5 -21t-21.5 -53
q0 -31 21.5 -52t52.5 -21t52.5 21z" />
    <glyph glyph-name="uni066B" unicode="&#x66b;" horiz-adv-x="337" 
d="M259.5 807.5q25.5 -30.5 25.5 -82.5q0 -55 -26.5 -120t-69.5 -117l-64 67q48 53 64 96h-4q-38 0 -65.5 27.5t-27.5 66.5q0 38 27.5 65.5t65.5 27.5q49 0 74.5 -30.5z" />
    <glyph glyph-name="uni066C" unicode="&#x66c;" horiz-adv-x="357" 
d="M102 -287l-102 58l254 432l103 -58z" />
    <glyph glyph-name="uni066D" unicode="&#x66d;" horiz-adv-x="590" 
d="M502 285l-99 -30l61 -79l-111 -82l-58 85l-57 -85l-113 82l61 79l-97 30l43 130l96 -34l-3 103h141l-4 -102l96 33z" />
    <glyph glyph-name="uni066E" unicode="&#x66e;" horiz-adv-x="883" 
d="M815 174q0 -48 -17 -80t-59 -51q-47 -22 -128.5 -35t-192.5 -13q-112 0 -188 17t-119.5 63.5t-43.5 129.5q0 21 8 72t25 150l102 -22q-24 -136 -24 -170q0 -30 20 -45.5t68.5 -21.5t143.5 -6q186 0 292 25l-24 218l127 22q10 -148 10 -253z" />
    <glyph glyph-name="uni066F" unicode="&#x66f;" horiz-adv-x="789" 
d="M635.5 395.5q41.5 -39.5 63.5 -106t23 -146.5q0 -124 -11.5 -186.5t-44.5 -95.5q-49 -53 -146.5 -74.5t-190.5 -21.5q-140 0 -201 53t-61 158q0 37 23 170l25 161l102 -22q-39 -234 -39 -284q0 -39 45 -54t106 -15q78 0 145 10t131 36q1 8 5 60q-42 -9 -103 -9
q-44 0 -66 3.5t-37 14t-32 33.5q-17 24 -22 39.5t-5 40.5q0 73 20.5 135.5t63.5 101t107 38.5q58 0 99.5 -39.5zM532 167q23 0 42.5 1t36.5 5q0 62 -23 93.5t-61 31.5q-34 0 -55 -32.5t-21 -91.5q35 -7 81 -7z" />
    <glyph glyph-name="uni0670" unicode="&#x670;" 
d="M-27 0l-9 178l73 13l-5 -191h-59z" />
    <glyph glyph-name="uni0671" unicode="&#x671;" horiz-adv-x="257" 
d="M57 601l132 22l2 -623l-110 -14zM57 664.5q-32 14.5 -32 48.5v36q-12 -9 -29.5 -31.5t-29.5 -48.5l-63 36q6 24 31 59t62.5 60.5t78.5 22.5v-69q0 -9 5.5 -13t11.5 -4q40 51 78.5 86t79.5 35q52 0 76 -28.5t24 -90.5q0 -39 -14 -56q-24 -26 -73.5 -41.5t-106.5 -15.5
q-67 0 -99 14.5zM283 756q-1 22 -9 32t-26 10q-19 0 -43 -15.5t-51 -43.5q71 1 129 17z" />
    <glyph glyph-name="uni0679" unicode="&#x679;" horiz-adv-x="883" 
d="M815 174q0 -48 -17 -80t-59 -51q-47 -22 -128.5 -35t-192.5 -13q-112 0 -188 17t-119.5 63.5t-43.5 129.5q0 21 8 72t25 150l102 -22q-24 -136 -24 -170q0 -30 20 -45.5t68.5 -21.5t143.5 -6q186 0 292 25l-24 218l127 22q10 -148 10 -253zM592 614.5q29 -33.5 29 -96.5
q0 -52 -49.5 -80.5t-137.5 -28.5h-139l-18 89l53 1l7 10q5 6 6.5 19.5t1.5 45.5q0 68 -5 175l80 17v-162q46 44 88 44q55 0 84 -33.5zM550 517q-3 42 -47 42q-36 0 -83 -57h40q53 0 90 15z" />
    <glyph glyph-name="uni067E" unicode="&#x67e;" horiz-adv-x="883" 
d="M815 174q0 -48 -17 -80t-59 -51q-47 -22 -128.5 -35t-192.5 -13q-112 0 -188 17t-119.5 63.5t-43.5 129.5q0 21 8 72t25 150l102 -22q-24 -136 -24 -170q0 -30 20 -45.5t68.5 -21.5t143.5 -6q186 0 292 25l-24 218l127 22q10 -148 10 -253zM330 -98l96 -77l-77 -96
l-96 77zM489 -98l96 -77l-77 -96l-96 77zM414 -267l96 -77l-78 -96l-95 77z" />
    <glyph glyph-name="uni0686" unicode="&#x686;" horiz-adv-x="725" 
d="M652 243q-75 -9 -171.5 -49.5t-177 -97.5t-110.5 -113q-11 -34 -11 -69q0 -84 54 -123.5t167 -39.5q130 0 248 39l-26 -167q-95 -39 -222 -39q-157 0 -246.5 83.5t-89.5 236.5q0 83 44.5 162.5t130 145.5t203.5 108q-27 7 -96 31q-47 17 -75 25t-53 8q-27 0 -39 -15.5
t-17 -48.5l-97 18q13 88 47 139.5t98 51.5q43 0 87.5 -14t115.5 -44q85 -35 144 -53t123 -18zM394 73l75 -61l-61 -75l-75 61zM519 73l75 -61l-60 -75l-76 61zM535 -121l-61 -75l-75 60l61 76z" />
    <glyph glyph-name="uni0688" unicode="&#x688;" horiz-adv-x="572" 
d="M472.5 352q52.5 -99 52.5 -188q0 -90 -75 -129.5t-196 -39.5q-72 0 -114.5 14.5t-62.5 49t-20 94.5q0 19 4 87l102 -8v-26q0 -21 7 -30t25.5 -11.5t62.5 -2.5q31 0 77 4.5t76 12.5q-16 106 -175 259l83 110q101 -97 153.5 -196zM417 853.5q29 -33.5 29 -96.5
q0 -52 -49.5 -80.5t-137.5 -28.5h-139l-18 89l53 1l7 10q5 6 6.5 19.5t1.5 45.5q0 68 -5 175l80 17v-162q46 44 88 44q55 0 84 -33.5zM375 756q-3 42 -47 42q-36 0 -83 -57h40q53 0 90 15z" />
    <glyph glyph-name="uni0691" unicode="&#x691;" horiz-adv-x="348" 
d="M78 -75.5q62 50.5 89 106.5l-42 305l132 27q13 -113 18.5 -180t5.5 -117q0 -117 -71 -208t-241 -171l-88 127q135 60 197 110.5zM319 670.5q29 -33.5 29 -96.5q0 -52 -49.5 -80.5t-137.5 -28.5h-139l-18 89l53 1l7 10q5 6 6.5 19.5t1.5 45.5q0 68 -5 175l80 17v-162
q46 44 88 44q55 0 84 -33.5zM277 573q-3 42 -47 42q-36 0 -83 -57h40q53 0 90 15z" />
    <glyph glyph-name="uni0695" unicode="&#x695;" horiz-adv-x="348" 
d="M78 -75.5q62 50.5 89 106.5l-42 305l132 27q13 -113 18.5 -180t5.5 -117q0 -117 -71 -208t-241 -171l-88 127q135 60 197 110.5zM-17.5 -539q-26.5 55 -65.5 116l80 40q26 -44 43 -80t29 -77q13 41 32 77t49 80l71 -53q-69 -101 -111 -219l-77 -9q-24 70 -50.5 125z" />
    <glyph glyph-name="uni0698" unicode="&#x698;" horiz-adv-x="348" 
d="M78 -75.5q62 50.5 89 106.5l-42 305l132 27q13 -113 18.5 -180t5.5 -117q0 -117 -71 -208t-241 -171l-88 127q135 60 197 110.5zM163 807l95 -77l-77 -96l-96 77zM87 638l96 -77l-77 -96l-96 77zM246 638l96 -77l-77 -96l-96 77z" />
    <glyph glyph-name="uni06A1" unicode="&#x6a1;" horiz-adv-x="952" 
d="M879 180.5q-7 -57.5 -25.5 -93t-52.5 -54.5q-41 -23 -124 -30.5t-259 -7.5q-112 0 -188 17t-119.5 63.5t-43.5 129.5q0 21 8 72t25 150l102 -22q-24 -136 -24 -170q0 -30 20 -45.5t68.5 -21.5t143.5 -6q305 0 359 14q2 13 4 52q-43 -8 -102 -8q-44 0 -66 3.5t-37 14
t-32 33.5q-17 24 -22.5 39t-5.5 41q0 73 21 135.5t64 100.5t107 38q58 0 99.5 -39t63.5 -105.5t22 -146.5q1 -96 -6 -153.5zM696 357q49 0 79 6q0 62 -23 93.5t-61 31.5q-34 0 -55 -32.5t-21 -91.5q47 -7 81 -7z" />
    <glyph glyph-name="uni06A4" unicode="&#x6a4;" horiz-adv-x="952" 
d="M879 180.5q-7 -57.5 -25.5 -93t-52.5 -54.5q-41 -23 -124 -30.5t-259 -7.5q-112 0 -188 17t-119.5 63.5t-43.5 129.5q0 21 8 72t25 150l102 -22q-24 -136 -24 -170q0 -30 20 -45.5t68.5 -21.5t143.5 -6q305 0 359 14q2 13 4 52q-43 -8 -102 -8q-44 0 -66 3.5t-37 14
t-32 33.5q-17 24 -22.5 39t-5.5 41q0 73 21 135.5t64 100.5t107 38q58 0 99.5 -39t63.5 -105.5t22 -146.5q1 -96 -6 -153.5zM696 357q49 0 79 6q0 62 -23 93.5t-61 31.5q-34 0 -55 -32.5t-21 -91.5q47 -7 81 -7zM669 1062l95 -77l-77 -96l-96 77zM593 893l96 -77l-77 -96
l-96 77zM752 893l96 -77l-77 -96l-96 77z" />
    <glyph glyph-name="uni06A9" unicode="&#x6a9;" horiz-adv-x="884" 
d="M771 351.5q45 -95.5 45 -189.5q0 -61 -43 -98t-130 -53t-225 -16q-112 0 -188 17t-119.5 63.5t-43.5 129.5q0 21 8 72t25 150l102 -22q-24 -136 -24 -170q0 -30 20 -45.5t68.5 -21.5t143.5 -6q185 0 290 23q-9 77 -75 160t-174 149l5 134q88 41 176.5 73t192.5 62
l18 -137q-123 -31 -236 -76q8 -5 25 -20q94 -83 139 -178.5z" />
    <glyph glyph-name="uni06AA" unicode="&#x6aa;" horiz-adv-x="1026" 
d="M796.5 409q79.5 -22 121 -75t41.5 -146q0 -46 -46.5 -90.5t-139.5 -73.5t-224 -29q-164 0 -385 14l-97 167q156 -10 248.5 -12t253.5 -2q107 0 174.5 11.5t102.5 37.5q-33 70 -182 70q-201 0 -279 4t-110 22t-32 62q0 77 52.5 147.5t136 113.5t168.5 44l18 -149
q-92 -1 -155 -25.5t-93 -62.5q23 -4 88 -5t136 -1q123 0 202.5 -22zM883 269l-2 -7q2 4 2 7z" />
    <glyph glyph-name="uni06AF" unicode="&#x6af;" horiz-adv-x="884" 
d="M667 768q-126 -46 -207 -82l5 99q73 35 193 82zM771 351.5q45 -95.5 45 -189.5q0 -61 -43 -98t-130 -53t-225 -16q-112 0 -188 17t-119.5 63.5t-43.5 129.5q0 21 8 72t25 150l102 -22q-24 -136 -24 -170q0 -30 20 -45.5t68.5 -21.5t143.5 -6q185 0 290 23q-9 77 -75 160
t-174 149l5 134q88 41 176.5 73t192.5 62l18 -137q-123 -31 -236 -76q8 -5 25 -20q94 -83 139 -178.5z" />
    <glyph glyph-name="uni06B5" unicode="&#x6b5;" horiz-adv-x="723" 
d="M128 -182q-61 53 -61 158q0 37 23 170l25 161l102 -22q-39 -234 -39 -284q0 -39 45 -54t106 -15q68 0 119 8t89 27l-33 774l132 22l15 -829q1 -59 -52.5 -97t-129.5 -55t-140 -17q-140 0 -201 53zM134.5 525q-26.5 55 -65.5 116l80 40q26 -44 43 -80t29 -77q13 41 32 77
t49 80l71 -53q-69 -101 -111 -219l-77 -9q-24 70 -50.5 125z" />
    <glyph glyph-name="uni06BA" unicode="&#x6ba;" horiz-adv-x="716" 
d="M128 -182q-61 53 -61 158q0 37 23 170l25 161l102 -22q-39 -234 -39 -284q0 -39 45 -54t106 -15q68 0 120 8t90 27l-43 373l128 26q29 -290 29 -432q0 -59 -54 -97t-129.5 -55t-140.5 -17q-140 0 -201 53z" />
    <glyph glyph-name="uni06BE" unicode="&#x6be;" horiz-adv-x="720" 
d="M217 162q-30 10 -50 35.5t-20 55.5q0 62 63 140l-42 21l57 124l297 -134q135 -61 135 -202q0 -80 -28 -137q-7 -14 -18 -26t-32 -26q-18 -11 -29 -16t-21 -5q-7 0 -15 3l-152 60q-50 -41 -121 -61.5t-152 -23.5l-22 167q79 4 150 25zM389 312l-85 37q-51 -51 -51 -86
q0 -22 27.5 -37t67.5 -17zM550.5 158q4.5 15 4.5 26q0 28 -19.5 52.5t-62.5 39.5l-44 -102l109 -43q8 12 12.5 27z" />
    <glyph glyph-name="uni06C0" unicode="&#x6c0;" horiz-adv-x="496" 
d="M114.5 36.5q-47.5 41.5 -47.5 114.5q0 52 23 99.5t77 114.5l-45 30l75 114q249 -152 249 -378q0 -38 -26 -75q-17 -24 -26.5 -33.5t-19.5 -12.5q-46 -15 -135 -15q-77 0 -124.5 41.5zM340 168q-9 39 -28.5 72.5t-61.5 62.5q-26 -25 -47.5 -58t-21.5 -51t15.5 -25t51.5 -7
q58 0 92 6zM276 701q0 7 -10.5 10.5t-31.5 6.5q-38 5 -60 16t-22 39q0 35 16.5 79t44 74.5t58.5 30.5q25 0 44.5 -14.5t42.5 -51.5l-41 -40q-25 25 -46 25q-20 0 -34 -21t-22 -51q46 -5 70.5 -12t39 -25.5t14.5 -56.5q0 -62 -56 -99t-156 -37l9 94q101 0 140 33z" />
    <glyph glyph-name="uni06C1" unicode="&#x6c1;" horiz-adv-x="496" 
d="M114.5 36.5q-47.5 41.5 -47.5 114.5q0 52 23 99.5t77 114.5l-45 30l75 114q249 -152 249 -378q0 -38 -26 -75q-17 -24 -26.5 -33.5t-19.5 -12.5q-46 -15 -135 -15q-77 0 -124.5 41.5zM340 168q-9 39 -28.5 72.5t-61.5 62.5q-26 -25 -47.5 -58t-21.5 -51t15.5 -25t51.5 -7
q58 0 92 6z" />
    <glyph glyph-name="uni06C2" unicode="&#x6c2;" horiz-adv-x="496" 
d="M114.5 36.5q-47.5 41.5 -47.5 114.5q0 52 23 99.5t77 114.5l-45 30l75 114q249 -152 249 -378q0 -38 -26 -75q-17 -24 -26.5 -33.5t-19.5 -12.5q-46 -15 -135 -15q-77 0 -124.5 41.5zM340 168q-9 39 -28.5 72.5t-61.5 62.5q-26 -25 -47.5 -58t-21.5 -51t15.5 -25t51.5 -7
q58 0 92 6zM73 661l96 26q-16 36 -21.5 61.5t-5.5 54.5q0 44 37.5 68.5t91.5 24.5q39 0 70 -9l-17 -89q-32 8 -48 9q-8 1 -23 1q-23 0 -35 -5q0 -19 7.5 -37.5t28.5 -56.5l145 44l18 -89l-331 -92z" />
    <glyph glyph-name="uni06C3" unicode="&#x6c3;" horiz-adv-x="496" 
d="M114.5 36.5q-47.5 41.5 -47.5 114.5q0 52 23 99.5t77 114.5l-45 30l75 114q249 -152 249 -378q0 -38 -26 -75q-17 -24 -26.5 -33.5t-19.5 -12.5q-46 -15 -135 -15q-77 0 -124.5 41.5zM340 168q-9 39 -28.5 72.5t-61.5 62.5q-26 -25 -47.5 -58t-21.5 -51t15.5 -25t51.5 -7
q58 0 92 6zM152 756l100 -81l-81 -100l-100 81zM319 756l100 -81l-81 -100l-100 81z" />
    <glyph glyph-name="uni06C6" unicode="&#x6c6;" horiz-adv-x="501" 
d="M347.5 366q41.5 -39 63.5 -105.5t22 -146.5q0 -136 -74 -247.5t-243 -179.5l-87 127q91 32 162.5 84.5t107.5 106.5q-40 -5 -80 -5q-44 0 -66 3.5t-37 14t-32 33.5q-17 24 -22.5 39t-5.5 41q0 73 21 135.5t64 100.5t107 38q58 0 99.5 -39zM244 137q49 0 79 6
q0 62 -23 93.5t-61 31.5q-34 0 -55 -32.5t-21 -91.5q47 -7 81 -7zM161.5 625q-26.5 55 -65.5 116l80 40q26 -44 43 -80t29 -77q13 41 32 77t49 80l71 -53q-69 -101 -111 -219l-77 -9q-24 70 -50.5 125z" />
    <glyph glyph-name="uni06C7" unicode="&#x6c7;" horiz-adv-x="501" 
d="M347.5 366q41.5 -39 63.5 -105.5t22 -146.5q0 -136 -74 -247.5t-243 -179.5l-87 127q91 32 162.5 84.5t107.5 106.5q-40 -5 -80 -5q-44 0 -66 3.5t-37 14t-32 33.5q-17 24 -22.5 39t-5.5 41q0 73 21 135.5t64 100.5t107 38q58 0 99.5 -39zM244 137q49 0 79 6
q0 62 -23 93.5t-61 31.5q-34 0 -55 -32.5t-21 -91.5q47 -7 81 -7zM76 585l129 35q-9 -1 -13 8.5t-4 21.5q0 21 11.5 56t38 63.5t68.5 28.5q50 0 82 -42t32 -103q0 -30 -10 -47t-27 -25t-49 -17l-245 -68zM345 651q0 30 -12 48t-31 18q-12 0 -24 -18t-15 -48q15 -6 38 -6
q26 0 44 6z" />
    <glyph glyph-name="uni06CC" unicode="&#x6cc;" horiz-adv-x="773" 
d="M128 -182q-61 53 -61 158q0 37 23 170l25 161l102 -22q-39 -234 -39 -284q0 -39 45 -54t106 -15q93 0 155.5 12.5t99.5 40.5q3 12 3 20q0 14 -7.5 23t-20.5 10q-74 6 -113.5 15t-61 29.5t-21.5 60.5q0 81 32.5 165t84.5 139t106 55q43 0 79 -27t76 -93l-71 -75
q-45 45 -83 45q-40 0 -68 -39.5t-41 -105.5q80 -9 121.5 -22.5t67.5 -52.5t26 -118q0 -83 -49.5 -139t-132 -83t-182.5 -27q-140 0 -201 53z" />
    <glyph glyph-name="uni06CE" unicode="&#x6ce;" horiz-adv-x="773" 
d="M128 -182q-61 53 -61 158q0 37 23 170l25 161l102 -22q-39 -234 -39 -284q0 -39 45 -54t106 -15q93 0 155.5 12.5t99.5 40.5q3 12 3 20q0 14 -7.5 23t-20.5 10q-74 6 -113.5 15t-61 29.5t-21.5 60.5q0 81 32.5 165t84.5 139t106 55q43 0 79 -27t76 -93l-71 -75
q-45 45 -83 45q-40 0 -68 -39.5t-41 -105.5q80 -9 121.5 -22.5t67.5 -52.5t26 -118q0 -83 -49.5 -139t-132 -83t-182.5 -27q-140 0 -201 53zM134.5 528q-26.5 55 -65.5 116l80 40q26 -44 43 -80t29 -77q13 41 32 77t49 80l71 -53q-69 -101 -111 -219l-77 -9
q-24 70 -50.5 125z" />
    <glyph glyph-name="uni06D2" unicode="&#x6d2;" horiz-adv-x="748" 
d="M143 43q-76 43 -76 126q0 62 39.5 142t94.5 136.5t99 56.5q43 0 79 -27t76 -93l-71 -75q-46 46 -83 46q-16 0 -41.5 -20t-48 -52.5t-30.5 -67.5q36 -31 81.5 -39.5t129.5 -8.5q64 0 169 7q22 1 54 3t75 4l-61 -167q-166 -14 -262 -14q-148 0 -224 43z" />
    <glyph glyph-name="uni06D3" unicode="&#x6d3;" horiz-adv-x="748" 
d="M143 43q-76 43 -76 126q0 62 39.5 142t94.5 136.5t99 56.5q43 0 79 -27t76 -93l-71 -75q-46 46 -83 46q-16 0 -41.5 -20t-48 -52.5t-30.5 -67.5q36 -31 81.5 -39.5t129.5 -8.5q64 0 169 7q22 1 54 3t75 4l-61 -167q-166 -14 -262 -14q-148 0 -224 43zM129 678l96 26
q-16 36 -21.5 61.5t-5.5 54.5q0 44 37.5 68.5t91.5 24.5q39 0 70 -9l-17 -89q-32 8 -48 9q-8 1 -23 1q-23 0 -35 -5q0 -19 7.5 -37.5t28.5 -56.5l145 44l18 -89l-331 -92z" />
    <glyph glyph-name="uni06D4" unicode="&#x6d4;" horiz-adv-x="493" 
d="M106 216h316l-35 -168h-315z" />
    <glyph glyph-name="uni06D5" unicode="&#x6d5;" horiz-adv-x="496" 
d="M114.5 36.5q-47.5 41.5 -47.5 114.5q0 52 23 99.5t77 114.5l-45 30l75 114q249 -152 249 -378q0 -38 -26 -75q-17 -24 -26.5 -33.5t-19.5 -12.5q-46 -15 -135 -15q-77 0 -124.5 41.5zM340 168q-9 39 -28.5 72.5t-61.5 62.5q-26 -25 -47.5 -58t-21.5 -51t15.5 -25t51.5 -7
q58 0 92 6z" />
    <glyph glyph-name="uni06F0" unicode="&#x6f0;" horiz-adv-x="528" 
d="M158.5 84q-47.5 27 -74.5 74.5t-27 105.5t27 105.5t74.5 75t105.5 27.5t105.5 -27.5t75 -75t27.5 -105.5t-27.5 -105.5t-75 -74.5t-105.5 -27t-105.5 27zM324 205q24 24 24 59q0 36 -24 59.5t-60 23.5t-60 -23.5t-24 -59.5q0 -35 24 -59t60 -24t60 24z" />
    <glyph glyph-name="uni06F1" unicode="&#x6f1;" horiz-adv-x="281" 
d="M211.5 380.5q12.5 -177.5 12.5 -380.5l-105 -9q0 183 -19 355t-58 361l127 26q30 -175 42.5 -352.5z" />
    <glyph glyph-name="uni06F2" unicode="&#x6f2;" horiz-adv-x="559" 
d="M449.5 401.5q-56.5 -45.5 -147.5 -45.5q-48 0 -90 24q12 -165 12 -380l-105 -9q0 183 -19 355t-58 361l127 26q14 -77 28 -157q5 -30 23 -41.5t65 -11.5q71 0 107 18l-23 183l123 19l10 -209q4 -87 -52.5 -132.5z" />
    <glyph glyph-name="uni06F3" unicode="&#x6f3;" horiz-adv-x="753" 
d="M674.5 441q-24.5 -41 -67 -63t-90.5 -22q-85 0 -117 35q-37 -35 -121 -35q-36 0 -67 21q12 -164 12 -377l-105 -9q0 183 -19 355t-58 361l127 26q12 -63 28 -157q5 -29 17 -41t40 -12q49 0 84 13l-8 170l115 9l4 -186q21 -6 56 -6q46 0 82 18l-24 183l124 19l10 -209
q2 -52 -22.5 -93z" />
    <glyph glyph-name="uni06F4" unicode="&#x6f4;" horiz-adv-x="688" 
d="M431.5 303.5q-55.5 -10.5 -131.5 -10.5q-45 0 -84 17q8 -132 8 -310l-105 -9q0 364 -77 677l127 27q21 -108 33 -221q18 -9 36 -12t44 -3q-13 24 -18.5 51t-5.5 65q0 79 55 123t142 44q38 0 112 -19l-31 -132q-50 10 -94 10q-40 0 -69 -9q0 -65 28 -128q101 7 217 40
l5 -153q-136 -37 -191.5 -47.5z" />
    <glyph glyph-name="uni06F5" unicode="&#x6f5;" horiz-adv-x="695" 
d="M547.5 456q80.5 -142 80.5 -270q0 -96 -44 -141t-107 -45q-43 0 -74 13t-51 47q-43 -60 -138 -60q-67 0 -107 56t-40 138q0 78 51.5 168.5t159.5 224.5q-23 23 -50 45l84 110q155 -144 235.5 -286zM514 188q-1 72 -39.5 160.5t-120.5 162.5q-98 -125 -135.5 -184.5
t-37.5 -100.5q0 -31 16.5 -45t41.5 -14q34 0 64 15l-1 66l98 5l1 -78q18 -8 55 -8q34 0 58 21z" />
    <glyph glyph-name="uni06F6" unicode="&#x6f6;" horiz-adv-x="577" 
d="M531 342q-97 -40 -164 -84t-123 -107t-114 -160l-88 80q94 168 182 257q-124 56 -124 208q0 57 25.5 101.5t71.5 70t106 25.5q50 0 124 -27l-30 -119q-36 6 -55 8t-42 2q-25 0 -52 -8t-42 -20q0 -64 34.5 -101.5t121.5 -38.5l2 1l127 57z" />
    <glyph glyph-name="uni06F7" unicode="&#x6f7;" horiz-adv-x="639" 
d="M607 636q-66 -88 -121 -206t-87 -226t-32 -167v-37l-107 -9v51q0 62 -23.5 159.5t-75 214.5t-129.5 229l101 97q55 -78 109 -207t75 -248q0 -2 1 -3v3q15 120 71.5 245.5t121.5 209.5z" />
    <glyph glyph-name="uni06F8" unicode="&#x6f8;" horiz-adv-x="639" 
d="M402.5 531.5q23.5 -97.5 75 -215t129.5 -229.5l-101 -96q-55 78 -109.5 207t-75.5 247q-16 -120 -72.5 -246t-120.5 -208l-96 106q66 88 121 206t87 226t32 167v37l107 9v-51q0 -62 23.5 -159.5z" />
    <glyph glyph-name="uni06F9" unicode="&#x6f9;" horiz-adv-x="576" 
d="M483.5 229q10.5 -93 35.5 -198l-123 -40q-18 67 -28 138t-10 134v24q-58 -16 -106 -16q-71 0 -108 11.5t-61 44.5q-26 38 -26 81q0 83 20.5 159t66.5 125.5t118 49.5q67 0 115 -39t72 -105.5t24 -149.5q0 -126 10.5 -219zM198.5 441q27.5 -3 57.5 -3q31 0 62 3t45 8
q0 45 -14 78.5t-37 51.5t-50 18q-26 0 -49 -18.5t-37 -52.5t-14 -77q9 -5 36.5 -8z" />
    <glyph glyph-name="uni0756" unicode="&#x756;" horiz-adv-x="883" 
d="M815 174q0 -48 -17 -80t-59 -51q-47 -22 -128.5 -35t-192.5 -13q-112 0 -188 17t-119.5 63.5t-43.5 129.5q0 21 8 72t25 150l102 -22q-24 -136 -24 -170q0 -30 20 -45.5t68.5 -21.5t143.5 -6q186 0 292 25l-24 218l127 22q10 -148 10 -253zM362.5 534q-26.5 55 -65.5 116
l80 40q26 -44 43 -80t29 -77q13 41 32 77t49 80l71 -53q-69 -101 -111 -219l-77 -9q-24 70 -50.5 125z" />
    <glyph glyph-name="uni0769" unicode="&#x769;" horiz-adv-x="716" 
d="M128 -182q-61 53 -61 158q0 37 23 170l25 161l102 -22q-39 -234 -39 -284q0 -39 45 -54t106 -15q68 0 120 8t90 27l-43 373l128 26q29 -290 29 -432q0 -59 -54 -97t-129.5 -55t-140.5 -17q-140 0 -201 53zM331 586l112 -90l-86 -104l-112 90zM244.5 814
q-26.5 55 -65.5 116l80 40q26 -44 43 -80t29 -77q13 41 32 77t49 80l71 -53q-69 -101 -111 -219l-77 -9q-24 70 -50.5 125z" />
    <glyph glyph-name="uni08A0" unicode="&#x8a0;" horiz-adv-x="883" 
d="M815 174q0 -48 -17 -80t-59 -51q-47 -22 -128.5 -35t-192.5 -13q-112 0 -188 17t-119.5 63.5t-43.5 129.5q0 21 8 72t25 150l102 -22q-24 -136 -24 -170q0 -30 20 -45.5t68.5 -21.5t143.5 -6q186 0 292 25l-24 218l127 22q10 -148 10 -253zM332.5 -254
q-26.5 55 -65.5 116l80 40q26 -44 43 -80t29 -77q13 41 32 77t49 80l71 -53q-69 -101 -111 -219l-77 -9q-24 70 -50.5 125z" />
    <glyph glyph-name="uni200B" unicode="&#x200b;" 
 />
    <glyph glyph-name="uni200C" unicode="&#x200c;" horiz-adv-x="38" 
d="M1 -17v716h36v-716h-36z" />
    <glyph glyph-name="uni200D" unicode="&#x200d;" 
d="M-17 -17v645l-74 -73l-24 25l88 88l-77 78l26 25l77 -77l81 82l25 -26l-81 -81l93 -93l-25 -26l-73 72v-639h-36z" />
    <glyph glyph-name="uni200E" unicode="&#x200e;" 
d="M-19 -17v696h173l-70 67l23 24l111 -109l-111 -109l-23 24l70 66h-137v-659h-36z" />
    <glyph glyph-name="uni200F" unicode="&#x200f;" 
d="M-19 -17v659h-137l70 -66l-23 -24l-111 109l111 109l23 -24l-70 -67h173v-696h-36z" />
    <glyph glyph-name="endash" unicode="&#x2013;" horiz-adv-x="525" 
d="M481 222h-435v97h435v-97z" />
    <glyph glyph-name="emdash" unicode="&#x2014;" horiz-adv-x="878" 
d="M834 222h-788v97h788v-97z" />
    <glyph glyph-name="quoteleft" unicode="&#x2018;" horiz-adv-x="317" 
d="M85.5 417.5q-24.5 35.5 -24.5 100.5q0 152 149 226l33 -66q-49 -25 -72 -57.5t-23 -79.5q2 1 10 1q34 0 57.5 -20.5t23.5 -54.5q0 -39 -23 -62t-58 -23q-48 0 -72.5 35.5z" />
    <glyph glyph-name="quoteright" unicode="&#x2019;" horiz-adv-x="317" 
d="M148 518q23 32 23 78q-2 -1 -9 -1q-35 0 -57.5 20.5t-22.5 55.5q0 39 22 62.5t58 23.5q47 0 72 -35.5t25 -100.5q0 -152 -150 -226l-33 66q49 25 72 57z" />
    <glyph glyph-name="quotesinglbase" unicode="&#x201a;" horiz-adv-x="328" 
d="M139.5 -60.5q30.5 33.5 29.5 74.5h-9q-38 0 -65 23.5t-27 63.5q0 39 27.5 63.5t68.5 24.5q51 0 78 -38t27 -107q0 -87 -48.5 -150t-138.5 -91l-31 81q58 22 88.5 55.5z" />
    <glyph glyph-name="quotedblleft" unicode="&#x201c;" horiz-adv-x="555" 
d="M87.5 417.5q-24.5 35.5 -24.5 100.5q0 152 149 226l33 -66q-49 -26 -72.5 -58t-23.5 -79q3 1 11 1q34 0 57 -20.5t23 -54.5q0 -39 -22.5 -62t-57.5 -23q-48 0 -72.5 35.5zM325 417.5q-25 35.5 -25 100.5q0 152 149 226l33 -66q-49 -25 -72 -57.5t-23 -79.5q2 1 11 1
q34 0 57 -20.5t23 -54.5q0 -39 -22.5 -62t-57.5 -23q-48 0 -73 35.5z" />
    <glyph glyph-name="quotedblright" unicode="&#x201d;" horiz-adv-x="555" 
d="M147 518q23 32 23 78q-2 -1 -10 -1q-34 0 -56.5 21t-22.5 55q0 39 22 62.5t57 23.5q47 0 72.5 -35.5t25.5 -100.5q0 -152 -150 -226l-33 66q49 25 72 57zM384 518q23 32 23 78q-2 -1 -9 -1q-35 0 -57.5 20.5t-22.5 55.5q0 39 22 62.5t58 23.5q47 0 72 -35.5t25 -100.5
q0 -152 -150 -226l-33 66q49 25 72 57z" />
    <glyph glyph-name="quotedblbase" unicode="&#x201e;" horiz-adv-x="320" 
d="M139.5 -60.5q30.5 33.5 29.5 74.5h-9q-38 0 -65 23.5t-27 63.5q0 39 27.5 63.5t68.5 24.5q51 0 78 -38t27 -107q0 -87 -48.5 -150t-138.5 -91l-31 81q58 22 88.5 55.5z" />
    <glyph glyph-name="dagger" unicode="&#x2020;" horiz-adv-x="550" 
d="M336 -84h-120l9 579l-175 -9v122l175 -10l-9 189h120l-9 -189l174 10v-122l-174 9z" />
    <glyph glyph-name="daggerdbl" unicode="&#x2021;" horiz-adv-x="550" 
d="M336 -84h-120l9 187l-175 -8v120l175 -11l-9 147l9 148l-175 -13v122l175 -10l-9 189h120l-9 -189l174 10v-122l-174 13l9 -148l-9 -147l174 11v-120l-174 8z" />
    <glyph glyph-name="bullet" unicode="&#x2022;" horiz-adv-x="370" 
d="M86 180q-40 42 -40 105q0 31 10.5 58.5t29.5 47.5q43 41 100 41q28 0 54 -11t46 -30q19 -20 29.5 -47.5t10.5 -58.5q0 -62 -40 -105q-20 -20 -46 -31.5t-54 -11.5q-59 0 -100 43z" />
    <glyph glyph-name="ellipsis" unicode="&#x2026;" horiz-adv-x="800" 
d="M100 13.5q-30 28.5 -30 71.5t29 71.5t72 28.5t71.5 -29t28.5 -71t-29 -71t-71 -29q-41 0 -71 28.5zM333.5 13.5q-29.5 28.5 -29.5 71.5t29 71.5t72 28.5q42 0 70.5 -29t28.5 -71t-29 -71t-70 -29q-42 0 -71.5 28.5zM565.5 13.5q-29.5 28.5 -29.5 71.5t29 71.5t72 28.5
q42 0 70.5 -29t28.5 -71t-28.5 -71t-70.5 -29t-71.5 28.5z" />
    <glyph glyph-name="perthousand" unicode="&#x2030;" horiz-adv-x="1328" 
d="M219 -12l389 744h94l-389 -744h-94zM76 329.5q-45 62.5 -45 159.5t45 157.5t124 60.5q81 0 126 -61t45 -157q0 -97 -45 -159.5t-126 -62.5q-79 0 -124 62.5zM254 388q16 40 16 101q0 62 -16 100t-54 38q-36 0 -52.5 -38t-16.5 -100q0 -63 17 -102t52 -39q38 0 54 40z
M589.5 50q-44.5 62 -44.5 159q0 98 45 158t125 60t125 -61t45 -157q0 -97 -45 -159t-125 -62q-81 0 -125.5 62zM1003.5 50q-44.5 62 -44.5 159q0 98 45 158t125 60t125.5 -61t45.5 -157q0 -97 -45 -159t-126 -62t-125.5 62zM768 108.5q16 40.5 16 100.5q0 61 -16.5 100
t-52.5 39t-52.5 -39t-16.5 -100q0 -63 17 -102t52 -39q37 0 53 40.5zM1182.5 108q15.5 40 15.5 101q0 62 -16 100.5t-53 38.5q-36 0 -52.5 -39t-16.5 -100q0 -63 17 -102t52 -39q38 0 53.5 40z" />
    <glyph glyph-name="guilsinglleft" unicode="&#x2039;" horiz-adv-x="314" 
d="M257 108l-56 -46l-148 160v107l148 160l56 -45l-124 -169z" />
    <glyph glyph-name="guilsinglright" unicode="&#x203a;" horiz-adv-x="314" 
d="M263 222l-147 -160l-57 46l123 167l-123 169l57 45l147 -160v-107z" />
    <glyph glyph-name="fraction" unicode="&#x2044;" horiz-adv-x="120" 
d="M-87 -13h-95l389 745h96z" />
    <glyph glyph-name="Euro" unicode="&#x20ac;" horiz-adv-x="575" 
d="M190 55q-73 67 -97 186h-69v70l60 5q-1 9 -1 30q0 22 3 31h-62v70l69 6q24 121 100.5 190.5t188.5 69.5q48 0 94 -22t81 -63l-84 -81q-47 50 -98 50t-84 -37t-47 -106h242v-77h-250q-1 -8 -1 -29l1 -30h206v-77h-195q15 -67 48 -102t83 -35q32 0 56.5 15t48.5 47l84 -77
q-81 -101 -198 -101q-106 0 -179 67z" />
    <glyph glyph-name="trademark" unicode="&#x2122;" horiz-adv-x="744" 
d="M201 387h-97v255h-98v89h293v-89h-98v-255zM438 387h-89v344h112l43 -112l26 -75h6l26 75l43 112h113v-344h-90v112l12 126h-7l-65 -187h-71l-64 187h-7l12 -126v-112z" />
    <glyph glyph-name="arrowleft" unicode="&#x2190;" horiz-adv-x="678" 
d="M330 -20l-305 292v5l305 294l70 -82l-174 -154h409v-120h-409l174 -154z" />
    <glyph glyph-name="arrowup" unicode="&#x2191;" horiz-adv-x="677" 
d="M399 -27h-120v409l-154 -174l-81 70l293 304h4l294 -304l-81 -70l-155 174v-409z" />
    <glyph glyph-name="arrowright" unicode="&#x2192;" horiz-adv-x="674" 
d="M40 200v119h409l-174 155l70 81l304 -293v-4l-304 -294l-70 81l174 155h-409z" />
    <glyph glyph-name="arrowdown" unicode="&#x2193;" horiz-adv-x="677" 
d="M399 562v-410l155 174l81 -69l-294 -305h-4l-293 305l81 69l154 -174v410h120z" />
    <glyph glyph-name="partialdiff" unicode="&#x2202;" horiz-adv-x="624" 
d="M156.5 16q-48.5 28 -76.5 77.5t-28 110.5q0 72 29.5 128.5t83 88.5t123.5 32q40 0 77 -18t66 -51q2 14 2 27q0 100 -30 150t-97 50q-62 0 -115 -51l-63 92q88 79 195 79q125 0 188 -84t63 -233q0 -118 -36 -215t-106 -154t-168 -57q-59 0 -107.5 28zM368.5 149.5
q36.5 40.5 52.5 124.5q-47 67 -116 67q-54 0 -85 -32.5t-31 -95.5q0 -49 26.5 -76.5t65.5 -27.5q51 0 87.5 40.5z" />
    <glyph glyph-name="product" unicode="&#x220f;" horiz-adv-x="771" 
d="M238 -127h-149v830h595v-830h-150v701h-296v-701z" />
    <glyph glyph-name="summation" unicode="&#x2211;" horiz-adv-x="582" 
d="M573 -127h-544v89l234 326l-222 327v88h505v-125h-324v-6l193 -284l-201 -282v-7h359v-126z" />
    <glyph glyph-name="minus" unicode="&#x2212;" horiz-adv-x="589" 
d="M539 190h-489v106h489v-106z" />
    <glyph glyph-name="radical" unicode="&#x221a;" horiz-adv-x="642" 
d="M307 -86l-166 456l-81 -34l-26 69l182 75l112 -331q7 -24 16 -62l7 -26h6q4 29 16 89l177 755h99l-239 -991h-103z" />
    <glyph glyph-name="infinity" unicode="&#x221e;" horiz-adv-x="889" 
d="M516.5 158q-51.5 31 -104.5 100h-5q-37 -48 -83.5 -75.5t-98.5 -27.5q-50 0 -92 26.5t-66.5 70.5t-24.5 94q0 104 55.5 162.5t148.5 58.5q58 0 101 -27.5t80 -75.5h5q46 59 97.5 89.5t114.5 30.5q58 0 105 -28t73.5 -77t26.5 -109q0 -71 -26.5 -126t-75 -86t-112.5 -31
q-67 0 -118.5 31zM711 294.5q28 29.5 28 72.5q0 51 -30 80t-81 29q-38 0 -75.5 -24t-71.5 -71q43 -58 77.5 -87t77.5 -29q47 0 75 29.5zM304.5 285q30.5 21 54.5 57q-63 88 -126 88q-39 0 -60 -22t-21 -58t24 -61t63 -25q35 0 65.5 21z" />
    <glyph glyph-name="integral" unicode="&#x222b;" horiz-adv-x="417" 
d="M49 -159l14 107q15 -4 38 -4q43 0 57.5 34.5t14.5 118.5q0 56 -5.5 115t-15.5 136q-11 85 -16.5 142.5t-5.5 117.5q0 134 44.5 200.5t154.5 66.5q33 0 59 -7l-15 -107q-13 3 -38 3q-43 0 -56.5 -34.5t-13.5 -117.5q0 -50 4.5 -98.5t13.5 -126.5l3 -26q2 -14 2 -20
q9 -73 14 -128.5t5 -111.5q0 -135 -44 -201.5t-154 -66.5q-36 0 -60 8z" />
    <glyph glyph-name="approxequal" unicode="&#x2248;" horiz-adv-x="573" 
d="M327.5 393q-24.5 11 -50.5 31q-6 4 -23.5 17t-32.5 19t-29 6q-46 0 -81 -64l-77 60q71 111 160 111q30 0 54 -11t53 -31q29 -23 46 -33t37 -10q23 0 42.5 16t38.5 47l78 -59q-71 -110 -161 -110q-30 0 -54.5 11zM327.5 150q-24.5 11 -50.5 31l-24.5 17.5t-32 19
t-28.5 6.5q-44 0 -81 -65l-77 61q72 110 160 110q30 0 54 -11t53 -31q29 -23 46 -33t37 -10q23 0 42.5 16t38.5 47l78 -59q-71 -110 -161 -110q-30 0 -54.5 11z" />
    <glyph glyph-name="notequal" unicode="&#x2260;" horiz-adv-x="503" 
d="M457 278h-129l-63 -87h192v-106h-269l-38 -53h-90l38 53h-48v106h123l62 87h-185v107h262l34 48h94l-35 -48h52v-107z" />
    <glyph glyph-name="lessequal" unicode="&#x2264;" horiz-adv-x="573" 
d="M538 294v-124l-500 158v125l500 159v-124l-195 -55l-153 -39v-5l153 -39zM538 1h-500v106h500v-106z" />
    <glyph glyph-name="greaterequal" unicode="&#x2265;" horiz-adv-x="573" 
d="M538 328l-500 -158v124l195 56l153 39v5l-153 39l-195 55v124l500 -159v-125zM538 1h-500v106h500v-106z" />
    <glyph glyph-name="dotabove-ar" unicode="&#xfbb2;" 
d="M-13 194l112 -90l-86 -104l-112 90z" />
    <glyph glyph-name="dotbelow-ar" unicode="&#xfbb3;" 
d="M-13 0l112 -90l-86 -104l-112 90z" />
    <glyph glyph-name="twodotshorizontalabove-ar" unicode="&#xfbb4;" 
d="M-93 181l100 -81l-81 -100l-100 81zM74 181l100 -81l-81 -100l-100 81z" />
    <glyph glyph-name="twodotshorizontalbelow-ar" unicode="&#xfbb5;" 
d="M-93 0l100 -81l-81 -100l-100 81zM74 0l100 -81l-81 -100l-100 81z" />
    <glyph glyph-name="threedotsupabove-ar" unicode="&#xfbb6;" 
d="M-13 342l95 -77l-77 -96l-96 77zM-89 173l96 -77l-77 -96l-96 77zM70 173l96 -77l-77 -96l-96 77z" />
    <glyph glyph-name="threedotsdownbelow-ar" unicode="&#xfbb9;" 
d="M-89 0l96 -77l-77 -96l-96 77zM70 0l96 -77l-77 -96l-96 77zM-5 -169l96 -77l-78 -96l-95 77z" />
    <glyph glyph-name="uniFD3E" unicode="&#xfd3e;" horiz-adv-x="390" 
d="M118 6q-27 109 -27 229q0 119 27 228t93 222l91 -77q-47 -72 -72 -173t-25 -200q0 -101 25 -202t72 -173l-91 -77q-66 114 -93 223z" />
    <glyph glyph-name="uniFD3F" unicode="&#xfd3f;" horiz-adv-x="390" 
d="M161 33q25 101 25 202q0 99 -25 200t-72 173l91 77q66 -113 93 -222t27 -228q0 -120 -27 -229t-93 -223l-91 77q47 72 72 173z" />
    <glyph glyph-name="uni0627.short" horiz-adv-x="257" 
d="M57 601l132 22l2 -623l-110 -14z" />
    <glyph glyph-name="uniFE8E.short" horiz-adv-x="320" 
d="M326.5 155q2.5 -12 2.5 -28v-87q0 -17 -2.5 -28.5t-6.5 -11.5h-31q-73 0 -117.5 22t-67.5 75.5t-28 150.5l-19 353l132 22l2 -373q0 -38 20.5 -60.5t60.5 -22.5h48q4 0 6.5 -12z" />
    <glyph glyph-name="uni0769.fina" horiz-adv-x="794" 
d="M801 155q3 -12 3 -28v-87q0 -16 -3 -28t-7 -12h-13q-42 0 -76.5 17.5t-56.5 57.5q5 -90 5 -141q0 -59 -54 -97t-129.5 -55t-140.5 -17q-140 0 -201 53t-61 158q0 37 23 170l25 161l102 -22q-39 -234 -39 -284q0 -39 45 -54t106 -15q68 0 120 8t90 27l-43 373l128 26
l15 -123q4 -37 18 -53t39.5 -19.5t84.5 -3.5h13q4 0 7 -12zM331 586l112 -90l-86 -104l-112 90zM244.5 814q-26.5 55 -65.5 116l80 40q26 -44 43 -80t29 -77q13 41 32 77t49 80l71 -53q-69 -101 -111 -219l-77 -9q-24 70 -50.5 125z" />
    <glyph glyph-name="uniFEFC.alt" horiz-adv-x="613" 
d="M620 155q3 -12 3 -28v-87q0 -16 -3 -28t-7 -12h-45q-65 0 -102.5 17.5t-55.5 56.5q-57 -50 -152 -75.5t-197 -30.5l-22 167q91 5 184.5 24.5t136.5 43.5l-32 538l132 22l10 -520q1 -32 9.5 -48t30.5 -22t67 -6h36q4 0 7 -12zM143 192q0 193 -68 333l106 70
q44 -96 56.5 -187.5t12.5 -192.5z" />
    <glyph glyph-name="uniFEFB.alt" horiz-adv-x="542" 
d="M223.5 159.5q93.5 19.5 136.5 43.5l-32 538l132 22l10 -559q1 -81 -62 -132t-156 -75t-191 -29l-22 167q91 5 184.5 24.5zM75 525l106 70q44 -96 56.5 -187.5t12.5 -192.5l-107 -23q0 193 -68 333z" />
    <glyph glyph-name="uniFE92FB8B" horiz-adv-x="784" 
d="M258 730l-77 -96l-96 77l78 96zM183 561l-77 -96l-96 77l77 96zM169 542l77 96l96 -77l-77 -96zM790 154.5q3 -12.5 3 -27.5v-87q0 -16 -3 -28t-6 -12q-103 0 -156.5 29.5t-73.5 106.5q-59 -48 -149 -48q-84 0 -126 42q2 -46 2 -64q0 -117 -71 -208t-241 -171l-88 127
q135 60 197 110.5t89 106.5l-42 305l132 27l5 -45q3 -26 15.5 -39t42 -18.5t85.5 -5.5q88 0 133 19l-3 96l119 13l1 -134q0 -35 12.5 -52.5t39 -23.5t77.5 -6q3 0 6 -12.5zM442 -96l112 -90l-86 -104l-112 90z" />
    <glyph glyph-name="uniFB59FEAE" horiz-adv-x="784" 
d="M790 154.5q3 -12.5 3 -27.5v-87q0 -16 -3 -28t-6 -12q-103 0 -156.5 29.5t-73.5 106.5q-59 -48 -149 -48q-84 0 -126 42q2 -46 2 -64q0 -117 -71 -208t-241 -171l-88 127q135 60 197 110.5t89 106.5l-42 305l132 27l5 -45q3 -26 15.5 -39t42 -18.5t85.5 -5.5q88 0 133 19
l-3 96l119 13l1 -134q0 -35 12.5 -52.5t39 -23.5t77.5 -6q3 0 6 -12.5zM366 -96l96 -77l-77 -96l-96 77zM525 -96l96 -77l-77 -96l-96 77zM450 -265l96 -77l-78 -96l-95 77z" />
    <glyph glyph-name="uniFB59FEB0" horiz-adv-x="784" 
d="M275 569l-86 -104l-112 90l86 104zM790 154.5q3 -12.5 3 -27.5v-87q0 -16 -3 -28t-6 -12q-103 0 -156.5 29.5t-73.5 106.5q-59 -48 -149 -48q-84 0 -126 42q2 -46 2 -64q0 -117 -71 -208t-241 -171l-88 127q135 60 197 110.5t89 106.5l-42 305l132 27l5 -45
q3 -26 15.5 -39t42 -18.5t85.5 -5.5q88 0 133 19l-3 96l119 13l1 -134q0 -35 12.5 -52.5t39 -23.5t77.5 -6q3 0 6 -12.5zM366 -96l96 -77l-77 -96l-96 77zM525 -96l96 -77l-77 -96l-96 77zM450 -265l96 -77l-78 -96l-95 77z" />
    <glyph glyph-name="uniFB59FB8B" horiz-adv-x="784" 
d="M258 730l-77 -96l-96 77l78 96zM183 561l-77 -96l-96 77l77 96zM169 542l77 96l96 -77l-77 -96zM790 154.5q3 -12.5 3 -27.5v-87q0 -16 -3 -28t-6 -12q-103 0 -156.5 29.5t-73.5 106.5q-59 -48 -149 -48q-84 0 -126 42q2 -46 2 -64q0 -117 -71 -208t-241 -171l-88 127
q135 60 197 110.5t89 106.5l-42 305l132 27l5 -45q3 -26 15.5 -39t42 -18.5t85.5 -5.5q88 0 133 19l-3 96l119 13l1 -134q0 -35 12.5 -52.5t39 -23.5t77.5 -6q3 0 6 -12.5zM366 -96l96 -77l-77 -96l-96 77zM525 -96l96 -77l-77 -96l-96 77zM450 -265l96 -77l-78 -96l-95 77z
" />
    <glyph glyph-name="uniFB59FEE6" horiz-adv-x="1151" 
d="M443 496l-86 -104l-112 90l85 104zM1157 154.5q3 -12.5 3 -27.5v-87q0 -16 -3 -28t-6 -12q-103 0 -156.5 29.5t-73.5 106.5q-59 -48 -149 -48q-87 0 -128 43q9 -114 9 -197q0 -59 -54 -97t-129.5 -55t-140.5 -17q-140 0 -201 53t-61 158q0 37 23 170l25 161l102 -22
q-39 -234 -39 -284q0 -39 45 -54t106 -15q68 0 120 8t90 27l-43 373l128 26l5 -48q3 -26 15.5 -39t42 -18.5t85.5 -5.5q88 0 133 19l-3 96l119 13l1 -134q0 -35 12.5 -52.5t39 -23.5t77.5 -6q3 0 6 -12.5zM737 -96l96 -77l-77 -96l-96 77zM896 -96l96 -77l-77 -96l-96 77z
M821 -265l96 -77l-78 -96l-95 77z" />
    <glyph glyph-name="uniFB59FEF0" horiz-adv-x="983" 
d="M989.5 155q2.5 -12 2.5 -28v-87q0 -17 -2.5 -28.5t-6.5 -11.5q-79 0 -128 25.5t-73.5 60.5t-49.5 89q-17 36 -29.5 56t-31.5 33.5t-47 13.5q-43 0 -85.5 -29t-60.5 -70q80 -9 121.5 -22.5t67.5 -52.5t26 -118q0 -83 -49.5 -139t-132 -83.5t-182.5 -27.5q-140 0 -201 53
t-61 159q0 36 23 171l25 159l102 -22q-39 -234 -39 -283q0 -39 45 -54t106 -15q93 0 155.5 12.5t99.5 40.5q3 12 3 19q0 14 -7.5 23.5t-20.5 10.5q-74 6 -113.5 15t-61 29.5t-21.5 60.5q0 75 40.5 148t101.5 118.5t118 45.5q55 0 90.5 -18t54.5 -44.5t40 -69.5t39 -68.5
t51 -42.5t85 -17q4 0 6.5 -12zM797 -120l96 -77l-77 -96l-96 77zM956 -120l96 -77l-77 -96l-96 77zM881 -289l96 -77l-78 -96l-95 77z" />
    <glyph glyph-name="uniFE98FB8B" horiz-adv-x="784" 
d="M258 730l-77 -96l-96 77l78 96zM183 561l-77 -96l-96 77l77 96zM169 542l77 96l96 -77l-77 -96zM790 154.5q3 -12.5 3 -27.5v-87q0 -16 -3 -28t-6 -12q-103 0 -156.5 29.5t-73.5 106.5q-59 -48 -149 -48q-84 0 -126 42q2 -46 2 -64q0 -117 -71 -208t-241 -171l-88 127
q135 60 197 110.5t89 106.5l-42 305l132 27l5 -45q3 -26 15.5 -39t42 -18.5t85.5 -5.5q88 0 133 19l-3 96l119 13l1 -134q0 -35 12.5 -52.5t39 -23.5t77.5 -6q3 0 6 -12.5zM499 658l100 -81l-81 -100l-100 81zM666 658l100 -81l-81 -100l-100 81z" />
    <glyph glyph-name="uniFE9CFB8B" horiz-adv-x="784" 
d="M258 730l-77 -96l-96 77l78 96zM183 561l-77 -96l-96 77l77 96zM169 542l77 96l96 -77l-77 -96zM790 154.5q3 -12.5 3 -27.5v-87q0 -16 -3 -28t-6 -12q-103 0 -156.5 29.5t-73.5 106.5q-59 -48 -149 -48q-84 0 -126 42q2 -46 2 -64q0 -117 -71 -208t-241 -171l-88 127
q135 60 197 110.5t89 106.5l-42 305l132 27l5 -45q3 -26 15.5 -39t42 -18.5t85.5 -5.5q88 0 133 19l-3 96l119 13l1 -134q0 -35 12.5 -52.5t39 -23.5t77.5 -6q3 0 6 -12.5zM579 819l95 -77l-77 -96l-96 77zM503 650l96 -77l-77 -96l-96 77zM662 650l96 -77l-77 -96l-96 77z
" />
    <glyph glyph-name="uni06B5.mediFE8E.medi.fina.alt" horiz-adv-x="613" 
d="M308.5 945q-26.5 55 -65.5 116l80 40q26 -44 43 -80t29 -77q13 41 32 77t49 80l71 -53q-69 -101 -111 -219l-77 -9q-24 70 -50.5 125zM620 155q3 -12 3 -28v-87q0 -16 -3 -28t-7 -12h-45q-65 0 -102.5 17.5t-55.5 56.5q-57 -50 -152 -75.5t-197 -30.5l-22 167
q91 5 184.5 24.5t136.5 43.5l-32 538l132 22l10 -520q1 -32 9.5 -48t30.5 -22t67 -6h36q4 0 7 -12zM143 192q0 106 -24 217t-99 212l97 84q84 -120 108.5 -241t24.5 -249z" />
    <glyph glyph-name="uni06B5.initFE8E.alt" horiz-adv-x="542" 
d="M223.5 159.5q93.5 19.5 136.5 43.5l-32 538l132 22l10 -559q1 -81 -62 -132t-156 -75t-191 -29l-22 167q91 5 184.5 24.5zM119 409q-24 111 -99 212l97 84q84 -120 108.5 -241t24.5 -249l-107 -23q0 106 -24 217zM308.5 945q-26.5 55 -65.5 116l80 40q26 -44 43 -80
t29 -77q13 41 32 77t49 80l71 -53q-69 -101 -111 -219l-77 -9q-24 70 -50.5 125z" />
    <glyph glyph-name="uniFEE8FB8B" horiz-adv-x="784" 
d="M258 730l-77 -96l-96 77l78 96zM183 561l-77 -96l-96 77l77 96zM169 542l77 96l96 -77l-77 -96zM790 154.5q3 -12.5 3 -27.5v-87q0 -16 -3 -28t-6 -12q-103 0 -156.5 29.5t-73.5 106.5q-59 -48 -149 -48q-84 0 -126 42q2 -46 2 -64q0 -117 -71 -208t-241 -171l-88 127
q135 60 197 110.5t89 106.5l-42 305l132 27l5 -45q3 -26 15.5 -39t42 -18.5t85.5 -5.5q88 0 133 19l-3 96l119 13l1 -134q0 -35 12.5 -52.5t39 -23.5t77.5 -6q3 0 6 -12.5zM579 671l112 -90l-86 -104l-112 90z" />
    <glyph glyph-name="uniFEF4FB8B" horiz-adv-x="784" 
d="M258 730l-77 -96l-96 77l78 96zM183 561l-77 -96l-96 77l77 96zM169 542l77 96l96 -77l-77 -96zM790 154.5q3 -12.5 3 -27.5v-87q0 -16 -3 -28t-6 -12q-103 0 -156.5 29.5t-73.5 106.5q-59 -48 -149 -48q-84 0 -126 42q2 -46 2 -64q0 -117 -71 -208t-241 -171l-88 127
q135 60 197 110.5t89 106.5l-42 305l132 27l5 -45q3 -26 15.5 -39t42 -18.5t85.5 -5.5q88 0 133 19l-3 96l119 13l1 -134q0 -35 12.5 -52.5t39 -23.5t77.5 -6q3 0 6 -12.5zM362 -96l100 -81l-81 -100l-100 81zM529 -96l100 -81l-81 -100l-100 81z" />
    <glyph glyph-name="zero.dnom" horiz-adv-x="399" 
d="M75.5 49q-45.5 62 -45.5 160t45.5 158.5t124.5 60.5q81 0 126.5 -61t45.5 -158q0 -98 -46 -160t-126 -62q-79 0 -124.5 62zM253 108.5q16 39.5 16 100.5q0 62 -16.5 100t-52.5 38q-35 0 -52 -38t-17 -100q0 -63 17 -101.5t52 -38.5q37 0 53 39.5z" />
    <glyph glyph-name="uni06F4.urdu" horiz-adv-x="639" 
d="M526.5 718.5q30.5 -14.5 51.5 -45.5l-97 -117q-8 6 -15.5 7.5t-15.5 2t-12 0.5q-25 0 -39 -17t-14 -45l-1 -68l-98 5l1 111q-28 14 -64 14q-25 0 -41.5 -14t-16.5 -45q0 -18 14 -49.5t45 -90.5q46 -89 77 -158t54 -146l-79 -71q-21 64 -50 127t-73 153q-52 103 -77 164
t-25 103q0 83 40 138.5t108 55.5q41 0 74.5 -14t57.5 -50q40 64 130 64q35 0 65.5 -14.5z" />
    <glyph glyph-name="uni06F7.urdu" horiz-adv-x="679" 
d="M578 199l69 -1l-76 -166q-144 -2 -247.5 -9.5t-195.5 -31.5l-96 106q91 124 142.5 214.5t75 172.5t24.5 174l106 9q-1 -144 -34 -263t-90 -223q138 18 322 18z" />
    <glyph glyph-name="waslaar" 
d="M-70 14.5q-32 14.5 -32 48.5v36q-12 -9 -29.5 -31.5t-29.5 -48.5l-63 36q6 24 31 59t62.5 60.5t78.5 22.5v-69q0 -9 5.5 -13t11.5 -4q40 51 78.5 86t79.5 35q52 0 76 -28.5t24 -90.5q0 -39 -14 -56q-24 -26 -73.5 -41.5t-106.5 -15.5q-67 0 -99 14.5zM156 106
q-1 22 -9 32t-26 10q-19 0 -43 -15.5t-51 -43.5q71 1 129 17z" />
    <glyph glyph-name="hamzacenterar" 
d="M-172 -93l96 26q-16 36 -21.5 61.5t-5.5 54.5q0 44 37.5 68.5t91.5 24.5q39 0 70 -9l-17 -89q-32 8 -48 9q-8 1 -23 1q-23 0 -35 -5q0 -19 7.5 -37.5t28.5 -56.5l145 44l18 -89l-331 -92z" />
    <glyph glyph-name="uni0654064F" 
d="M-172 -81l96 26q-16 36 -21.5 61.5t-5.5 54.5q0 44 37.5 68.5t91.5 24.5q39 0 70 -9l-17 -89q-32 8 -48 9q-8 1 -23 1q-23 0 -35 -5q0 -19 7.5 -37.5t28.5 -56.5l145 44l18 -89l-331 -92zM-172 265l129 35q-9 -1 -13 8.5t-4 21.5q0 21 11.5 56t38 63.5t68.5 28.5
q50 0 82 -42t32 -103q0 -30 -10 -47t-27 -25t-49 -17l-245 -68zM97 331q0 30 -12 48t-31 18q-12 0 -24 -18t-15 -48q15 -6 38 -6q26 0 44 6z" />
    <glyph glyph-name="uni0654064C" 
d="M-172 -101l96 26q-16 36 -21.5 61.5t-5.5 54.5q0 44 37.5 68.5t91.5 24.5q39 0 70 -9l-17 -89q-32 8 -48 9q-8 1 -23 1q-23 0 -35 -5q0 -19 7.5 -37.5t28.5 -56.5l145 44l18 -89l-331 -92zM140 416q32 -42 32 -103q0 -30 -10 -47t-27 -25t-49 -17l-245 -68l-10 66
q-20 44 -20 85q0 19 5.5 41.5t16.5 58.5q-1 -1 11 36l79 -27q-16 -44 -22 -67.5t-6 -41.5q0 -21 10 -41l52 14q-9 -1 -13 8.5t-4 21.5q0 21 11.5 56t38 63.5t68.5 28.5q50 0 82 -42zM97 311q0 30 -12 48t-31 18q-12 0 -24 -18t-15 -48q15 -6 38 -6q26 0 44 6z" />
    <glyph glyph-name="uni0654064E" 
d="M-172 89l96 26q-16 36 -21.5 61.5t-5.5 54.5q0 44 37.5 68.5t91.5 24.5q39 0 70 -9l-17 -89q-32 8 -48 9q-8 1 -23 1q-23 0 -35 -5q0 -19 7.5 -37.5t28.5 -56.5l145 44l18 -89l-331 -92zM-159 329l-13 89l331 92l13 -89z" />
    <glyph glyph-name="uni0654064B" 
d="M-172 -140l96 26q-16 36 -21.5 61.5t-5.5 54.5q0 44 37.5 68.5t91.5 24.5q39 0 70 -9l-17 -89q-32 8 -48 9q-8 1 -23 1q-23 0 -35 -5q0 -19 7.5 -37.5t28.5 -56.5l145 44l18 -89l-331 -92zM-159 117l-13 89l331 92l13 -89zM-159 289l-13 89l331 92l13 -89z" />
    <glyph glyph-name="uni06540652" 
d="M-172 -120l96 26q-16 36 -21.5 61.5t-5.5 54.5q0 44 37.5 68.5t91.5 24.5q39 0 70 -9l-17 -89q-32 8 -48 9q-8 1 -23 1q-23 0 -35 -5q0 -19 7.5 -37.5t28.5 -56.5l145 44l18 -89l-331 -92zM-112 273q0 37 21.5 66t57.5 39q15 4 32 4q37 0 66.5 -22.5t40.5 -61.5
q5 -20 5 -37q0 -38 -21.5 -66.5t-59.5 -38.5l-42 -11q-16 -4 -31 -4q-25 0 -40.5 15.5t-24.5 47.5l115 32q25 8 25 27q0 16 -8.5 24.5t-20.5 8.5q-16 0 -24.5 -7.5t-8.5 -18.5q0 -2 2 -10l-79 -22q-5 20 -5 35z" />
    <glyph glyph-name="uni06550650" 
d="M-172 74l96 26q-16 36 -21.5 61.5t-5.5 54.5q0 44 37.5 68.5t91.5 24.5q39 0 70 -9l-17 -89q-32 8 -48 9q-8 1 -23 1q-23 0 -35 -5q0 -19 7.5 -37.5t28.5 -56.5l145 44l18 -89l-331 -92zM-159 -196l-13 89l331 92l13 -89z" />
    <glyph glyph-name="uni0655064D" 
d="M-172 94l96 26q-16 36 -21.5 61.5t-5.5 54.5q0 44 37.5 68.5t91.5 24.5q39 0 70 -9l-17 -89q-32 8 -48 9q-8 1 -23 1q-23 0 -35 -5q0 -19 7.5 -37.5t28.5 -56.5l145 44l18 -89l-331 -92zM-159 -192l-13 89l331 92l13 -89zM-159 -364l-13 89l331 92l13 -89z" />
    <glyph glyph-name="uni06510670" 
d="M-145 23q-27 23 -27 62q0 22 2.5 48t7.5 62l67 -14l-10 -60q-3 -16 6.5 -24t25.5 -8q20 0 41 12v65h63v-56q0 -12 8.5 -16.5t24.5 -4.5q17 0 37 11q-2 48 -10 87l71 22q10 -59 10 -112q0 -46 -29 -71.5t-72 -25.5q-25 0 -40 7t-28 21q-14 -13 -34.5 -20.5t-43.5 -7.5
q-43 0 -70 23zM-27 232l-9 178l73 13l-5 -191h-59z" />
    <glyph glyph-name="uni0651064F" 
d="M-145 -140q-27 23 -27 62q0 22 2.5 48t7.5 62l67 -14l-10 -60q-3 -16 6.5 -24t25.5 -8q20 0 41 12v65h63v-56q0 -12 8.5 -16.5t24.5 -4.5q17 0 37 11q-2 48 -10 87l71 22q10 -59 10 -112q0 -46 -29 -71.5t-72 -25.5q-25 0 -40 7t-28 21q-14 -13 -34.5 -20.5t-43.5 -7.5
q-43 0 -70 23zM-172 155l129 35q-9 -1 -13 8.5t-4 21.5q0 21 11.5 56t38 63.5t68.5 28.5q50 0 82 -42t32 -103q0 -30 -10 -47t-27 -25t-49 -17l-245 -68zM97 221q0 30 -12 48t-31 18q-12 0 -24 -18t-15 -48q15 -6 38 -6q26 0 44 6z" />
    <glyph glyph-name="uni0651064C" 
d="M-133 -142q-27 23 -27 62q0 22 2.5 48t7.5 62l67 -14l-10 -60q-3 -16 6.5 -24t25.5 -8q20 0 41 12v65h63v-56q0 -12 8.5 -16.5t24.5 -4.5q17 0 37 11q-2 48 -10 87l71 22q10 -59 10 -112q0 -46 -29 -71.5t-72 -25.5q-25 0 -40 7t-28 21q-14 -13 -34.5 -20.5t-43.5 -7.5
q-43 0 -70 23zM152 324q32 -42 32 -103q0 -30 -10 -47t-27 -25t-49 -17l-245 -68l-10 66q-20 44 -20 85q0 19 5.5 41.5t16.5 58.5q-1 -1 11 36l79 -27q-16 -44 -22 -67.5t-6 -41.5q0 -21 10 -41l52 14q-9 -1 -13 8.5t-4 21.5q0 21 11.5 56t38 63.5t68.5 28.5q50 0 82 -42z
M109 219q0 30 -12 48t-31 18q-12 0 -24 -18t-15 -48q15 -6 38 -6q26 0 44 6z" />
    <glyph glyph-name="uni0651064E" 
d="M-145 23q-27 23 -27 62q0 22 2.5 48t7.5 62l67 -14l-10 -60q-3 -16 6.5 -24t25.5 -8q20 0 41 12v65h63v-56q0 -12 8.5 -16.5t24.5 -4.5q17 0 37 11q-2 48 -10 87l71 22q10 -59 10 -112q0 -46 -29 -71.5t-72 -25.5q-25 0 -40 7t-28 21q-14 -13 -34.5 -20.5t-43.5 -7.5
q-43 0 -70 23zM-159 212l-13 89l331 92l13 -89z" />
    <glyph glyph-name="uni0651064B.1" 
d="M-145 -90q-27 23 -27 62q0 22 2.5 48t7.5 62l67 -14l-10 -60q-3 -16 6.5 -24t25.5 -8q20 0 41 12v65h63v-56q0 -12 8.5 -16.5t24.5 -4.5q17 0 37 11q-2 48 -10 87l71 22q10 -59 10 -112q0 -46 -29 -71.5t-72 -25.5q-25 0 -40 7t-28 21q-14 -13 -34.5 -20.5t-43.5 -7.5
q-43 0 -70 23zM-159 116l-13 89l331 92l13 -89zM-159 288l-13 89l331 92l13 -89z" />
    <glyph glyph-name="uni06510650" 
d="M-145 23q-27 23 -27 62q0 22 2.5 48t7.5 62l67 -14l-10 -60q-3 -16 6.5 -24t25.5 -8q20 0 41 12v65h63v-56q0 -12 8.5 -16.5t24.5 -4.5q17 0 37 11q-2 48 -10 87l71 22q10 -59 10 -112q0 -46 -29 -71.5t-72 -25.5q-25 0 -40 7t-28 21q-14 -13 -34.5 -20.5t-43.5 -7.5
q-43 0 -70 23zM-159 -191l-13 89l331 92l13 -89z" />
    <glyph glyph-name="uni0651064D" 
d="M-145 23q-27 23 -27 62q0 22 2.5 48t7.5 62l67 -14l-10 -60q-3 -16 6.5 -24t25.5 -8q20 0 41 12v65h63v-56q0 -12 8.5 -16.5t24.5 -4.5q17 0 37 11q-2 48 -10 87l71 22q10 -59 10 -112q0 -46 -29 -71.5t-72 -25.5q-25 0 -40 7t-28 21q-14 -13 -34.5 -20.5t-43.5 -7.5
q-43 0 -70 23zM-159 -194l-13 89l331 92l13 -89zM-159 -366l-13 89l331 92l13 -89z" />
    <glyph glyph-name="vbelowar" 
d="M-86.5 125q-26.5 55 -65.5 116l80 40q26 -44 43 -80t29 -77q13 41 32 77t49 80l71 -53q-69 -101 -111 -219l-77 -9q-24 70 -50.5 125z" />
    <glyph glyph-name="keheharN.alt" horiz-adv-x="883" 
d="M771 352q45 -95 45 -190q0 -61 -43 -98t-130 -53t-225 -16q-112 0 -188 17t-119.5 63.5t-43.5 129.5q0 21 8 72t25 150l102 -22q-24 -136 -24 -170q0 -31 21.5 -46.5t69.5 -21t141 -5.5q185 0 290 23q-9 77 -75 160t-174 149l5 134q144 68 321 135l17 -137
q-85 -30 -188 -76q12 -7 26 -20q94 -83 139 -178z" />
    <glyph glyph-name="reharshort.alt" horiz-adv-x="348" 
d="M86 -79q54 53 81 110l-42 305l132 27q13 -113 18.5 -180t5.5 -117q0 -114 -62 -206t-201 -173l-88 127q102 54 156 107z" />
    <glyph glyph-name="behDotlessarK.init.alt" horiz-adv-x="458" 
d="M391 175q0 -38 -14.5 -71.5t-47.5 -55.5q-37 -25 -109 -36.5t-220 -11.5q-4 0 -6.5 11.5t-2.5 28.5v87q0 16 2.5 28t6.5 12q125 0 184.5 4.5t92.5 19.5l-23 214l127 22q10 -154 10 -252z" />
    <glyph glyph-name="beharK.init.alt" horiz-adv-x="458" 
d="M391 175q0 -38 -14.5 -71.5t-47.5 -55.5q-37 -25 -109 -36.5t-220 -11.5q-4 0 -6.5 11.5t-2.5 28.5v87q0 16 2.5 28t6.5 12q125 0 184.5 4.5t92.5 19.5l-23 214l127 22q10 -154 10 -252zM87 -120l112 -90l-86 -104l-112 90z" />
    <glyph glyph-name="yehfarsik.init.alt" horiz-adv-x="458" 
d="M391 175q0 -38 -14.5 -71.5t-47.5 -55.5q-37 -25 -109 -36.5t-220 -11.5q-4 0 -6.5 11.5t-2.5 28.5v87q0 16 2.5 28t6.5 12q125 0 184.5 4.5t92.5 19.5l-23 214l127 22q10 -154 10 -252zM7 -120l100 -81l-81 -100l-100 81zM174 -120l100 -81l-81 -100l-100 81z" />
    <glyph glyph-name="zainarshort.alt" horiz-adv-x="348" 
d="M86 -79q54 53 81 110l-42 305l132 27q13 -113 18.5 -180t5.5 -117q0 -114 -62 -206t-201 -173l-88 127q102 54 156 107zM171 659l112 -90l-86 -104l-112 90z" />
    <glyph glyph-name="jeharshort.alt" horiz-adv-x="348" 
d="M86 -79q54 53 81 110l-42 305l132 27q13 -113 18.5 -180t5.5 -117q0 -114 -62 -206t-201 -173l-88 127q102 54 156 107zM171 807l95 -77l-77 -96l-96 77zM95 638l96 -77l-77 -96l-96 77zM254 638l96 -77l-77 -96l-96 77z" />
    <glyph glyph-name="reharshortfina.alt" horiz-adv-x="412" 
d="M419 155q3 -12 3 -28v-87q0 -16 -3 -28t-7 -12h-32q-61 0 -100 45q-5 -106 -67 -193t-195 -165l-88 127q102 54 156 107t81 110l-42 305l132 27l15 -133q4 -36 28.5 -49.5t77.5 -13.5h34q4 0 7 -12z" />
    <glyph glyph-name="zainarshortfina.alt" horiz-adv-x="412" 
d="M419 155q3 -12 3 -28v-87q0 -16 -3 -28t-7 -12h-32q-61 0 -100 45q-5 -106 -67 -193t-195 -165l-88 127q102 54 156 107t81 110l-42 305l132 27l15 -133q4 -36 28.5 -49.5t77.5 -13.5h34q4 0 7 -12zM171 659l112 -90l-86 -104l-112 90z" />
    <glyph glyph-name="jeharshortfina.alt" horiz-adv-x="412" 
d="M419 155q3 -12 3 -28v-87q0 -16 -3 -28t-7 -12h-32q-61 0 -100 45q-5 -106 -67 -193t-195 -165l-88 127q102 54 156 107t81 110l-42 305l132 27l15 -133q4 -36 28.5 -49.5t77.5 -13.5h34q4 0 7 -12zM171 807l95 -77l-77 -96l-96 77zM95 638l96 -77l-77 -96l-96 77z
M254 638l96 -77l-77 -96l-96 77z" />
    <glyph glyph-name="pehark.init.alt" horiz-adv-x="458" 
d="M391 175q0 -38 -14.5 -71.5t-47.5 -55.5q-37 -25 -109 -36.5t-220 -11.5q-4 0 -6.5 11.5t-2.5 28.5v87q0 16 2.5 28t6.5 12q125 0 184.5 4.5t92.5 19.5l-23 214l127 22q10 -154 10 -252zM11 -120l96 -77l-77 -96l-96 77zM170 -120l96 -77l-77 -96l-96 77zM95 -289l96 -77
l-78 -96l-95 77z" />
    <glyph glyph-name="keheharinit.alt" horiz-adv-x="447" 
d="M334.5 352q44.5 -95 44.5 -190q0 -61 -40.5 -96.5t-122.5 -50.5t-216 -15q-4 0 -6.5 11.5t-2.5 28.5v87q0 16 2.5 28t6.5 12q175 0 264 18q-10 77 -75.5 160t-173.5 149l5 134q140 66 320 135l18 -137q-76 -27 -189 -76q12 -7 27 -20q94 -83 138.5 -178z" />
    <glyph glyph-name="gafarinit.alt" horiz-adv-x="447" 
d="M227 768q-127 -46 -207 -82l5 99q73 35 193 82zM334.5 352q44.5 -95 44.5 -190q0 -61 -40.5 -96.5t-122.5 -50.5t-216 -15q-4 0 -6.5 11.5t-2.5 28.5v87q0 16 2.5 28t6.5 12q175 0 264 18q-10 77 -75.5 160t-173.5 149l5 134q140 66 320 135l18 -137q-76 -27 -189 -76
q12 -7 27 -20q94 -83 138.5 -178z" />
    <glyph glyph-name="yehfarsikfina.alt" horiz-adv-x="820" 
d="M826 154.5q3 -12.5 3 -27.5v-87q0 -16 -3 -28t-6 -12h-88h-40q1 -5 1 -17q0 -82 -49.5 -137.5t-132 -82.5t-182.5 -27q-140 0 -201 53t-61 159q0 36 23 171l25 159l102 -22q-39 -234 -39 -283q0 -39 45.5 -54.5t105.5 -15.5q94 0 156 12.5t100 41.5q2 27 -23 35t-86 8
h-51l28 167h367q3 0 6 -12.5z" />
    <glyph glyph-name="yehHamzaabovearfina.alt" horiz-adv-x="820" 
d="M826 154.5q3 -12.5 3 -27.5v-87q0 -16 -3 -28t-6 -12h-88h-40q1 -5 1 -17q0 -82 -49.5 -137.5t-132 -82.5t-182.5 -27q-140 0 -201 53t-61 159q0 36 23 171l25 159l102 -22q-39 -234 -39 -283q0 -39 45.5 -54.5t105.5 -15.5q94 0 156 12.5t100 41.5q2 27 -23 35t-86 8
h-51l28 167h367q3 0 6 -12.5zM70 480l96 26q-16 36 -21.5 61.5t-5.5 54.5q0 44 37.5 68.5t91.5 24.5q39 0 70 -9l-17 -89q-32 8 -48 9q-8 1 -23 1q-23 0 -35 -5q0 -19 7.5 -37.5t28.5 -56.5l145 44l18 -89l-331 -92z" />
    <glyph glyph-name="yeharfina.alt" horiz-adv-x="820" 
d="M826 154.5q3 -12.5 3 -27.5v-87q0 -16 -3 -28t-6 -12h-88h-40q1 -5 1 -17q0 -82 -49.5 -137.5t-132 -82.5t-182.5 -27q-140 0 -201 53t-61 159q0 36 23 171l25 159l102 -22q-39 -234 -39 -283q0 -39 45.5 -54.5t105.5 -15.5q94 0 156 12.5t100 41.5q2 27 -23 35t-86 8
h-51l28 167h367q3 0 6 -12.5zM236 -358l100 -81l-81 -100l-100 81zM322 -458l81 100l100 -81l-81 -100z" />
    <glyph glyph-name="gafarN.alt" horiz-adv-x="883" 
d="M667 768q-126 -46 -207 -82l5 99q73 35 193 82zM771 352q45 -95 45 -190q0 -61 -43 -98t-130 -53t-225 -16q-112 0 -188 17t-119.5 63.5t-43.5 129.5q0 21 8 72t25 150l102 -22q-24 -136 -24 -170q0 -31 21.5 -46.5t69.5 -21t141 -5.5q185 0 290 23q-9 77 -75 160
t-174 149l5 134q144 68 321 135l17 -137q-85 -30 -188 -76q12 -7 26 -20q94 -83 139 -178z" />
    <glyph glyph-name="theharinit.alt" horiz-adv-x="458" 
d="M391 175q0 -38 -14.5 -71.5t-47.5 -55.5q-37 -25 -109 -36.5t-220 -11.5q-4 0 -6.5 11.5t-2.5 28.5v87q0 16 2.5 28t6.5 12q125 0 184.5 4.5t92.5 19.5l-23 214l127 22q10 -154 10 -252zM202 887l95 -77l-77 -96l-96 77zM126 718l96 -77l-77 -96l-96 77zM285 718l96 -77
l-77 -96l-96 77z" />
    <glyph glyph-name="teharinit.alt" horiz-adv-x="458" 
d="M391 175q0 -38 -14.5 -71.5t-47.5 -55.5q-37 -25 -109 -36.5t-220 -11.5q-4 0 -6.5 11.5t-2.5 28.5v87q0 16 2.5 28t6.5 12q125 0 184.5 4.5t92.5 19.5l-23 214l127 22q10 -154 10 -252zM122 726l100 -81l-81 -100l-100 81zM289 726l100 -81l-81 -100l-100 81z" />
    <glyph glyph-name="noonarinit.alt" horiz-adv-x="458" 
d="M391 175q0 -38 -14.5 -71.5t-47.5 -55.5q-37 -25 -109 -36.5t-220 -11.5q-4 0 -6.5 11.5t-2.5 28.5v87q0 16 2.5 28t6.5 12q125 0 184.5 4.5t92.5 19.5l-23 214l127 22q10 -154 10 -252zM202 739l112 -90l-86 -104l-112 90z" />
    <glyph glyph-name="yehfarsik.medi.alt" horiz-adv-x="426" 
d="M432.5 155q2.5 -12 2.5 -28v-87q0 -17 -2.5 -28.5t-6.5 -11.5q-77 0 -123 7.5t-69.5 24t-32.5 44.5q-20 -43 -65 -59.5t-136 -16.5q-4 0 -6.5 11.5t-2.5 28.5v87q0 16 2.5 28t6.5 12q98 0 144 24l-22 179l127 14l9 -198q46 -19 168 -19q4 0 6.5 -12zM37 -94l100 -81
l-81 -100l-100 81zM204 -94l100 -81l-81 -100l-100 81z" />
    <glyph glyph-name="pehark.medi.alt" horiz-adv-x="426" 
d="M432.5 155q2.5 -12 2.5 -28v-87q0 -17 -2.5 -28.5t-6.5 -11.5q-77 0 -123 7.5t-69.5 24t-32.5 44.5q-20 -43 -65 -59.5t-136 -16.5q-4 0 -6.5 11.5t-2.5 28.5v87q0 16 2.5 28t6.5 12q98 0 144 24l-22 179l127 14l9 -198q46 -19 168 -19q4 0 6.5 -12zM41 -94l96 -77
l-77 -96l-96 77zM200 -94l96 -77l-77 -96l-96 77zM125 -263l96 -77l-78 -96l-95 77z" />
    <glyph glyph-name="thehark.medi.alt" horiz-adv-x="426" 
d="M432.5 155q2.5 -12 2.5 -28v-87q0 -17 -2.5 -28.5t-6.5 -11.5q-77 0 -123 7.5t-69.5 24t-32.5 44.5q-20 -43 -65 -59.5t-136 -16.5q-4 0 -6.5 11.5t-2.5 28.5v87q0 16 2.5 28t6.5 12q98 0 144 24l-22 179l127 14l9 -198q46 -19 168 -19q4 0 6.5 -12zM165 845l95 -77
l-77 -96l-96 77zM89 676l96 -77l-77 -96l-96 77zM248 676l96 -77l-77 -96l-96 77z" />
    <glyph glyph-name="tehark.medi.alt" horiz-adv-x="426" 
d="M432.5 155q2.5 -12 2.5 -28v-87q0 -17 -2.5 -28.5t-6.5 -11.5q-77 0 -123 7.5t-69.5 24t-32.5 44.5q-20 -43 -65 -59.5t-136 -16.5q-4 0 -6.5 11.5t-2.5 28.5v87q0 16 2.5 28t6.5 12q98 0 144 24l-22 179l127 14l9 -198q46 -19 168 -19q4 0 6.5 -12zM85 684l100 -81
l-81 -100l-100 81zM252 684l100 -81l-81 -100l-100 81z" />
    <glyph glyph-name="ainark.fina" horiz-adv-x="699" 
d="M705 154.5q3 -12.5 3 -27.5v-87q0 -16 -3 -28t-6 -12h-189q-63 0 -102 20t-65 56q-100 -43 -150 -96q-11 -32 -11 -66q0 -85 47.5 -124t149.5 -39q123 0 241 39l-26 -167q-52 -21 -103.5 -30t-111.5 -9q-95 0 -165.5 36t-108.5 102t-38 154q0 86 40.5 163t114.5 128
q-32 56 -53 90.5t-29 43.5t-14 8l-26 -4l5 133q145 24 274 24q101 0 144 -24.5t43 -84.5v-36q0 -22 -25.5 -69t-52.5 -78q42 -3 53 -3h158q3 0 6 -12.5zM407 236.5q36 39.5 45 72.5q-10 5 -34 8.5t-56 3.5q-74 0 -114 -8q8 -4 18 -16.5t37 -51.5l38 -56q30 8 66 47.5z" />
    <glyph glyph-name="ghainark.fina" horiz-adv-x="699" 
d="M705 154.5q3 -12.5 3 -27.5v-87q0 -16 -3 -28t-6 -12h-189q-63 0 -102 20t-65 56q-100 -43 -150 -96q-11 -32 -11 -66q0 -85 47.5 -124t149.5 -39q123 0 241 39l-26 -167q-52 -21 -103.5 -30t-111.5 -9q-95 0 -165.5 36t-108.5 102t-38 154q0 86 40.5 163t114.5 128
q-32 56 -53 90.5t-29 43.5t-14 8l-26 -4l5 133q145 24 274 24q101 0 144 -24.5t43 -84.5v-36q0 -22 -25.5 -69t-52.5 -78q42 -3 53 -3h158q3 0 6 -12.5zM407 236.5q36 39.5 45 72.5q-10 5 -34 8.5t-56 3.5q-74 0 -114 -8q8 -4 18 -16.5t37 -51.5l38 -56q30 8 66 47.5z
M316 776l112 -90l-86 -104l-112 90z" />
    <glyph glyph-name="kafcheh" 
d="M31 126q0 7 -10.5 10.5t-31.5 6.5q-38 5 -60 16t-22 39q0 35 16.5 79t44 74.5t58.5 30.5q25 0 44.5 -14.5t42.5 -51.5l-41 -40q-25 25 -46 25q-20 0 -34 -21t-22 -51q46 -5 70.5 -12t39 -25.5t14.5 -56.5q0 -62 -56 -99t-156 -37l9 94q101 0 140 33z" />
    <glyph glyph-name="behDotlessarK.medi.alt" horiz-adv-x="426" 
d="M432.5 155q2.5 -12 2.5 -28v-87q0 -17 -2.5 -28.5t-6.5 -11.5q-77 0 -123 7.5t-69.5 24t-32.5 44.5q-20 -43 -65 -59.5t-136 -16.5q-4 0 -6.5 11.5t-2.5 28.5v87q0 16 2.5 28t6.5 12q98 0 144 24l-22 179l127 14l9 -198q46 -19 168 -19q4 0 6.5 -12z" />
    <glyph glyph-name="gafswashar" horiz-adv-x="1027" 
d="M333.5 611q-38.5 -36 -64.5 -77l-5 81q25 35 62.5 66.5t74.5 47.5l9 -64q-38 -18 -76.5 -54zM796.5 409q79.5 -22 121 -75t41.5 -146q0 -46 -46.5 -90.5t-139.5 -73.5t-224 -29q-164 0 -385 14l-97 167q156 -10 248.5 -12t253.5 -2q107 0 174.5 11.5t102.5 37.5
q-33 70 -182 70q-201 0 -279 4t-110 22t-32 62q0 77 52.5 147.5t136 113.5t168.5 44l18 -149q-92 -1 -155 -25.5t-93 -62.5q23 -4 88 -5t136 -1q123 0 202.5 -22zM883 269l-2 -7q2 4 2 7z" />
    <glyph glyph-name="gafswashar.init" horiz-adv-x="883" 
d="M185.5 611q-38.5 -36 -64.5 -77l-5 81q25 35 62.5 66.5t74.5 47.5l9 -64q-38 -18 -76.5 -54zM653.5 409q79.5 -22 121 -75t41.5 -146q0 -46 -46.5 -89t-139.5 -71t-224 -28h-406q-4 0 -6.5 11.5t-2.5 28.5v87q0 16 2.5 28t6.5 12h426q108 0 175 10t101 35q-17 33 -60 51
t-121 18q-201 0 -279 4t-110 22t-32 62q0 77 52.5 147.5t136 113.5t168.5 44l18 -149q-92 -1 -155.5 -26t-92.5 -62q23 -4 87.5 -5t136.5 -1q123 0 202.5 -22zM739 269l-2 -7q2 4 2 7z" />
    <glyph glyph-name="gafswashar.medi" horiz-adv-x="941" 
d="M185.5 611q-38.5 -36 -64.5 -77l-5 81q25 35 62.5 66.5t74.5 47.5l9 -64q-38 -18 -76.5 -54zM947 154.5q3 -12.5 3 -27.5v-87q0 -16 -3 -28t-6 -12h-24q-73 0 -110 26t-48 64q-50 -41 -140 -65.5t-213 -24.5h-406q-4 0 -6.5 11.5t-2.5 28.5v87q0 16 2.5 28t6.5 12h426
q108 0 175 10t101 35q-17 33 -60 51t-121 18q-201 0 -279 4t-110 22t-32 62q0 77 52.5 147.5t136 113.5t168.5 44l18 -149q-92 -1 -155.5 -26t-92.5 -62q23 -4 87.5 -5t136.5 -1q119 0 197.5 -20.5t121.5 -70.5t46 -136q10 -18 29.5 -27.5t54.5 -9.5h41q3 0 6 -12.5z
M739 269l-2 -7q2 4 2 7z" />
    </font>
</defs>
</svg>
